<?xml version="1.0" encoding="UTF-8"?>
<!-- Created with Inkscape (http://www.inkscape.org/) -->
<svg width="55.441mm" height="67.91mm" version="1.1" viewBox="0 0 55.441 67.91" xmlns="http://www.w3.org/2000/svg">
 <defs>
  <clipPath id="clipPath1758">
   <path d="m476.25 221.84h-157.48v-192.5h157.48z"/>
  </clipPath>
  <clipPath id="clipPath1766">
   <path d="m0 781.35h609.72v-781.08h-609.72z"/>
  </clipPath>
  <clipPath id="clipPath1778">
   <path d="m476.25 221.84h-157.48v-192.5h157.48z"/>
  </clipPath>
  <clipPath id="clipPath1786">
   <path d="m0 781.35h609.72v-781.08h-609.72z"/>
  </clipPath>
  <clipPath id="clipPath1814">
   <path d="m476.25 221.84h-157.48v-192.5h157.48z"/>
  </clipPath>
  <clipPath id="clipPath1822">
   <path d="m0 781.35h609.72v-781.08h-609.72z"/>
  </clipPath>
  <clipPath id="clipPath1846">
   <path d="m476.25 221.84h-157.48v-192.5h157.48z"/>
  </clipPath>
  <clipPath id="clipPath1854">
   <path d="m0 781.35h609.72v-781.08h-609.72z"/>
  </clipPath>
  <clipPath id="clipPath1866">
   <path d="m476.25 221.84h-157.48v-192.5h157.48z"/>
  </clipPath>
  <clipPath id="clipPath1874">
   <path d="m0 781.35h609.72v-781.08h-609.72z"/>
  </clipPath>
  <clipPath id="clipPath1896">
   <path d="m333.72 179.31 18.567 3.0309 3.0309-18.567-18.567-3.0309z"/>
  </clipPath>
  <radialGradient id="radialGradient1902" cx="0" cy="0" r="1" fx=".2258" fy="-.35484" gradientTransform="matrix(7.5157 1.2269 1.2269 -7.5157 344.52 171.54)" gradientUnits="userSpaceOnUse">
   <stop stop-color="#fff" offset="0"/>
   <stop stop-color="#00a88e" offset="1"/>
  </radialGradient>
  <clipPath id="clipPath1920">
   <path d="m344.99 180.64 15.461 2.5238 2.8808-17.648-15.461-2.5238z"/>
  </clipPath>
  <radialGradient id="radialGradient1926" cx="0" cy="0" r="1" fx=".2258" fy="-.35484" gradientTransform="matrix(7.5157 1.2269 1.2269 -7.5157 352.6 172.86)" gradientUnits="userSpaceOnUse">
   <stop stop-color="#fff" offset="0"/>
   <stop stop-color="#ef412f" offset="1"/>
  </radialGradient>
  <clipPath id="clipPath1944">
   <path d="m350.09 178.85h15.232v-15.231h-15.232z"/>
  </clipPath>
  <radialGradient id="radialGradient1950" cx="0" cy="0" r="1" fx=".2258" fy="-.35484" gradientTransform="matrix(7.6155 0 0 -7.6155 357.7 171.24)" gradientUnits="userSpaceOnUse">
   <stop stop-color="#fff" offset="0"/>
   <stop stop-color="#00a88e" offset="1"/>
  </radialGradient>
  <clipPath id="clipPath1968">
   <path d="m361.8 178.85h11.711v-15.231h-11.711z"/>
  </clipPath>
  <radialGradient id="radialGradient1974" cx="0" cy="0" r="1" fx=".2258" fy="-.35484" gradientTransform="matrix(7.6157 0 0 -7.6157 365.89 171.24)" gradientUnits="userSpaceOnUse">
   <stop stop-color="#fff" offset="0"/>
   <stop stop-color="#ef412f" offset="1"/>
  </radialGradient>
  <clipPath id="clipPath1992">
   <path d="m353.53 191.79h15.23v-15.23h-15.23z"/>
  </clipPath>
  <radialGradient id="radialGradient1998" cx="0" cy="0" r="1" fx=".2258" fy="-.35484" gradientTransform="matrix(7.6152 0 0 -7.6152 361.15 184.18)" gradientUnits="userSpaceOnUse">
   <stop stop-color="#fff" offset="0"/>
   <stop stop-color="#00a88e" offset="1"/>
  </radialGradient>
  <clipPath id="clipPath2016">
   <path d="m365.24 191.79h11.711v-15.23h-11.711z"/>
  </clipPath>
  <radialGradient id="radialGradient2022" cx="0" cy="0" r="1" fx=".2258" fy="-.35484" gradientTransform="matrix(7.6155 0 0 -7.6155 369.34 184.18)" gradientUnits="userSpaceOnUse">
   <stop stop-color="#fff" offset="0"/>
   <stop stop-color="#ef412f" offset="1"/>
  </radialGradient>
  <clipPath id="clipPath2040">
   <path d="m336.78 193.23 17.692 2.0194 2.0194-17.692-17.692-2.0194z"/>
  </clipPath>
  <radialGradient id="radialGradient2046" cx="0" cy="0" r="1" fx=".2258" fy="-.35484" gradientTransform="matrix(7.566 .8636 .8636 -7.566 346.63 185.4)" gradientUnits="userSpaceOnUse">
   <stop stop-color="#fff" offset="0"/>
   <stop stop-color="#00a88e" offset="1"/>
  </radialGradient>
  <clipPath id="clipPath2064">
   <path d="m348.2 194.17 14.453 1.6496 1.9431-17.024-14.453-1.6496z"/>
  </clipPath>
  <radialGradient id="radialGradient2070" cx="0" cy="0" r="1" fx=".2258" fy="-.35484" gradientTransform="matrix(7.5662 .86362 .86362 -7.5662 354.77 186.33)" gradientUnits="userSpaceOnUse">
   <stop stop-color="#fff" offset="0"/>
   <stop stop-color="#ef412f" offset="1"/>
  </radialGradient>
  <clipPath id="clipPath2088">
   <path d="m364.56 185.44 19.543-4.4962-4.496-19.542-19.543 4.4962z"/>
  </clipPath>
  <radialGradient id="radialGradient2094" cx="0" cy="0" r="1" fx=".2258" fy="-.35484" gradientTransform="matrix(7.4208 -1.7073 -1.7073 -7.4208 372.08 173.42)" gradientUnits="userSpaceOnUse">
   <stop stop-color="#fff" offset="0"/>
   <stop stop-color="#00a88e" offset="1"/>
  </radialGradient>
  <clipPath id="clipPath2112">
   <path d="m375.33 182.36 16.625-3.8248-4.2166-18.328-16.625 3.8248z"/>
  </clipPath>
  <radialGradient id="radialGradient2118" cx="0" cy="0" r="1" fx=".2258" fy="-.35484" gradientTransform="matrix(7.4213 -1.7074 -1.7074 -7.4213 380.06 171.58)" gradientUnits="userSpaceOnUse">
   <stop stop-color="#fff" offset="0"/>
   <stop stop-color="#ef412f" offset="1"/>
  </radialGradient>
  <clipPath id="clipPath2136">
   <path d="m414.69 182.08 9.5243 20.91 20.909-9.524-9.5243-20.91z"/>
  </clipPath>
  <radialGradient id="radialGradient2142" cx="0" cy="0" r="1" fx=".21223" fy=".29326" gradientTransform="matrix(3.1567 6.9303 6.9303 -3.1567 429.9 187.77)" gradientUnits="userSpaceOnUse">
   <stop stop-color="#fff" offset="0"/>
   <stop stop-color="#00a88e" offset="1"/>
  </radialGradient>
  <clipPath id="clipPath2160">
   <path d="m419.89 191.42 8.4991 18.659 19.267-8.7758-8.4991-18.659z"/>
  </clipPath>
  <radialGradient id="radialGradient2166" cx="0" cy="0" r="1" fx=".48656" fy=".18262" gradientTransform="matrix(3.1569 6.9308 6.9308 -3.1569 433.3 195.22)" gradientUnits="userSpaceOnUse">
   <stop stop-color="#fff" offset="0"/>
   <stop stop-color="#ef412f" offset="1"/>
  </radialGradient>
  <clipPath id="clipPath2184">
   <path d="m432.19 179.45h15.23v-15.231h-15.23z"/>
  </clipPath>
  <radialGradient id="radialGradient2190" cx="0" cy="0" r="1" fx=".2258" fy="-.35484" gradientTransform="matrix(7.6155 0 0 -7.6155 439.81 171.83)" gradientUnits="userSpaceOnUse">
   <stop stop-color="#fff" offset="0"/>
   <stop stop-color="#00a88e" offset="1"/>
  </radialGradient>
  <clipPath id="clipPath2208">
   <path d="m443.9 179.45h11.71v-15.231h-11.71z"/>
  </clipPath>
  <radialGradient id="radialGradient2214" cx="0" cy="0" r="1" fx=".2258" fy="-.35484" gradientTransform="matrix(7.615 0 0 -7.615 448 171.83)" gradientUnits="userSpaceOnUse">
   <stop stop-color="#fff" offset="0"/>
   <stop stop-color="#ef412f" offset="1"/>
  </radialGradient>
  <clipPath id="clipPath2232">
   <path d="m456.88 222.71 15.457-18.431-18.431-15.457-15.457 18.431z"/>
  </clipPath>
  <radialGradient id="radialGradient2238" cx="0" cy="0" r="1" fx=".2258" fy="-.35484" gradientTransform="matrix(4.8932 -5.8344 -5.8344 -4.8932 455.39 205.77)" gradientUnits="userSpaceOnUse">
   <stop stop-color="#fff" offset="0"/>
   <stop stop-color="#00a88e" offset="1"/>
  </radialGradient>
  <clipPath id="clipPath2256">
   <path d="m462.55 214.67 14.419-17.192-17.219-14.441-14.419 17.192z"/>
  </clipPath>
  <radialGradient id="radialGradient2262" cx="0" cy="0" r="1" fx=".2258" fy="-.35484" gradientTransform="matrix(4.8939 -5.8352 -5.8352 -4.8939 460.66 199.49)" gradientUnits="userSpaceOnUse">
   <stop stop-color="#fff" offset="0"/>
   <stop stop-color="#ef412f" offset="1"/>
  </radialGradient>
  <clipPath id="clipPath2280">
   <path d="m415.97 217.7 17.692 2.0194 2.0194-17.692-17.692-2.0194z"/>
  </clipPath>
  <radialGradient id="radialGradient2286" cx="0" cy="0" r="1" fx=".2258" fy="-.35484" gradientTransform="matrix(7.566 .8636 .8636 -7.566 425.83 209.87)" gradientUnits="userSpaceOnUse">
   <stop stop-color="#fff" offset="0"/>
   <stop stop-color="#00a88e" offset="1"/>
  </radialGradient>
  <clipPath id="clipPath2304">
   <path d="m427.39 218.64 14.453 1.6497 1.9431-17.024-14.453-1.6497z"/>
  </clipPath>
  <radialGradient id="radialGradient2310" cx="0" cy="0" r="1" fx=".2258" fy="-.35484" gradientTransform="matrix(7.566 .8636 .8636 -7.566 433.96 210.8)" gradientUnits="userSpaceOnUse">
   <stop stop-color="#fff" offset="0"/>
   <stop stop-color="#ef412f" offset="1"/>
  </radialGradient>
  <clipPath id="clipPath2328">
   <path d="m475.27 191.25-1.1096-16.725-16.724 1.1095 1.1096 16.725z"/>
  </clipPath>
  <radialGradient id="radialGradient2334" cx="0" cy="0" r="1" fx="-.36201" fy="-.41393" gradientTransform="matrix(-.50409 -7.598 -7.598 .50409 466.36 183.44)" gradientUnits="userSpaceOnUse">
   <stop stop-color="#fff" offset="0"/>
   <stop stop-color="#00a88e" offset="1"/>
  </radialGradient>
  <clipPath id="clipPath2352">
   <path d="m474.33 179.72-0.88655-13.362-16.324 1.083 0.88655 13.362z"/>
  </clipPath>
  <radialGradient id="radialGradient2358" cx="0" cy="0" r="1" fx="-.0896" fy="-.50328" gradientTransform="matrix(-.50417 -7.599 -7.599 .50417 465.81 175.27)" gradientUnits="userSpaceOnUse">
   <stop stop-color="#fff" offset="0"/>
   <stop stop-color="#ef412f" offset="1"/>
  </radialGradient>
  <clipPath id="clipPath2376">
   <path d="m333.72 113.31 18.567 3.0309 3.0309-18.567-18.567-3.0309z"/>
  </clipPath>
  <radialGradient id="radialGradient2382" cx="0" cy="0" r="1" fx=".2258" fy="-.35484" gradientTransform="matrix(7.5157 1.2269 1.2269 -7.5157 344.52 105.54)" gradientUnits="userSpaceOnUse">
   <stop stop-color="#fff" offset="0"/>
   <stop stop-color="#00a88e" offset="1"/>
  </radialGradient>
  <clipPath id="clipPath2400">
   <path d="m344.99 114.64 15.461 2.5238 2.8808-17.648-15.461-2.5238z"/>
  </clipPath>
  <radialGradient id="radialGradient2406" cx="0" cy="0" r="1" fx=".2258" fy="-.35484" gradientTransform="matrix(7.5162 1.2269 1.2269 -7.5162 352.6 106.86)" gradientUnits="userSpaceOnUse">
   <stop stop-color="#fff" offset="0"/>
   <stop stop-color="#ef412f" offset="1"/>
  </radialGradient>
  <clipPath id="clipPath2424">
   <path d="m350.09 112.86h15.232v-15.231h-15.232z"/>
  </clipPath>
  <radialGradient id="radialGradient2430" cx="0" cy="0" r="1" fx=".2258" fy="-.35484" gradientTransform="matrix(7.6152 0 0 -7.6152 357.7 105.24)" gradientUnits="userSpaceOnUse">
   <stop stop-color="#fff" offset="0"/>
   <stop stop-color="#00a88e" offset="1"/>
  </radialGradient>
  <clipPath id="clipPath2448">
   <path d="m361.8 112.86h11.711v-15.231h-11.711z"/>
  </clipPath>
  <radialGradient id="radialGradient2454" cx="0" cy="0" r="1" fx=".2258" fy="-.35484" gradientTransform="matrix(7.6155 0 0 -7.6155 365.89 105.24)" gradientUnits="userSpaceOnUse">
   <stop stop-color="#fff" offset="0"/>
   <stop stop-color="#ef412f" offset="1"/>
  </radialGradient>
  <clipPath id="clipPath2472">
   <path d="m336.78 127.23 17.692 2.0194 2.0194-17.692-17.692-2.0194z"/>
  </clipPath>
  <radialGradient id="radialGradient2478" cx="0" cy="0" r="1" fx=".2258" fy="-.35484" gradientTransform="matrix(7.5657 .86357 .86357 -7.5657 346.63 119.4)" gradientUnits="userSpaceOnUse">
   <stop stop-color="#fff" offset="0"/>
   <stop stop-color="#00a88e" offset="1"/>
  </radialGradient>
  <clipPath id="clipPath2496">
   <path d="m348.2 128.17 14.453 1.6497 1.943-17.023-14.453-1.6497z"/>
  </clipPath>
  <radialGradient id="radialGradient2502" cx="0" cy="0" r="1" fx=".2258" fy="-.35484" gradientTransform="matrix(7.5665 .86365 .86365 -7.5665 354.77 120.33)" gradientUnits="userSpaceOnUse">
   <stop stop-color="#fff" offset="0"/>
   <stop stop-color="#ef412f" offset="1"/>
  </radialGradient>
  <clipPath id="clipPath2520">
   <path d="m364.56 119.44 19.543-4.4962-4.4958-19.541-19.543 4.4962z"/>
  </clipPath>
  <radialGradient id="radialGradient2526" cx="0" cy="0" r="1" fx=".2258" fy="-.35484" gradientTransform="matrix(7.4208 -1.7073 -1.7073 -7.4208 372.08 107.42)" gradientUnits="userSpaceOnUse">
   <stop stop-color="#fff" offset="0"/>
   <stop stop-color="#00a88e" offset="1"/>
  </radialGradient>
  <clipPath id="clipPath2544">
   <path d="m375.33 116.36 16.625-3.8248-4.2168-18.329-16.625 3.8248z"/>
  </clipPath>
  <radialGradient id="radialGradient2550" cx="0" cy="0" r="1" fx=".2258" fy="-.35484" gradientTransform="matrix(7.4211 -1.7073 -1.7073 -7.4211 380.06 105.58)" gradientUnits="userSpaceOnUse">
   <stop stop-color="#fff" offset="0"/>
   <stop stop-color="#ef412f" offset="1"/>
  </radialGradient>
  <clipPath id="clipPath2568">
   <path d="m416.22 113.31 18.567 3.0309 3.0309-18.567-18.567-3.0309z"/>
  </clipPath>
  <radialGradient id="radialGradient2574" cx="0" cy="0" r="1" fx=".2258" fy="-.35484" gradientTransform="matrix(7.5155 1.2268 1.2268 -7.5155 427.02 105.54)" gradientUnits="userSpaceOnUse">
   <stop stop-color="#fff" offset="0"/>
   <stop stop-color="#00a88e" offset="1"/>
  </radialGradient>
  <clipPath id="clipPath2592">
   <path d="m427.49 114.64 15.46 2.5236 2.8808-17.648-15.46-2.5237z"/>
  </clipPath>
  <radialGradient id="radialGradient2598" cx="0" cy="0" r="1" fx=".2258" fy="-.35484" gradientTransform="matrix(7.5164 1.227 1.227 -7.5164 435.1 106.86)" gradientUnits="userSpaceOnUse">
   <stop stop-color="#fff" offset="0"/>
   <stop stop-color="#00a88e" offset="1"/>
  </radialGradient>
  <clipPath id="clipPath2616">
   <path d="m432.59 112.86h15.23v-15.231h-15.23z"/>
  </clipPath>
  <radialGradient id="radialGradient2622" cx="0" cy="0" r="1" fx=".2258" fy="-.35484" gradientTransform="matrix(7.6152 0 0 -7.6152 440.2 105.24)" gradientUnits="userSpaceOnUse">
   <stop stop-color="#fff" offset="0"/>
   <stop stop-color="#ef412f" offset="1"/>
  </radialGradient>
  <clipPath id="clipPath2640">
   <path d="m444.3 112.85h11.71v-15.231h-11.71z"/>
  </clipPath>
  <radialGradient id="radialGradient2646" cx="0" cy="0" r="1" fx=".2258" fy="-.35484" gradientTransform="matrix(7.6147 0 0 -7.6147 448.4 105.24)" gradientUnits="userSpaceOnUse">
   <stop stop-color="#fff" offset="0"/>
   <stop stop-color="#ef412f" offset="1"/>
  </radialGradient>
  <clipPath id="clipPath2664">
   <path d="m419.28 127.23 17.692 2.0193 2.0193-17.692-17.692-2.0193z"/>
  </clipPath>
  <radialGradient id="radialGradient2670" cx="0" cy="0" r="1" fx=".2258" fy="-.35484" gradientTransform="matrix(7.565 .86348 .86348 -7.565 429.14 119.4)" gradientUnits="userSpaceOnUse">
   <stop stop-color="#fff" offset="0"/>
   <stop stop-color="#ef412f" offset="1"/>
  </radialGradient>
  <clipPath id="clipPath2688">
   <path d="m430.7 128.17 14.452 1.6496 1.943-17.023-14.452-1.6496z"/>
  </clipPath>
  <radialGradient id="radialGradient2694" cx="0" cy="0" r="1" fx=".2258" fy="-.35484" gradientTransform="matrix(7.5665 .86365 .86365 -7.5665 437.27 120.33)" gradientUnits="userSpaceOnUse">
   <stop stop-color="#fff" offset="0"/>
   <stop stop-color="#ef412f" offset="1"/>
  </radialGradient>
  <clipPath id="clipPath2712">
   <path d="m447.06 119.44 19.543-4.4962-4.4959-19.541-19.543 4.4962z"/>
  </clipPath>
  <radialGradient id="radialGradient2718" cx="0" cy="0" r="1" fx=".2258" fy="-.35484" gradientTransform="matrix(7.4213 -1.7074 -1.7074 -7.4213 454.58 107.42)" gradientUnits="userSpaceOnUse">
   <stop stop-color="#fff" offset="0"/>
   <stop stop-color="#00a88e" offset="1"/>
  </radialGradient>
  <clipPath id="clipPath2736">
   <path d="m457.83 116.36 16.625-3.8248-4.2168-18.329-16.625 3.8248z"/>
  </clipPath>
  <radialGradient id="radialGradient2742" cx="0" cy="0" r="1" fx=".2258" fy="-.35484" gradientTransform="matrix(7.422 -1.7076 -1.7076 -7.422 462.56 105.58)" gradientUnits="userSpaceOnUse">
   <stop stop-color="#fff" offset="0"/>
   <stop stop-color="#00a88e" offset="1"/>
  </radialGradient>
  <clipPath id="clipPath2760">
   <path d="m333.72 47.311 18.567 3.0308 3.0307-18.566-18.567-3.0308z"/>
  </clipPath>
  <radialGradient id="radialGradient2766" cx="0" cy="0" r="1" fx=".2258" fy="-.35484" gradientTransform="matrix(7.516 1.2269 1.2269 -7.516 344.52 39.543)" gradientUnits="userSpaceOnUse">
   <stop stop-color="#fff" offset="0"/>
   <stop stop-color="#ef412f" offset="1"/>
  </radialGradient>
  <clipPath id="clipPath2784">
   <path d="m344.99 48.641 15.461 2.5238 2.8808-17.648-15.461-2.5238z"/>
  </clipPath>
  <radialGradient id="radialGradient2790" cx="0" cy="0" r="1" fx=".2258" fy="-.35484" gradientTransform="matrix(7.516 1.2269 1.2269 -7.516 352.6 40.863)" gradientUnits="userSpaceOnUse">
   <stop stop-color="#fff" offset="0"/>
   <stop stop-color="#ef412f" offset="1"/>
  </radialGradient>
  <clipPath id="clipPath2808">
   <path d="m350.09 46.854h15.232v-15.231h-15.232z"/>
  </clipPath>
  <radialGradient id="radialGradient2814" cx="0" cy="0" r="1" fx=".2258" fy="-.35484" gradientTransform="matrix(7.6152 0 0 -7.6152 357.7 39.238)" gradientUnits="userSpaceOnUse">
   <stop stop-color="#fff" offset="0"/>
   <stop stop-color="#00a88e" offset="1"/>
  </radialGradient>
  <clipPath id="clipPath2832">
   <path d="m353.53 59.795h15.23v-15.23h-15.23z"/>
  </clipPath>
  <radialGradient id="radialGradient2838" cx="0" cy="0" r="1" fx=".2258" fy="-.35484" gradientTransform="matrix(7.6152 0 0 -7.6152 361.15 52.18)" gradientUnits="userSpaceOnUse">
   <stop stop-color="#fff" offset="0"/>
   <stop stop-color="#ef412f" offset="1"/>
  </radialGradient>
  <clipPath id="clipPath2856">
   <path d="m365.24 59.795h11.711v-15.23h-11.711z"/>
  </clipPath>
  <radialGradient id="radialGradient2862" cx="0" cy="0" r="1" fx=".2258" fy="-.35484" gradientTransform="matrix(7.6155 0 0 -7.6155 369.34 52.18)" gradientUnits="userSpaceOnUse">
   <stop stop-color="#fff" offset="0"/>
   <stop stop-color="#ef412f" offset="1"/>
  </radialGradient>
  <clipPath id="clipPath2880">
   <path d="m442.77 46.924 20.823 10.737 10.737-20.822-20.823-10.737z"/>
  </clipPath>
  <radialGradient id="radialGradient2886" cx="0" cy="0" r="1" fx=".2258" fy="-.35484" gradientTransform="matrix(6.7675 3.4896 3.4896 -6.7675 458.55 41.881)" gradientUnits="userSpaceOnUse">
   <stop stop-color="#fff" offset="0"/>
   <stop stop-color="#00a88e" offset="1"/>
  </radialGradient>
  <clipPath id="clipPath2904">
   <path d="m454.69 51.342 18.284 6.9322 7.2691-19.172-18.284-6.9322z"/>
  </clipPath>
  <radialGradient id="radialGradient2910" cx="0" cy="0" r="1" fx=".2258" fy="-.35484" gradientTransform="matrix(7.1212 2.7 2.7 -7.1212 466.21 44.784)" gradientUnits="userSpaceOnUse">
   <stop stop-color="#fff" offset="0"/>
   <stop stop-color="#ef412f" offset="1"/>
  </radialGradient>
  <clipPath id="clipPath2928">
   <path d="m455.21 51.615-18.286-6.9329 7.2687-19.171 18.286 6.9329z"/>
  </clipPath>
  <radialGradient id="radialGradient2934" cx="0" cy="0" r="1" fx="-.2048" fy="-.37674" gradientTransform="matrix(-7.1207 -2.6998 2.6998 -7.1207 450.96 39.002)" gradientUnits="userSpaceOnUse">
   <stop stop-color="#fff" offset="0"/>
   <stop stop-color="#ef412f" offset="1"/>
  </radialGradient>
  <clipPath id="clipPath2952">
   <path d="m439.95 65.64 17.691 2.0193 2.0192-17.691-17.691-2.0193z"/>
  </clipPath>
  <radialGradient id="radialGradient2958" cx="0" cy="0" r="1" fx=".2258" fy="-.35484" gradientTransform="matrix(7.5662 .86362 .86362 -7.5662 449.81 57.805)" gradientUnits="userSpaceOnUse">
   <stop stop-color="#fff" offset="0"/>
   <stop stop-color="#00a88e" offset="1"/>
  </radialGradient>
  <clipPath id="clipPath2976">
   <path d="m453.9 65.42h11.71v-15.23h-11.71z"/>
  </clipPath>
  <radialGradient id="radialGradient2982" cx="0" cy="0" r="1" fx=".2258" fy="-.35484" gradientTransform="matrix(7.6152 0 0 -7.6152 458 57.805)" gradientUnits="userSpaceOnUse">
   <stop stop-color="#fff" offset="0"/>
   <stop stop-color="#ef412f" offset="1"/>
  </radialGradient>
  <clipPath id="clipPath3000">
   <path d="m445.78 65.42h-11.71v-15.23h11.71z"/>
  </clipPath>
  <radialGradient id="radialGradient3006" cx="0" cy="0" r="1" fx="-.2048" fy="-.37674" gradientTransform="matrix(-7.6155 0 0 -7.6155 441.68 57.805)" gradientUnits="userSpaceOnUse">
   <stop stop-color="#fff" offset="0"/>
   <stop stop-color="#ef412f" offset="1"/>
  </radialGradient>
  <clipPath id="clipPath3024">
   <path d="m427.03 50.991 17.691 2.0193 2.0192-17.691-17.691-2.0193z"/>
  </clipPath>
  <radialGradient id="radialGradient3030" cx="0" cy="0" r="1" fx=".2258" fy="-.35484" gradientTransform="matrix(7.5662 .86362 .86362 -7.5662 436.88 43.155)" gradientUnits="userSpaceOnUse">
   <stop stop-color="#fff" offset="0"/>
   <stop stop-color="#00a88e" offset="1"/>
  </radialGradient>
  <clipPath id="clipPath3048">
   <path d="m440.98 50.772h11.711v-15.231h-11.711z"/>
  </clipPath>
  <radialGradient id="radialGradient3054" cx="0" cy="0" r="1" fx=".2258" fy="-.35484" gradientTransform="matrix(7.6152 0 0 -7.6152 445.07 43.156)" gradientUnits="userSpaceOnUse">
   <stop stop-color="#fff" offset="0"/>
   <stop stop-color="#ef412f" offset="1"/>
  </radialGradient>
  <clipPath id="clipPath3072">
   <path d="m432.86 50.772h-11.711v-15.231h11.711z"/>
  </clipPath>
  <radialGradient id="radialGradient3078" cx="0" cy="0" r="1" fx="-.2048" fy="-.37674" gradientTransform="matrix(-7.6155 0 0 -7.6155 428.76 43.156)" gradientUnits="userSpaceOnUse">
   <stop stop-color="#fff" offset="0"/>
   <stop stop-color="#ef412f" offset="1"/>
  </radialGradient>
  <clipPath id="clipPath3096">
   <path d="m336.78 61.235 17.692 2.0194 2.0195-17.693-17.692-2.0194z"/>
  </clipPath>
  <radialGradient id="radialGradient3102" cx="0" cy="0" r="1" fx=".2258" fy="-.35484" gradientTransform="matrix(7.566 .8636 .8636 -7.566 346.63 53.398)" gradientUnits="userSpaceOnUse">
   <stop stop-color="#fff" offset="0"/>
   <stop stop-color="#00a88e" offset="1"/>
  </radialGradient>
  <clipPath id="clipPath3120">
   <path d="m364.56 53.438 19.543-4.4962-4.4961-19.543-19.543 4.4962z"/>
  </clipPath>
  <radialGradient id="radialGradient3126" cx="0" cy="0" r="1" fx=".2258" fy="-.35484" gradientTransform="matrix(7.4211 -1.7073 -1.7073 -7.4211 372.08 41.419)" gradientUnits="userSpaceOnUse">
   <stop stop-color="#fff" offset="0"/>
   <stop stop-color="#ef412f" offset="1"/>
  </radialGradient>
  <clipPath id="clipPath3144">
   <path d="m375.33 50.356 16.624-3.8247-4.2164-18.327-16.624 3.8247z"/>
  </clipPath>
  <radialGradient id="radialGradient3150" cx="0" cy="0" r="1" fx=".2258" fy="-.35484" gradientTransform="matrix(7.4215 -1.7074 -1.7074 -7.4215 380.06 39.583)" gradientUnits="userSpaceOnUse">
   <stop stop-color="#fff" offset="0"/>
   <stop stop-color="#ef412f" offset="1"/>
  </radialGradient>
 </defs>
 <g transform="translate(-88.059 -105.74)">
  <g transform="matrix(.35278 0 0 -.35278 115.37 116.41)">
   <path d="m0 0h14.758" fill="none" stroke="#231f20" stroke-width=".5"/>
  </g>
  <g transform="matrix(.35278 0 0 -.35278 120.57 116.41)">
   <path d="m0 0-3.331-2.131 0.584-0.85 3.989 2.563v0.814l-3.96 2.635-0.588-0.832 3.306-2.199" fill="#231f20" fill-rule="evenodd"/>
  </g>
  <path d="m114.31 126.99h-21.167v-21.167h21.167z" fill="#fff"/>
  <g transform="matrix(.35278 0 0 -.35278 -24.511 184)">
   <g clip-path="url(#clipPath1758)">
    <g clip-path="url(#clipPath1766)">
     <path d="m393.5 161.59h-60v60h60z" fill="none" stroke="#231f20" stroke-width=".5"/>
    </g>
   </g>
  </g>
  <path d="m143.41 126.99h-21.167v-21.167h21.167z" fill="#fff"/>
  <g transform="matrix(.35278 0 0 -.35278 -24.511 184)">
   <g clip-path="url(#clipPath1778)">
    <g clip-path="url(#clipPath1786)">
     <path d="m476 161.59h-60v60h60z" fill="none" stroke="#231f20" stroke-width=".5"/>
    </g>
   </g>
  </g>
  <text x="88.104424" y="117.21203" fill="#231f20" font-family="Sabon" font-size="2.8222px" stroke-width=".35278" xml:space="preserve"><tspan x="88.104424 89.04422 90.45533" y="117.21203" stroke-width=".35278">(a)</tspan></text>
  <g transform="matrix(.35278 0 0 -.35278 115.37 139.69)">
   <path d="m0 0h14.758" fill="none" stroke="#231f20" stroke-width=".5"/>
  </g>
  <g transform="matrix(.35278 0 0 -.35278 120.57 139.69)">
   <path d="m0 0-3.331-2.131 0.584-0.85 3.989 2.563v0.814l-3.96 2.635-0.588-0.832 3.306-2.199" fill="#231f20" fill-rule="evenodd"/>
  </g>
  <path d="m114.31 150.27h-21.167v-21.167h21.167z" fill="#fff"/>
  <path d="m114.31 150.27h-21.167v-21.167h21.167z" fill="none" stroke="#231f20" stroke-width=".17639"/>
  <path d="m143.41 150.27h-21.167v-21.167h21.167z" fill="#fff"/>
  <g transform="matrix(.35278 0 0 -.35278 -24.511 184)">
   <g clip-path="url(#clipPath1814)">
    <g clip-path="url(#clipPath1822)">
     <path d="m476 95.588h-60v60h60z" fill="none" stroke="#231f20" stroke-width=".5"/>
    </g>
   </g>
  </g>
  <text x="87.946373" y="140.49536" fill="#231f20" font-family="Sabon" font-size="2.8222px" stroke-width=".35278" xml:space="preserve"><tspan x="87.946373 88.886177 90.45533" y="140.49536" stroke-width=".35278">(b)</tspan></text>
  <g transform="matrix(.35278 0 0 -.35278 115.37 162.97)">
   <path d="m0 0h14.758" fill="none" stroke="#231f20" stroke-width=".5"/>
  </g>
  <g transform="matrix(.35278 0 0 -.35278 120.57 162.97)">
   <path d="m0 0-3.331-2.131 0.584-0.849 3.989 2.562v0.814l-3.96 2.635-0.588-0.832 3.306-2.199" fill="#231f20" fill-rule="evenodd"/>
  </g>
  <path d="m114.31 173.56h-21.167v-21.167h21.167z" fill="#fff"/>
  <g transform="matrix(.35278 0 0 -.35278 -24.511 184)">
   <g clip-path="url(#clipPath1846)">
    <g clip-path="url(#clipPath1854)">
     <path d="m393.5 29.588h-60v60h60z" fill="none" stroke="#231f20" stroke-width=".5"/>
    </g>
   </g>
  </g>
  <path d="m143.41 173.56h-21.167v-21.167h21.167z" fill="#fff"/>
  <g transform="matrix(.35278 0 0 -.35278 -24.511 184)">
   <g clip-path="url(#clipPath1866)">
    <g clip-path="url(#clipPath1874)">
     <path d="m476 29.588h-60v60h60z" fill="none" stroke="#231f20" stroke-width=".5"/>
    </g>
   </g>
  </g>
  <text x="88.262466" y="163.77869" fill="#231f20" font-family="Sabon" font-size="2.8222px" stroke-width=".35278" xml:space="preserve"><tspan x="88.262466 89.202263 90.45533" y="163.77869" stroke-width=".35278">(c)</tspan></text>
  <g transform="matrix(.35278 0 0 -.35278 -24.511 184)">
   <g clip-path="url(#clipPath1896)">
    <path d="m352.03 172.77c0.678-4.152-2.139-8.065-6.29-8.742-4.151-0.678-8.064 2.139-8.742 6.289-0.677 4.15 2.139 8.064 6.29 8.742s8.065-2.138 8.742-6.289" fill="url(#radialGradient1902)"/>
   </g>
   <g clip-path="url(#clipPath1920)">
    <path d="m351.38 180.38c-1.49-0.244-2.802-0.908-3.849-1.847l2.066-12.658c1.29-0.557 2.746-0.77 4.236-0.526 4.151 0.677 6.967 4.591 6.289 8.74-0.677 4.152-4.591 6.968-8.742 6.291" fill="url(#radialGradient1926)"/>
   </g>
   <g clip-path="url(#clipPath1944)">
    <path d="m365.32 171.24c0-4.206-3.41-7.615-7.615-7.615-4.206 0-7.617 3.409-7.617 7.615s3.411 7.616 7.617 7.616c4.205 0 7.615-3.41 7.615-7.616" fill="url(#radialGradient1950)"/>
   </g>
   <g clip-path="url(#clipPath1968)">
    <path d="m365.9 178.86c-1.51 0-2.913-0.445-4.097-1.203v-12.825c1.184-0.758 2.587-1.203 4.097-1.203 4.205 0 7.614 3.409 7.614 7.615s-3.409 7.616-7.614 7.616" fill="url(#radialGradient1974)"/>
   </g>
   <g clip-path="url(#clipPath1992)">
    <path d="m368.76 184.18c0-4.206-3.409-7.615-7.616-7.615-4.205 0-7.614 3.409-7.614 7.615 0 4.205 3.409 7.615 7.614 7.615 4.207 0 7.616-3.41 7.616-7.615" fill="url(#radialGradient1998)"/>
   </g>
   <g clip-path="url(#clipPath2016)">
    <path d="m369.34 191.79c-1.509 0-2.913-0.444-4.096-1.202v-12.826c1.183-0.757 2.587-1.202 4.096-1.202 4.205 0 7.615 3.409 7.615 7.615 0 4.205-3.41 7.615-7.615 7.615" fill="url(#radialGradient2022)"/>
   </g>
   <g clip-path="url(#clipPath2040)">
    <path d="m354.2 186.26c0.477-4.179-2.524-7.952-6.702-8.429-4.179-0.478-7.952 2.523-8.43 6.702-0.477 4.178 2.523 7.952 6.703 8.429 4.178 0.477 7.953-2.524 8.429-6.702" fill="url(#radialGradient2046)"/>
   </g>
   <g clip-path="url(#clipPath2064)">
    <path d="m353.91 193.89c-1.5-0.172-2.843-0.773-3.933-1.66l1.455-12.742c1.261-0.619 2.705-0.902 4.205-0.731 4.179 0.477 7.18 4.251 6.702 8.43-0.477 4.178-4.25 7.179-8.429 6.703" fill="url(#radialGradient2070)"/>
   </g>
   <g clip-path="url(#clipPath2088)">
    <path d="m379.5 171.71c-0.943-4.099-5.03-6.656-9.129-5.713-4.098 0.943-6.657 5.03-5.714 9.128 0.944 4.099 5.031 6.657 9.129 5.713 4.099-0.942 6.657-5.029 5.714-9.128" fill="url(#radialGradient2094)"/>
   </g>
   <g clip-path="url(#clipPath2112)">
    <path d="m381.77 179c-1.471 0.338-2.938 0.219-4.261-0.253l-2.876-12.5c0.983-1.003 2.251-1.751 3.722-2.089 4.099-0.944 8.185 1.613 9.128 5.713 0.945 4.098-1.614 8.186-5.713 9.129" fill="url(#radialGradient2118)"/>
   </g>
   <g clip-path="url(#clipPath2136)">
    <path d="m433.06 194.7c3.827-1.743 5.515-6.259 3.772-10.086s-6.259-5.517-10.087-3.774c-3.826 1.743-5.516 6.259-3.773 10.086 1.742 3.829 6.26 5.518 10.088 3.774" fill="url(#radialGradient2142)"/>
   </g>
   <g clip-path="url(#clipPath2160)">
    <path d="m426.37 198.38c-0.626-1.373-0.801-2.834-0.602-4.225l11.67-5.317c1.181 0.764 2.167 1.855 2.793 3.23 1.743 3.826 0.054 8.343-3.773 10.086-3.829 1.742-8.345 0.054-10.088-3.774" fill="url(#radialGradient2166)"/>
   </g>
   <g clip-path="url(#clipPath2184)">
    <path d="m447.42 171.83c0-4.206-3.41-7.616-7.615-7.616-4.206 0-7.615 3.41-7.615 7.616s3.409 7.615 7.615 7.615c4.205 0 7.615-3.409 7.615-7.615" fill="url(#radialGradient2190)"/>
   </g>
   <g clip-path="url(#clipPath2208)">
    <path d="m448 179.45c-1.51 0-2.911-0.444-4.095-1.202v-12.826c1.184-0.758 2.585-1.203 4.095-1.203 4.206 0 7.615 3.41 7.615 7.616s-3.409 7.615-7.615 7.615" fill="url(#radialGradient2214)"/>
   </g>
   <g clip-path="url(#clipPath2232)">
    <path d="m460.29 199.93c-3.222-2.703-8.025-2.281-10.728 0.942-2.702 3.222-2.282 8.025 0.942 10.728 3.222 2.702 8.026 2.281 10.727-0.942 2.703-3.222 2.281-8.026-0.941-10.728" fill="url(#radialGradient2238)"/>
   </g>
   <g clip-path="url(#clipPath2256)">
    <path d="m466.49 204.39c-0.968 1.157-2.211 1.945-3.551 2.366l-9.828-8.242c0.18-1.394 0.741-2.755 1.71-3.911 2.703-3.222 7.507-3.644 10.73-0.941 3.221 2.701 3.642 7.506 0.939 10.728" fill="url(#radialGradient2262)"/>
   </g>
   <g clip-path="url(#clipPath2280)">
    <path d="m433.39 210.73c0.476-4.178-2.524-7.952-6.703-8.43-4.178-0.477-7.953 2.524-8.429 6.703-0.478 4.179 2.523 7.953 6.702 8.429 4.178 0.477 7.952-2.524 8.43-6.702" fill="url(#radialGradient2286)"/>
   </g>
   <g clip-path="url(#clipPath2304)">
    <path d="m433.1 218.36c-1.5-0.171-2.843-0.772-3.934-1.658l1.455-12.744c1.262-0.619 2.706-0.901 4.205-0.729 4.179 0.476 7.18 4.25 6.702 8.429-0.476 4.179-4.251 7.179-8.428 6.702" fill="url(#radialGradient2310)"/>
   </g>
   <g clip-path="url(#clipPath2328)">
    <path d="m465.85 175.84c-4.198 0.278-7.371 3.906-7.094 8.102 0.277 4.197 3.905 7.373 8.101 7.095 4.197-0.279 7.374-3.906 7.095-8.103-0.278-4.196-3.906-7.373-8.102-7.094" fill="url(#radialGradient2334)"/>
   </g>
   <g clip-path="url(#clipPath2352)">
    <path d="m473.41 174.76c0.1 1.505-0.25 2.934-0.928 4.166l-12.798 0.848c-0.834-1.13-1.371-2.501-1.471-4.006-0.277-4.197 2.897-7.825 7.094-8.104 4.197-0.278 7.824 2.899 8.103 7.096" fill="url(#radialGradient2358)"/>
   </g>
   <g clip-path="url(#clipPath2376)">
    <path d="m352.03 106.77c0.678-4.151-2.139-8.065-6.29-8.743-4.151-0.677-8.064 2.139-8.742 6.29-0.677 4.15 2.139 8.064 6.29 8.742s8.065-2.137 8.742-6.289" fill="url(#radialGradient2382)"/>
   </g>
   <g clip-path="url(#clipPath2400)">
    <path d="m351.38 114.38c-1.49-0.244-2.802-0.908-3.849-1.847l2.066-12.658c1.29-0.557 2.746-0.77 4.236-0.527 4.151 0.678 6.967 4.592 6.289 8.742-0.677 4.151-4.591 6.967-8.742 6.29" fill="url(#radialGradient2406)"/>
   </g>
   <g clip-path="url(#clipPath2424)">
    <path d="m365.32 105.24c0-4.206-3.41-7.614-7.615-7.614-4.206 0-7.617 3.408-7.617 7.614 0 4.207 3.411 7.617 7.617 7.617 4.205 0 7.615-3.41 7.615-7.617" fill="url(#radialGradient2430)"/>
   </g>
   <g clip-path="url(#clipPath2448)">
    <path d="m365.9 112.86c-1.51 0-2.913-0.445-4.097-1.203v-12.826c1.184-0.759 2.587-1.202 4.097-1.202 4.205 0 7.614 3.408 7.614 7.614 0 4.207-3.409 7.617-7.614 7.617" fill="url(#radialGradient2454)"/>
   </g>
   <g clip-path="url(#clipPath2472)">
    <path d="m354.2 120.26c0.477-4.179-2.524-7.953-6.702-8.429-4.179-0.478-7.952 2.522-8.43 6.701-0.477 4.179 2.523 7.953 6.703 8.429 4.178 0.478 7.953-2.523 8.429-6.701" fill="url(#radialGradient2478)"/>
   </g>
   <g clip-path="url(#clipPath2496)">
    <path d="m353.91 127.89c-1.5-0.172-2.843-0.772-3.933-1.659l1.455-12.743c1.261-0.619 2.705-0.901 4.205-0.73 4.179 0.477 7.18 4.251 6.702 8.43-0.477 4.178-4.25 7.178-8.429 6.702" fill="url(#radialGradient2502)"/>
   </g>
   <g clip-path="url(#clipPath2520)">
    <path d="m379.5 105.71c-0.943-4.098-5.03-6.656-9.129-5.712-4.098 0.942-6.657 5.029-5.714 9.127 0.944 4.099 5.031 6.656 9.129 5.713 4.099-0.941 6.657-5.029 5.714-9.128" fill="url(#radialGradient2526)"/>
   </g>
   <g clip-path="url(#clipPath2544)">
    <path d="m381.77 113c-1.471 0.338-2.938 0.219-4.261-0.253l-2.876-12.5c0.983-1.004 2.251-1.752 3.722-2.09 4.099-0.944 8.185 1.614 9.128 5.714 0.945 4.098-1.614 8.185-5.713 9.129" fill="url(#radialGradient2550)"/>
   </g>
   <g clip-path="url(#clipPath2568)">
    <path d="m434.53 106.77c0.679-4.151-2.137-8.065-6.288-8.743-4.15-0.677-8.064 2.139-8.743 6.29-0.677 4.15 2.14 8.064 6.29 8.742 4.151 0.678 8.065-2.137 8.741-6.289" fill="url(#radialGradient2574)"/>
   </g>
   <g clip-path="url(#clipPath2592)">
    <path d="m433.88 114.38c-1.49-0.244-2.803-0.908-3.848-1.847l2.065-12.658c1.291-0.557 2.746-0.77 4.236-0.527 4.151 0.678 6.967 4.592 6.289 8.742-0.677 4.151-4.591 6.967-8.742 6.29" fill="url(#radialGradient2598)"/>
   </g>
   <g clip-path="url(#clipPath2616)">
    <path d="m447.82 105.24c0-4.206-3.409-7.614-7.615-7.614-4.207 0-7.615 3.408-7.615 7.614 0 4.207 3.408 7.617 7.615 7.617 4.206 0 7.615-3.41 7.615-7.617" fill="url(#radialGradient2622)"/>
   </g>
   <g clip-path="url(#clipPath2640)">
    <path d="m448.4 112.86c-1.51 0-2.912-0.445-4.096-1.203v-12.826c1.184-0.759 2.586-1.202 4.096-1.202 4.206 0 7.614 3.408 7.614 7.614 0 4.207-3.408 7.617-7.614 7.617" fill="url(#radialGradient2646)"/>
   </g>
   <g clip-path="url(#clipPath2664)">
    <path d="m436.7 120.26c0.477-4.179-2.523-7.953-6.701-8.429-4.18-0.478-7.953 2.522-8.43 6.701-0.478 4.179 2.524 7.953 6.702 8.429 4.178 0.478 7.953-2.523 8.429-6.701" fill="url(#radialGradient2670)"/>
   </g>
   <g clip-path="url(#clipPath2688)">
    <path d="m436.41 127.89c-1.5-0.172-2.843-0.772-3.932-1.659l1.454-12.743c1.261-0.619 2.707-0.901 4.205-0.73 4.18 0.477 7.18 4.251 6.703 8.43-0.477 4.178-4.251 7.178-8.43 6.702" fill="url(#radialGradient2694)"/>
   </g>
   <g clip-path="url(#clipPath2712)">
    <path d="m462 105.71c-0.943-4.098-5.03-6.656-9.13-5.712-4.097 0.942-6.656 5.029-5.713 9.127 0.944 4.099 5.031 6.656 9.129 5.713 4.099-0.941 6.657-5.029 5.714-9.128" fill="url(#radialGradient2718)"/>
   </g>
   <g clip-path="url(#clipPath2736)">
    <path d="m464.27 113c-1.471 0.338-2.938 0.219-4.261-0.253l-2.876-12.5c0.983-1.004 2.252-1.752 3.723-2.09 4.097-0.944 8.184 1.614 9.128 5.714 0.944 4.098-1.615 8.185-5.714 9.129" fill="url(#radialGradient2742)"/>
   </g>
   <g clip-path="url(#clipPath2760)">
    <path d="m352.03 40.77c0.678-4.153-2.139-8.065-6.29-8.744-4.151-0.676-8.064 2.14-8.742 6.289-0.677 4.152 2.139 8.064 6.29 8.743 4.151 0.678 8.065-2.137 8.742-6.288" fill="url(#radialGradient2766)"/>
   </g>
   <g clip-path="url(#clipPath2784)">
    <path d="m351.38 48.377c-1.49-0.243-2.802-0.908-3.849-1.846l2.066-12.658c1.29-0.558 2.746-0.77 4.236-0.525 4.151 0.676 6.967 4.59 6.289 8.74-0.677 4.151-4.591 6.967-8.742 6.289" fill="url(#radialGradient2790)"/>
   </g>
   <g clip-path="url(#clipPath2808)">
    <path d="m365.32 39.238c0-4.206-3.41-7.615-7.615-7.615-4.206 0-7.617 3.409-7.617 7.615 0 4.207 3.411 7.616 7.617 7.616 4.205 0 7.615-3.409 7.615-7.616" fill="url(#radialGradient2814)"/>
   </g>
   <g clip-path="url(#clipPath2832)">
    <path d="m368.76 52.179c0-4.206-3.409-7.614-7.616-7.614-4.205 0-7.614 3.408-7.614 7.614s3.409 7.616 7.614 7.616c4.207 0 7.616-3.41 7.616-7.616" fill="url(#radialGradient2838)"/>
   </g>
   <g clip-path="url(#clipPath2856)">
    <path d="m369.34 59.795c-1.509 0-2.913-0.445-4.096-1.203v-12.826c1.183-0.758 2.587-1.201 4.096-1.201 4.205 0 7.615 3.408 7.615 7.614s-3.41 7.616-7.615 7.616" fill="url(#radialGradient2862)"/>
   </g>
   <g clip-path="url(#clipPath2880)">
    <path d="m465.32 45.371c1.928-3.739 0.46-8.332-3.279-10.258-3.736-1.927-8.328-0.461-10.256 3.278-1.929 3.737-0.462 8.33 3.278 10.258 3.737 1.927 8.332 0.459 10.257-3.278" fill="url(#radialGradient2886)"/>
   </g>
   <g clip-path="url(#clipPath2904)">
    <path d="m463.51 51.904c-1.41-0.535-2.566-1.449-3.403-2.575l4.547-11.992c1.375-0.29 2.846-0.208 4.256 0.327 3.932 1.491 5.91 5.888 4.421 9.82-1.491 3.933-5.888 5.913-9.821 4.42" fill="url(#radialGradient2910)"/>
   </g>
   <g clip-path="url(#clipPath2928)">
    <path d="m448.26 46.121c1.411 0.535 2.881 0.616 4.256 0.326l4.547-11.99c-0.838-1.128-1.992-2.043-3.404-2.576-3.931-1.492-8.329 0.486-9.82 4.42-1.492 3.932 0.488 8.328 4.421 9.82" fill="url(#radialGradient2934)"/>
   </g>
   <g clip-path="url(#clipPath2952)">
    <path d="m457.37 58.669c0.477-4.179-2.525-7.953-6.703-8.431-4.18-0.476-7.953 2.524-8.43 6.704-0.476 4.177 2.525 7.951 6.704 8.428 4.177 0.477 7.951-2.524 8.429-6.701" fill="url(#radialGradient2958)"/>
   </g>
   <g clip-path="url(#clipPath2976)">
    <path d="m458 65.42c-1.51 0-2.912-0.445-4.095-1.203v-12.826c1.183-0.758 2.585-1.201 4.095-1.201 4.205 0 7.615 3.408 7.615 7.613 0 4.207-3.41 7.617-7.615 7.617" fill="url(#radialGradient2982)"/>
   </g>
   <g clip-path="url(#clipPath3000)">
    <path d="m441.68 65.42c1.508 0 2.911-0.445 4.093-1.203v-12.826c-1.182-0.758-2.585-1.201-4.093-1.201-4.207 0-7.617 3.408-7.617 7.613 0 4.207 3.41 7.617 7.617 7.617" fill="url(#radialGradient3006)"/>
   </g>
   <g clip-path="url(#clipPath3024)">
    <path d="m444.45 44.019c0.477-4.179-2.523-7.953-6.703-8.431-4.178-0.475-7.952 2.523-8.429 6.705-0.477 4.178 2.523 7.951 6.701 8.428 4.179 0.477 7.955-2.524 8.431-6.702" fill="url(#radialGradient3030)"/>
   </g>
   <g clip-path="url(#clipPath3048)">
    <path d="m445.07 50.772c-1.509 0-2.912-0.446-4.095-1.204v-12.826c1.183-0.758 2.586-1.201 4.095-1.201 4.205 0 7.616 3.408 7.616 7.613 0 4.207-3.411 7.618-7.616 7.618" fill="url(#radialGradient3054)"/>
   </g>
   <g clip-path="url(#clipPath3072)">
    <path d="m428.76 50.772c1.508 0 2.912-0.446 4.096-1.204v-12.826c-1.184-0.758-2.588-1.201-4.096-1.201-4.207 0-7.615 3.408-7.615 7.613 0 4.207 3.408 7.618 7.615 7.618" fill="url(#radialGradient3078)"/>
   </g>
   <g clip-path="url(#clipPath3096)">
    <path d="m354.2 54.261c0.477-4.179-2.524-7.952-6.702-8.429-4.179-0.477-7.952 2.523-8.43 6.703-0.477 4.178 2.523 7.952 6.703 8.428 4.178 0.479 7.953-2.523 8.429-6.702" fill="url(#radialGradient3102)"/>
   </g>
   <g clip-path="url(#clipPath3120)">
    <path d="m379.5 39.713c-0.943-4.1-5.03-6.658-9.129-5.715-4.098 0.944-6.657 5.031-5.714 9.129 0.944 4.099 5.031 6.656 9.129 5.713 4.099-0.941 6.657-5.029 5.714-9.127" fill="url(#radialGradient3126)"/>
   </g>
   <g clip-path="url(#clipPath3144)">
    <path d="m381.77 47.005c-1.471 0.337-2.938 0.22-4.261-0.254l-2.876-12.499c0.983-1.004 2.251-1.752 3.722-2.091 4.099-0.942 8.185 1.614 9.128 5.714 0.945 4.099-1.614 8.186-5.713 9.13" fill="url(#radialGradient3150)"/>
   </g>
  </g>
 </g>
</svg>
