<?xml version="1.0" encoding="UTF-8"?>
<!-- Created with Inkscape (http://www.inkscape.org/) -->
<svg width="46.399mm" height="29.149mm" version="1.1" viewBox="0 0 46.399 29.149" xmlns="http://www.w3.org/2000/svg">
 <defs>
  <clipPath id="clipPath399034">
   <path d="m540.9 213.98h16.199v-16.198h-16.199z"/>
  </clipPath>
  <radialGradient id="radialGradient399040" cx="0" cy="0" r="1" fx=".3031" fy="-.48485" gradientTransform="matrix(8.0994 0 0 -8.0994 549 205.88)" gradientUnits="userSpaceOnUse">
   <stop stop-color="#fff7eb" offset="0"/>
   <stop stop-color="#ead2c8" offset="1"/>
  </radialGradient>
  <clipPath id="clipPath399060">
   <path d="m530.06 213.98h16.199v-16.199h-16.199z"/>
  </clipPath>
  <radialGradient id="radialGradient399066" cx="0" cy="0" r="1" fx=".3031" fy="-.48485" gradientTransform="matrix(8.0996 0 0 -8.0996 538.16 205.88)" gradientUnits="userSpaceOnUse">
   <stop stop-color="#fff0db" offset="0"/>
   <stop stop-color="#dbae9f" offset="1"/>
  </radialGradient>
  <clipPath id="clipPath399086">
   <path d="m521.9 213.98h13.523v-16.2h-13.523z"/>
  </clipPath>
  <radialGradient id="radialGradient399092" cx="0" cy="0" r="1" fx=".3031" fy="-.48485" gradientTransform="matrix(8.0996 0 0 -8.0996 527.32 205.88)" gradientUnits="userSpaceOnUse">
   <stop stop-color="#ffebcd" offset="0"/>
   <stop stop-color="#cc8d7b" offset="1"/>
  </radialGradient>
  <clipPath id="clipPath399112">
   <path d="m518.1 213.81h6.372v-15.864h-6.372z"/>
  </clipPath>
  <radialGradient id="radialGradient399118" cx="0" cy="0" r="1" fx=".3031" fy="-.48485" gradientTransform="matrix(8.0996 0 0 -8.0996 516.48 205.88)" gradientUnits="userSpaceOnUse">
   <stop stop-color="#ffe4be" offset="0"/>
   <stop stop-color="#bf6f5d" offset="1"/>
  </radialGradient>
  <clipPath id="clipPath399138">
   <path d="m500.35 213.13h1.676v-14.37h-1.676z"/>
  </clipPath>
  <radialGradient id="radialGradient399144" cx="0" cy="0" r="1" fx=".3031" fy="-.48485" gradientTransform="matrix(8.0991 0 0 -8.0991 505.64 205.88)" gradientUnits="userSpaceOnUse">
   <stop stop-color="#ffdfb0" offset="0"/>
   <stop stop-color="#b25043" offset="1"/>
  </radialGradient>
  <clipPath id="clipPath399164">
   <path d="m489.88 213.98h5.031v-16.2h-5.031z"/>
  </clipPath>
  <radialGradient id="radialGradient399170" cx="0" cy="0" r="1" fx=".3031" fy="-.48485" gradientTransform="matrix(8.0996 0 0 -8.0996 494.8 205.88)" gradientUnits="userSpaceOnUse">
   <stop stop-color="#ffdaa2" offset="0"/>
   <stop stop-color="#a72c31" offset="1"/>
  </radialGradient>
  <clipPath id="clipPath399194">
   <path d="m436.61 213.98h16.2v-16.198h-16.2z"/>
  </clipPath>
  <radialGradient id="radialGradient399200" cx="0" cy="0" r="1" fx=".3031" fy="-.48485" gradientTransform="matrix(8.0994 0 0 -8.0994 444.71 205.88)" gradientUnits="userSpaceOnUse">
   <stop stop-color="#fff7eb" offset="0"/>
   <stop stop-color="#ead2c8" offset="1"/>
  </radialGradient>
  <clipPath id="clipPath399220">
   <path d="m446.67 213.98h16.199v-16.199h-16.199z"/>
  </clipPath>
  <radialGradient id="radialGradient399226" cx="0" cy="0" r="1" fx=".3031" fy="-.48485" gradientTransform="matrix(8.0996 0 0 -8.0996 454.77 205.88)" gradientUnits="userSpaceOnUse">
   <stop stop-color="#fff0db" offset="0"/>
   <stop stop-color="#dbae9f" offset="1"/>
  </radialGradient>
  <clipPath id="clipPath399246">
   <path d="m456.73 213.98h13.131v-16.2h-13.131z"/>
  </clipPath>
  <radialGradient id="radialGradient399252" cx="0" cy="0" r="1" fx=".3031" fy="-.48485" gradientTransform="matrix(8.0996 0 0 -8.0996 464.84 205.88)" gradientUnits="userSpaceOnUse">
   <stop stop-color="#ffebcd" offset="0"/>
   <stop stop-color="#cc8d7b" offset="1"/>
  </radialGradient>
  <clipPath id="clipPath399272">
   <path d="m469.61 213.98h10.322v-16.2h-10.322z"/>
  </clipPath>
  <radialGradient id="radialGradient399278" cx="0" cy="0" r="1" fx=".3031" fy="-.48485" gradientTransform="matrix(8.0996 0 0 -8.0996 474.9 205.88)" gradientUnits="userSpaceOnUse">
   <stop stop-color="#ffe4be" offset="0"/>
   <stop stop-color="#bf6f5d" offset="1"/>
  </radialGradient>
  <clipPath id="clipPath399298">
   <path d="m479.68 213.98h10.316v-16.2h-10.316z"/>
  </clipPath>
  <radialGradient id="radialGradient399304" cx="0" cy="0" r="1" fx=".3031" fy="-.48485" gradientTransform="matrix(8.0996 0 0 -8.0996 484.96 205.88)" gradientUnits="userSpaceOnUse">
   <stop stop-color="#ffdfb0" offset="0"/>
   <stop stop-color="#b25043" offset="1"/>
  </radialGradient>
  <clipPath id="clipPath399324">
   <path d="m489.74 213.98h10.57v-16.2h-10.57z"/>
  </clipPath>
  <radialGradient id="radialGradient399330" cx="0" cy="0" r="1" fx=".3031" fy="-.48485" gradientTransform="matrix(8.0996 0 0 -8.0996 495.02 205.88)" gradientUnits="userSpaceOnUse">
   <stop stop-color="#ffdaa2" offset="0"/>
   <stop stop-color="#a72c31" offset="1"/>
  </radialGradient>
  <clipPath id="clipPath399354">
   <path d="m509.25 164.01h2.8131v-16.191h-2.8131z"/>
  </clipPath>
  <radialGradient id="radialGradient399360" cx="0" cy="0" r="1" fx=".3031" fy="-.48485" gradientTransform="matrix(8.0996 0 0 -8.0996 510.86 155.91)" gradientUnits="userSpaceOnUse">
   <stop stop-color="#fff7eb" offset="0"/>
   <stop stop-color="#ead2c8" offset="1"/>
  </radialGradient>
  <clipPath id="clipPath399380">
   <path d="m508.34 163.82h3.7281v-15.97h-3.7281z"/>
  </clipPath>
  <radialGradient id="radialGradient399386" cx="0" cy="0" r="1" fx=".3031" fy="-.48485" gradientTransform="matrix(8.0991 0 0 -8.0991 507.65 155.91)" gradientUnits="userSpaceOnUse">
   <stop stop-color="#fff0db" offset="0"/>
   <stop stop-color="#dbae9f" offset="1"/>
  </radialGradient>
  <clipPath id="clipPath399406">
   <path d="m502.83 164.01h2.3901v-16.191h-2.3901z"/>
  </clipPath>
  <radialGradient id="radialGradient399412" cx="0" cy="0" r="1" fx=".3031" fy="-.48485" gradientTransform="matrix(8.0996 0 0 -8.0996 504.44 155.91)" gradientUnits="userSpaceOnUse">
   <stop stop-color="#ffebcd" offset="0"/>
   <stop stop-color="#cc8d7b" offset="1"/>
  </radialGradient>
  <clipPath id="clipPath399432">
   <path d="m499.61 164.01h5.603v-16.191h-5.603z"/>
  </clipPath>
  <radialGradient id="radialGradient399438" cx="0" cy="0" r="1" fx=".3031" fy="-.48485" gradientTransform="matrix(8.0996 0 0 -8.0996 501.22 155.91)" gradientUnits="userSpaceOnUse">
   <stop stop-color="#ffe4be" offset="0"/>
   <stop stop-color="#bf6f5d" offset="1"/>
  </radialGradient>
  <clipPath id="clipPath399458">
   <path d="m496.52 164.01h7.294v-16.191h-7.294z"/>
  </clipPath>
  <radialGradient id="radialGradient399464" cx="0" cy="0" r="1" fx=".3031" fy="-.48485" gradientTransform="matrix(8.0996 0 0 -8.0996 498.01 155.91)" gradientUnits="userSpaceOnUse">
   <stop stop-color="#ffdfb0" offset="0"/>
   <stop stop-color="#b25043" offset="1"/>
  </radialGradient>
  <clipPath id="clipPath399484">
   <path d="m493.29 164.01h1.6211v-16.191h-1.6211z"/>
  </clipPath>
  <radialGradient id="radialGradient399490" cx="0" cy="0" r="1" fx=".3031" fy="-.48485" gradientTransform="matrix(8.0996 0 0 -8.0996 494.8 155.91)" gradientUnits="userSpaceOnUse">
   <stop stop-color="#ffdaa2" offset="0"/>
   <stop stop-color="#a72c31" offset="1"/>
  </radialGradient>
  <clipPath id="clipPath399514">
   <path d="m473.04 164h7.4261v-16.191h-7.4261z"/>
  </clipPath>
  <radialGradient id="radialGradient399520" cx="0" cy="0" r="1" fx=".3031" fy="-.48485" gradientTransform="matrix(8.0994 0 0 -8.0994 478.85 155.9)" gradientUnits="userSpaceOnUse">
   <stop stop-color="#fff7eb" offset="0"/>
   <stop stop-color="#ead2c8" offset="1"/>
  </radialGradient>
  <clipPath id="clipPath399540">
   <path d="m476.27 164.01h7.4249v-16.2h-7.4249z"/>
  </clipPath>
  <radialGradient id="radialGradient399546" cx="0" cy="0" r="1" fx=".3031" fy="-.48485" gradientTransform="matrix(8.0996 0 0 -8.0996 482.08 155.91)" gradientUnits="userSpaceOnUse">
   <stop stop-color="#fff0db" offset="0"/>
   <stop stop-color="#dbae9f" offset="1"/>
  </radialGradient>
  <clipPath id="clipPath399566">
   <path d="m479.51 164.01h7.429v-16.2h-7.429z"/>
  </clipPath>
  <radialGradient id="radialGradient399572" cx="0" cy="0" r="1" fx=".3031" fy="-.48485" gradientTransform="matrix(8.0996 0 0 -8.0996 485.32 155.91)" gradientUnits="userSpaceOnUse">
   <stop stop-color="#ffebcd" offset="0"/>
   <stop stop-color="#cc8d7b" offset="1"/>
  </radialGradient>
  <clipPath id="clipPath399592">
   <path d="m482.74 164.01h7.4281v-16.2h-7.4281z"/>
  </clipPath>
  <radialGradient id="radialGradient399598" cx="0" cy="0" r="1" fx=".3031" fy="-.48485" gradientTransform="matrix(8.0996 0 0 -8.0996 488.55 155.91)" gradientUnits="userSpaceOnUse">
   <stop stop-color="#ffe4be" offset="0"/>
   <stop stop-color="#bf6f5d" offset="1"/>
  </radialGradient>
  <clipPath id="clipPath399618">
   <path d="m485.98 164.01h7.452v-16.2h-7.452z"/>
  </clipPath>
  <radialGradient id="radialGradient399624" cx="0" cy="0" r="1" fx=".3031" fy="-.48485" gradientTransform="matrix(8.0996 0 0 -8.0996 491.79 155.91)" gradientUnits="userSpaceOnUse">
   <stop stop-color="#ffdfb0" offset="0"/>
   <stop stop-color="#b25043" offset="1"/>
  </radialGradient>
  <clipPath id="clipPath399644">
   <path d="m489.22 164.01h11.608v-16.191h-11.608z"/>
  </clipPath>
  <radialGradient id="radialGradient399650" cx="0" cy="0" r="1" fx=".3031" fy="-.48485" gradientTransform="matrix(8.0996 0 0 -8.0996 495.02 155.91)" gradientUnits="userSpaceOnUse">
   <stop stop-color="#ffdaa2" offset="0"/>
   <stop stop-color="#a72c31" offset="1"/>
  </radialGradient>
  <clipPath id="clipPath399674">
   <path d="m524.45 207.17h1.31v-2.701h-1.31z"/>
  </clipPath>
  <radialGradient id="radialGradient399680" cx="0" cy="0" r="1" fx=".3031" fy="-.48485" gradientTransform="matrix(8.0996 0 0 -8.0996 527.32 205.88)" gradientUnits="userSpaceOnUse">
   <stop stop-color="#fff6ea" offset="0"/>
   <stop stop-color="#e9d1c7" offset="1"/>
  </radialGradient>
  <clipPath id="clipPath399700">
   <path d="m515.9 213.98h8.6729v-16.2h-8.6729z"/>
  </clipPath>
  <radialGradient id="radialGradient399706" cx="0" cy="0" r="1" fx=".3031" fy="-.48485" gradientTransform="matrix(8.0996 0 0 -8.0996 516.48 205.88)" gradientUnits="userSpaceOnUse">
   <stop stop-color="#fff4e4" offset="0"/>
   <stop stop-color="#e4c4b8" offset="1"/>
  </radialGradient>
  <clipPath id="clipPath399726">
   <path d="m466.55 212.01h3.058v-12.276h-3.058z"/>
  </clipPath>
  <radialGradient id="radialGradient399732" cx="0" cy="0" r="1" fx=".3031" fy="-.48485" gradientTransform="matrix(8.0996 0 0 -8.0996 464.84 205.88)" gradientUnits="userSpaceOnUse">
   <stop stop-color="#fff6ea" offset="0"/>
   <stop stop-color="#e9d1c7" offset="1"/>
  </radialGradient>
  <clipPath id="clipPath399752">
   <path d="m466.79 210.38h1.368v-9.011h-1.368z"/>
  </clipPath>
  <radialGradient id="radialGradient399758" cx="0" cy="0" r="1" fx=".3031" fy="-.48485" gradientTransform="matrix(8.0996 0 0 -8.0996 474.9 205.88)" gradientUnits="userSpaceOnUse">
   <stop stop-color="#fff4e4" offset="0"/>
   <stop stop-color="#e4c4b8" offset="1"/>
  </radialGradient>
  <clipPath id="clipPath399782">
   <path d="m514.14 213.96h9.5609v-16.161h-9.5609z"/>
  </clipPath>
  <radialGradient id="radialGradient399788" cx="0" cy="0" r="1" fx=".3031" fy="-.48485" gradientTransform="matrix(8.0996 0 0 -8.0996 516.48 205.88)" gradientUnits="userSpaceOnUse">
   <stop stop-color="#e3e8d7" offset="0"/>
   <stop stop-color="#cdbcad" offset="1"/>
  </radialGradient>
  <clipPath id="clipPath399808">
   <path d="m468.16 212.01h1.447v-12.276h-1.447z"/>
  </clipPath>
  <radialGradient id="radialGradient399814" cx="0" cy="0" r="1" fx=".3031" fy="-.48485" gradientTransform="matrix(8.0996 0 0 -8.0996 464.84 205.88)" gradientUnits="userSpaceOnUse">
   <stop stop-color="#e2e9dc" offset="0"/>
   <stop stop-color="#d2c8bc" offset="1"/>
  </radialGradient>
  <clipPath id="clipPath399834">
   <path d="m468.16 212.01h11.518v-12.276h-11.518z"/>
  </clipPath>
  <radialGradient id="radialGradient399840" cx="0" cy="0" r="1" fx=".3031" fy="-.48485" gradientTransform="matrix(8.0996 0 0 -8.0996 474.9 205.88)" gradientUnits="userSpaceOnUse">
   <stop stop-color="#e3e8d7" offset="0"/>
   <stop stop-color="#cdbcad" offset="1"/>
  </radialGradient>
  <clipPath id="clipPath399864">
   <path d="m512.66 213.63h8.968v-15.524h-8.968z"/>
  </clipPath>
  <radialGradient id="radialGradient399870" cx="0" cy="0" r="1" fx=".3031" fy="-.48485" gradientTransform="matrix(8.0996 0 0 -8.0996 516.48 205.88)" gradientUnits="userSpaceOnUse">
   <stop stop-color="#c8ddca" offset="0"/>
   <stop stop-color="#b4b4a2" offset="1"/>
  </radialGradient>
  <clipPath id="clipPath399890">
   <path d="m469.76 212.01h9.916v-12.276h-9.916z"/>
  </clipPath>
  <radialGradient id="radialGradient399896" cx="0" cy="0" r="1" fx=".3031" fy="-.48485" gradientTransform="matrix(8.0996 0 0 -8.0996 474.9 205.88)" gradientUnits="userSpaceOnUse">
   <stop stop-color="#c8ddca" offset="0"/>
   <stop stop-color="#b4b4a2" offset="1"/>
  </radialGradient>
  <clipPath id="clipPath399920">
   <path d="m511.4 213.02h8.173v-14.311h-8.173z"/>
  </clipPath>
  <radialGradient id="radialGradient399926" cx="0" cy="0" r="1" fx=".3031" fy="-.48485" gradientTransform="matrix(8.0996 0 0 -8.0996 516.48 205.88)" gradientUnits="userSpaceOnUse">
   <stop stop-color="#add3bf" offset="0"/>
   <stop stop-color="#9cac98" offset="1"/>
  </radialGradient>
  <clipPath id="clipPath399946">
   <path d="m471.37 212.01h8.314v-12.276h-8.314z"/>
  </clipPath>
  <radialGradient id="radialGradient399952" cx="0" cy="0" r="1" fx=".3031" fy="-.48485" gradientTransform="matrix(8.0996 0 0 -8.0996 474.9 205.88)" gradientUnits="userSpaceOnUse">
   <stop stop-color="#add3bf" offset="0"/>
   <stop stop-color="#9cac98" offset="1"/>
  </radialGradient>
  <clipPath id="clipPath399976">
   <path d="m511.06 212.19h6.4439v-12.643h-6.4439z"/>
  </clipPath>
  <radialGradient id="radialGradient399982" cx="0" cy="0" r="1" fx=".3031" fy="-.48485" gradientTransform="matrix(8.0996 0 0 -8.0996 516.48 205.88)" gradientUnits="userSpaceOnUse">
   <stop stop-color="#92c9b2" offset="0"/>
   <stop stop-color="#83a58e" offset="1"/>
  </radialGradient>
  <clipPath id="clipPath400002">
   <path d="m507.94 213.64h5.557v-15.521h-5.557z"/>
  </clipPath>
  <radialGradient id="radialGradient400008" cx="0" cy="0" r="1" fx=".3031" fy="-.48485" gradientTransform="matrix(8.0991 0 0 -8.0991 505.64 205.88)" gradientUnits="userSpaceOnUse">
   <stop stop-color="#93c8ae" offset="0"/>
   <stop stop-color="#819b83" offset="1"/>
  </radialGradient>
  <clipPath id="clipPath400028">
   <path d="m472.98 212.01h6.703v-12.276h-6.703z"/>
  </clipPath>
  <radialGradient id="radialGradient400034" cx="0" cy="0" r="1" fx=".3031" fy="-.48485" gradientTransform="matrix(8.0996 0 0 -8.0996 474.9 205.88)" gradientUnits="userSpaceOnUse">
   <stop stop-color="#92c9b2" offset="0"/>
   <stop stop-color="#83a58e" offset="1"/>
  </radialGradient>
  <clipPath id="clipPath400058">
   <path d="m513.47 207.85h1.9751v-4.068h-1.9751z"/>
  </clipPath>
  <radialGradient id="radialGradient400064" cx="0" cy="0" r="1" fx=".3031" fy="-.48485" gradientTransform="matrix(8.0996 0 0 -8.0996 516.48 205.88)" gradientUnits="userSpaceOnUse">
   <stop stop-color="#76c0a7" offset="0"/>
   <stop stop-color="#699f85" offset="1"/>
  </radialGradient>
  <clipPath id="clipPath400084">
   <path d="m505.56 213.98h8.1809v-16.2h-8.1809z"/>
  </clipPath>
  <radialGradient id="radialGradient400090" cx="0" cy="0" r="1" fx=".3031" fy="-.48485" gradientTransform="matrix(8.0991 0 0 -8.0991 505.64 205.88)" gradientUnits="userSpaceOnUse">
   <stop stop-color="#77bfa2" offset="0"/>
   <stop stop-color="#66967a" offset="1"/>
  </radialGradient>
  <clipPath id="clipPath400110">
   <path d="m474.58 212.01h5.101v-12.276h-5.101z"/>
  </clipPath>
  <radialGradient id="radialGradient400116" cx="0" cy="0" r="1" fx=".3031" fy="-.48485" gradientTransform="matrix(8.0996 0 0 -8.0996 474.9 205.88)" gradientUnits="userSpaceOnUse">
   <stop stop-color="#76c0a7" offset="0"/>
   <stop stop-color="#699f85" offset="1"/>
  </radialGradient>
  <clipPath id="clipPath400140">
   <path d="m500.33 213.97h13.037v-16.198h-13.037z"/>
  </clipPath>
  <radialGradient id="radialGradient400146" cx="0" cy="0" r="1" fx=".3031" fy="-.48485" gradientTransform="matrix(8.0991 0 0 -8.0991 505.64 205.88)" gradientUnits="userSpaceOnUse">
   <stop stop-color="#56b798" offset="0"/>
   <stop stop-color="#469072" offset="1"/>
  </radialGradient>
  <clipPath id="clipPath400166">
   <path d="m476.19 212.01h3.49v-12.276h-3.49z"/>
  </clipPath>
  <radialGradient id="radialGradient400172" cx="0" cy="0" r="1" fx=".3031" fy="-.48485" gradientTransform="matrix(8.0996 0 0 -8.0996 474.9 205.88)" gradientUnits="userSpaceOnUse">
   <stop stop-color="#54b89c" offset="0"/>
   <stop stop-color="#47997d" offset="1"/>
  </radialGradient>
  <clipPath id="clipPath400192">
   <path d="m476.87 212.01h12.877v-12.276h-12.877z"/>
  </clipPath>
  <radialGradient id="radialGradient400198" cx="0" cy="0" r="1" fx=".3031" fy="-.48485" gradientTransform="matrix(8.0996 0 0 -8.0996 484.96 205.88)" gradientUnits="userSpaceOnUse">
   <stop stop-color="#56b798" offset="0"/>
   <stop stop-color="#469072" offset="1"/>
  </radialGradient>
  <clipPath id="clipPath400218">
   <path d="m486.93 212.01h16.2v-12.276h-16.2z"/>
  </clipPath>
  <radialGradient id="radialGradient400224" cx="0" cy="0" r="1" fx=".3031" fy="-.48485" gradientTransform="matrix(8.0996 0 0 -8.0996 495.02 205.88)" gradientUnits="userSpaceOnUse">
   <stop stop-color="#57b694" offset="0"/>
   <stop stop-color="#486" offset="1"/>
  </radialGradient>
  <clipPath id="clipPath400276">
   <path d="m470.75 160.97h1.782v-10.128h-1.782z"/>
  </clipPath>
  <radialGradient id="radialGradient400282" cx="0" cy="0" r="1" fx=".3031" fy="-.48485" gradientTransform="matrix(8.0994 0 0 -8.0994 478.85 155.9)" gradientUnits="userSpaceOnUse">
   <stop stop-color="#aad7ca" offset="0"/>
   <stop stop-color="#a3c8bb" offset="1"/>
  </radialGradient>
  <clipPath id="clipPath400310">
   <path d="m511.83 163.92h7.1299v-16.037h-7.1299z"/>
  </clipPath>
  <radialGradient id="radialGradient400316" cx="0" cy="0" r="1" fx=".3031" fy="-.48485" gradientTransform="matrix(8.0996 0 0 -8.0996 510.86 155.91)" gradientUnits="userSpaceOnUse">
   <stop stop-color="#95d0c0" offset="0"/>
   <stop stop-color="#8fc1b1" offset="1"/>
  </radialGradient>
  <clipPath id="clipPath400336">
   <path d="m510.68 155.49h5.058v-6.514h-5.058z"/>
  </clipPath>
  <radialGradient id="radialGradient400342" cx="0" cy="0" r="1" fx=".3031" fy="-.48485" gradientTransform="matrix(8.0991 0 0 -8.0991 507.65 155.91)" gradientUnits="userSpaceOnUse">
   <stop stop-color="#96cdba" offset="0"/>
   <stop stop-color="#8bb29e" offset="1"/>
  </radialGradient>
  <clipPath id="clipPath400366">
   <path d="m510.63 162.7h4.996v-5.3679h-4.996z"/>
  </clipPath>
  <clipPath id="clipPath400396">
   <path d="m472.53 162.54h4.903v-12.276h-4.903z"/>
  </clipPath>
  <radialGradient id="radialGradient400402" cx="0" cy="0" r="1" fx=".3031" fy="-.48485" gradientTransform="matrix(8.0994 0 0 -8.0994 478.85 155.9)" gradientUnits="userSpaceOnUse">
   <stop stop-color="#95d0c0" offset="0"/>
   <stop stop-color="#8fc1b1" offset="1"/>
  </radialGradient>
  <clipPath id="clipPath400422">
   <path d="m473.99 162.54h6.682v-12.276h-6.682z"/>
  </clipPath>
  <radialGradient id="radialGradient400428" cx="0" cy="0" r="1" fx=".3031" fy="-.48485" gradientTransform="matrix(8.0996 0 0 -8.0996 482.08 155.91)" gradientUnits="userSpaceOnUse">
   <stop stop-color="#96cdba" offset="0"/>
   <stop stop-color="#8bb29e" offset="1"/>
  </radialGradient>
  <clipPath id="clipPath400452">
   <path d="m477.22 161.41h2.1599v-11.011h-2.1599z"/>
  </clipPath>
  <radialGradient id="radialGradient400458" cx="0" cy="0" r="1" fx=".3031" fy="-.48485" gradientTransform="matrix(8.0996 0 0 -8.0996 485.32 155.91)" gradientUnits="userSpaceOnUse">
   <stop stop-color="#97cbb2" offset="0"/>
   <stop stop-color="#86a48c" offset="1"/>
  </radialGradient>
  <clipPath id="clipPath400482">
   <path d="m506.04 164.01h9.706v-16.191h-9.706z"/>
  </clipPath>
  <radialGradient id="radialGradient400488" cx="0" cy="0" r="1" fx=".3031" fy="-.48485" gradientTransform="matrix(8.0991 0 0 -8.0991 507.65 155.91)" gradientUnits="userSpaceOnUse">
   <stop stop-color="#7fc6b0" offset="0"/>
   <stop stop-color="#76ac97" offset="1"/>
  </radialGradient>
  <clipPath id="clipPath400508">
   <path d="m504.99 163.97h7.5469v-16.131h-7.5469z"/>
  </clipPath>
  <radialGradient id="radialGradient400514" cx="0" cy="0" r="1" fx=".3031" fy="-.48485" gradientTransform="matrix(8.0996 0 0 -8.0996 504.44 155.91)" gradientUnits="userSpaceOnUse">
   <stop stop-color="#81c4aa" offset="0"/>
   <stop stop-color="#739f85" offset="1"/>
  </radialGradient>
  <clipPath id="clipPath400534">
   <path d="m502.66 162.96h6.6601v-14.213h-6.6601z"/>
  </clipPath>
  <radialGradient id="radialGradient400540" cx="0" cy="0" r="1" fx=".3031" fy="-.48485" gradientTransform="matrix(8.0996 0 0 -8.0996 501.22 155.91)" gradientUnits="userSpaceOnUse">
   <stop stop-color="#82c1a3" offset="0"/>
   <stop stop-color="#6f9176" offset="1"/>
  </radialGradient>
  <clipPath id="clipPath400560">
   <path d="m499.68 162.54h6.4261v-12.276h-6.4261z"/>
  </clipPath>
  <radialGradient id="radialGradient400566" cx="0" cy="0" r="1" fx=".3031" fy="-.48485" gradientTransform="matrix(8.0996 0 0 -8.0996 498.01 155.91)" gradientUnits="userSpaceOnUse">
   <stop stop-color="#83bf9d" offset="0"/>
   <stop stop-color="#6b8466" offset="1"/>
  </radialGradient>
  <clipPath id="clipPath400586">
   <path d="m479.38 150.4h0.13v-0.13802h-0.13z"/>
  </clipPath>
  <radialGradient id="radialGradient400592" cx="0" cy="0" r="1" fx=".3031" fy="-.48485" gradientTransform="matrix(8.0996 0 0 -8.0996 482.08 155.91)" gradientUnits="userSpaceOnUse">
   <stop stop-color="#7fc6b0" offset="0"/>
   <stop stop-color="#76ac97" offset="1"/>
  </radialGradient>
  <clipPath id="clipPath400612">
   <path d="m479.38 162.54h4.527v-12.276h-4.527z"/>
  </clipPath>
  <radialGradient id="radialGradient400618" cx="0" cy="0" r="1" fx=".3031" fy="-.48485" gradientTransform="matrix(8.0996 0 0 -8.0996 485.32 155.91)" gradientUnits="userSpaceOnUse">
   <stop stop-color="#81c4aa" offset="0"/>
   <stop stop-color="#739f85" offset="1"/>
  </radialGradient>
  <clipPath id="clipPath400638">
   <path d="m480.46 162.54h6.682v-12.276h-6.682z"/>
  </clipPath>
  <radialGradient id="radialGradient400644" cx="0" cy="0" r="1" fx=".3031" fy="-.48485" gradientTransform="matrix(8.0996 0 0 -8.0996 488.55 155.91)" gradientUnits="userSpaceOnUse">
   <stop stop-color="#82c1a3" offset="0"/>
   <stop stop-color="#6f9176" offset="1"/>
  </radialGradient>
  <clipPath id="clipPath400664">
   <path d="m483.69 162.54h6.686v-12.276h-6.686z"/>
  </clipPath>
  <radialGradient id="radialGradient400670" cx="0" cy="0" r="1" fx=".3031" fy="-.48485" gradientTransform="matrix(8.0996 0 0 -8.0996 491.79 155.91)" gradientUnits="userSpaceOnUse">
   <stop stop-color="#83bf9d" offset="0"/>
   <stop stop-color="#6b8466" offset="1"/>
  </radialGradient>
  <clipPath id="clipPath400690">
   <path d="m486.93 162.54h16.2v-12.276h-16.2z"/>
  </clipPath>
  <radialGradient id="radialGradient400696" cx="0" cy="0" r="1" fx=".3031" fy="-.48485" gradientTransform="matrix(8.0996 0 0 -8.0996 495.02 155.91)" gradientUnits="userSpaceOnUse">
   <stop stop-color="#84bd96" offset="0"/>
   <stop stop-color="#677857" offset="1"/>
  </radialGradient>
  <clipPath id="clipPath400720">
   <path d="m509.25 163.87h7.3131v-8.3769h-7.3131z"/>
  </clipPath>
  <radialGradient id="radialGradient400726" cx="0" cy="0" r="1" fx=".3031" fy="-.48485" gradientTransform="matrix(8.0996 0 0 -8.0996 510.86 155.91)" gradientUnits="userSpaceOnUse">
   <stop stop-color="#7ec8b8" offset="0"/>
   <stop stop-color="#7abba9" offset="1"/>
  </radialGradient>
  <clipPath id="clipPath400746">
   <path d="m479.38 162.54h1.291v-1.127h-1.291z"/>
  </clipPath>
 </defs>
 <g transform="translate(-63.635 -48.349)">
  <g transform="matrix(.35278 0 0 -.35278 110.03 52.505)">
   <path d="m0 0c0-4.474-3.626-8.099-8.1-8.099s-8.1 3.625-8.1 8.099c0 4.473 3.626 8.1 8.1 8.1s8.1-3.627 8.1-8.1" fill="#fff"/>
  </g>
  <g transform="matrix(.35278 0 0 -.35278 -90.322 125.13)">
   <g clip-path="url(#clipPath399034)">
    <path d="m557.1 205.88c0-4.474-3.626-8.099-8.1-8.099s-8.099 3.625-8.099 8.099c0 4.472 3.625 8.099 8.099 8.099s8.1-3.627 8.1-8.099" fill="url(#radialGradient399040)"/>
   </g>
   <g clip-path="url(#clipPath399060)">
    <path d="m546.26 205.88c0-4.474-3.626-8.099-8.1-8.099-4.473 0-8.099 3.625-8.099 8.099 0 4.473 3.626 8.1 8.099 8.1 4.474 0 8.1-3.627 8.1-8.1" fill="url(#radialGradient399066)"/>
   </g>
   <g clip-path="url(#clipPath399086)">
    <path d="m527.32 197.78c-2.086 0-3.987 0.789-5.423 2.084 1.314 1.184 2.237 2.792 2.556 4.608l1.31 1.354-1.291 1.347c-0.299 1.863-1.234 3.514-2.575 4.724 1.436 1.295 3.337 2.083 5.423 2.083 4.473 0 8.1-3.627 8.1-8.1s-3.627-8.1-8.1-8.1" fill="url(#radialGradient399092)"/>
   </g>
   <g clip-path="url(#clipPath399112)">
    <path d="m518.14 197.95 6.31 6.519c-0.319-1.816-1.242-3.424-2.556-4.608-1.042-0.94-2.329-1.613-3.754-1.911m6.329 9.22-6.372 6.644c1.442-0.294 2.745-0.971 3.797-1.92 1.341-1.21 2.276-2.861 2.575-4.724" fill="url(#radialGradient399118)"/>
   </g>
   <g clip-path="url(#clipPath399138)">
    <path d="m501.77 198.76c-0.508 0.276-0.982 0.605-1.416 0.979h1.361l0.055-0.979m0.26 13.255h-1.676c0.508 0.438 1.07 0.813 1.676 1.115v-1.115" fill="url(#radialGradient399144)"/>
   </g>
   <g clip-path="url(#clipPath399164)">
    <path d="m494.79 197.78c-1.848 0-3.551 0.62-4.914 1.662 0.039 0.03 0.078 0.06 0.117 0.091 1.353-1.074 3.058-1.725 4.914-1.751-0.039-1e-3 -0.078-2e-3 -0.117-2e-3m-4.797 14.448c-0.039 0.031-0.078 0.061-0.117 0.091 1.363 1.042 3.066 1.661 4.914 1.661 0.039 0 0.078-1e-3 0.117-1e-3 -1.856-0.026-3.561-0.677-4.914-1.751" fill="url(#radialGradient399170)"/>
   </g>
   <g clip-path="url(#clipPath399194)">
    <path d="m452.81 205.88c0-4.474-3.627-8.099-8.1-8.099-4.474 0-8.1 3.625-8.1 8.099 0 4.472 3.626 8.099 8.1 8.099 4.473 0 8.1-3.627 8.1-8.099" fill="url(#radialGradient399200)"/>
   </g>
   <g clip-path="url(#clipPath399220)">
    <path d="m462.87 205.88c0-4.474-3.625-8.099-8.099-8.099s-8.1 3.625-8.1 8.099c0 4.473 3.626 8.1 8.1 8.1s8.099-3.627 8.099-8.1" fill="url(#radialGradient399226)"/>
   </g>
   <g clip-path="url(#clipPath399246)">
    <path d="m464.83 197.78c-4.473 0-8.1 3.627-8.1 8.1s3.627 8.1 8.1 8.1c1.901 0 3.649-0.655 5.031-1.752-0.086-0.068-0.171-0.138-0.254-0.21h-3.058v-12.276h3.058c0.083-0.071 0.168-0.141 0.254-0.209-1.382-1.097-3.13-1.753-5.031-1.753" fill="url(#radialGradient399252)"/>
   </g>
   <g clip-path="url(#clipPath399272)">
    <path d="m474.9 197.78c-1.901 0-3.649 0.656-5.031 1.753-0.086 0.068-0.171 0.138-0.254 0.209h10.071c0.083-0.07 0.166-0.14 0.251-0.207-1.381-1.098-3.131-1.755-5.037-1.755m4.786 14.238h-10.071c0.083 0.072 0.168 0.142 0.254 0.21 1.382 1.097 3.13 1.752 5.031 1.752 1.906 0 3.656-0.656 5.037-1.754-0.085-0.067-0.169-0.137-0.251-0.208" fill="url(#radialGradient399278)"/>
   </g>
   <g clip-path="url(#clipPath399298)">
    <path d="m484.97 197.78c-1.902 0-3.651 0.657-5.034 1.755-0.085 0.067-0.168 0.137-0.251 0.207h10.062c0.083-0.071 0.168-0.141 0.254-0.209-0.039-0.031-0.078-0.061-0.117-0.091-1.363-1.042-3.066-1.662-4.914-1.662m4.777 14.238h-10.062c0.082 0.071 0.166 0.141 0.251 0.208 1.383 1.098 3.132 1.754 5.034 1.754 1.848 0 3.551-0.619 4.914-1.661 0.039-0.03 0.078-0.06 0.117-0.091-0.086-0.068-0.171-0.138-0.254-0.21" fill="url(#radialGradient399304)"/>
   </g>
   <g clip-path="url(#clipPath399324)">
    <path d="m495.03 197.78c-0.039 0-0.078 1e-3 -0.117 2e-3 -1.856 0.026-3.561 0.677-4.914 1.751-0.086 0.068-0.171 0.138-0.254 0.209h10.57c-1.419-1.222-3.266-1.962-5.285-1.962m5.285 14.238h-10.57c0.083 0.072 0.168 0.142 0.254 0.21 1.353 1.074 3.058 1.725 4.914 1.751 0.039 0 0.078 1e-3 0.117 1e-3 2.019 0 3.866-0.739 5.285-1.962" fill="url(#radialGradient399330)"/>
   </g>
  </g>
  <g transform="matrix(.35278 0 0 -.35278 93.888 70.13)">
   <path d="m0 0c0-4.482-3.627-8.1-8.1-8.1s-8.1 3.618-8.1 8.1c0 4.473 3.627 8.091 8.1 8.091s8.1-3.618 8.1-8.091" fill="#fff"/>
  </g>
  <g transform="matrix(.35278 0 0 -.35278 -90.322 125.13)">
   <g clip-path="url(#clipPath399354)">
    <path d="m510.86 147.82c-0.55 0-1.087 0.055-1.607 0.16 0.926 0.186 1.795 0.529 2.577 1.001l0.059-1.096c-0.337-0.042-0.68-0.065-1.029-0.065m1.206 14.883c-0.8 0.521-1.698 0.904-2.661 1.117l-0.05 0.052c0.488 0.091 0.991 0.139 1.505 0.139 0.41 0 0.812-0.03 1.206-0.089v-1.219" fill="url(#radialGradient399360)"/>
   </g>
   <g clip-path="url(#clipPath399380)">
    <path d="m508.34 147.85 2.34 2.418h1.082l0.07-1.287c-0.782-0.472-1.651-0.815-2.577-1.001-0.299-0.061-0.605-0.104-0.915-0.13m3.728 14.694h-1.438l-1.223 1.276c0.963-0.213 1.861-0.596 2.661-1.117v-0.159" fill="url(#radialGradient399386)"/>
   </g>
   <g clip-path="url(#clipPath399406)">
    <path d="m504.43 147.82c-0.55 0-1.087 0.055-1.607 0.16 0.765 0.153 1.49 0.414 2.16 0.767l0.05-0.904c-0.199-0.015-0.4-0.023-0.603-0.023m0.783 15.14c-0.733 0.416-1.537 0.721-2.39 0.892 0.52 0.105 1.057 0.159 1.607 0.159 0.264 0 0.525-0.013 0.783-0.037v-1.014" fill="url(#radialGradient399412)"/>
   </g>
   <g clip-path="url(#clipPath399432)">
    <path d="m501.22 147.82c-0.55 0-1.087 0.055-1.607 0.16 1.63 0.327 3.082 1.143 4.198 2.288h1.09l0.085-1.521c-0.67-0.353-1.395-0.614-2.16-0.767-0.519-0.105-1.056-0.16-1.606-0.16m3.996 14.724h-2.556c-0.898 0.631-1.931 1.084-3.047 1.308 0.52 0.105 1.057 0.159 1.607 0.159s1.087-0.054 1.606-0.159c0.853-0.171 1.657-0.476 2.39-0.892v-0.416" fill="url(#radialGradient399438)"/>
   </g>
   <g clip-path="url(#clipPath399458)">
    <path d="m498.01 147.82c-0.509 0-1.007 0.048-1.49 0.137 1.677 0.312 3.173 1.138 4.315 2.311h2.979c-1.116-1.145-2.568-1.961-4.198-2.288-0.519-0.105-1.056-0.16-1.606-0.16m4.653 14.724h-2.979c-0.93 0.653-2.003 1.115-3.164 1.331 0.483 0.089 0.981 0.136 1.49 0.136 0.55 0 1.087-0.054 1.606-0.159 1.116-0.224 2.149-0.677 3.047-1.308" fill="url(#radialGradient399464)"/>
   </g>
   <g clip-path="url(#clipPath399484)">
    <path d="m494.79 147.82c-0.506 0-1 0.047-1.48 0.136 0.038 7e-3 0.077 0.014 0.116 0.022 0.48-0.096 0.975-0.149 1.481-0.156-0.039-1e-3 -0.078-2e-3 -0.117-2e-3m-1.387 16.029c-0.039 8e-3 -0.078 0.016-0.117 0.023 0.487 0.091 0.99 0.139 1.504 0.139 0.039 0 0.078 0 0.117-1e-3 -0.514-7e-3 -1.017-0.062-1.504-0.161" fill="url(#radialGradient399490)"/>
   </g>
  </g>
  <g transform="matrix(.35278 0 0 -.35278 80.318 70.136)">
   <path d="m0 0c0-4.473-3.627-8.1-8.1-8.1s-8.1 3.627-8.1 8.1 3.627 8.1 8.1 8.1 8.1-3.627 8.1-8.1" fill="#fff"/>
  </g>
  <g transform="matrix(.35278 0 0 -.35278 -90.322 125.13)">
   <g clip-path="url(#clipPath399514)">
    <path d="m478.85 147.81c-0.547 0-1.081 0.055-1.597 0.158-1.636 0.328-3.094 1.148-4.213 2.299h3.236c1.113-1.147 2.562-1.965 4.19-2.295-0.523-0.106-1.063-0.162-1.616-0.162m-1.415 14.733h-3.222c0.891 0.623 1.913 1.072 3.017 1.296 0.523 0.106 1.065 0.162 1.62 0.162 0.545 0 1.078-0.054 1.593-0.157-1.102-0.226-2.12-0.676-3.008-1.301" fill="url(#radialGradient399520)"/>
   </g>
   <g clip-path="url(#clipPath399540)">
    <path d="m482.08 147.81c-0.553 0-1.093 0.056-1.615 0.162-1.628 0.33-3.077 1.148-4.19 2.295h3.235c1.114-1.146 2.563-1.964 4.19-2.294-0.523-0.107-1.065-0.163-1.62-0.163m-1.409 14.733h-3.237c0.888 0.625 1.906 1.075 3.008 1.301 0.529 0.109 1.077 0.166 1.638 0.166 0.555 0 1.097-0.055 1.62-0.162-1.109-0.225-2.135-0.677-3.029-1.305" fill="url(#radialGradient399546)"/>
   </g>
   <g clip-path="url(#clipPath399566)">
    <path d="m485.32 147.81c-0.555 0-1.097 0.056-1.62 0.163-1.627 0.33-3.076 1.148-4.19 2.294h3.237c1.113-1.146 2.563-1.964 4.192-2.295-0.524-0.106-1.065-0.162-1.619-0.162m-1.413 14.733h-3.236c0.894 0.628 1.92 1.08 3.029 1.305 0.523 0.107 1.065 0.162 1.62 0.162 0.554 0 1.095-0.055 1.619-0.162-1.111-0.225-2.138-0.677-3.032-1.305" fill="url(#radialGradient399572)"/>
   </g>
   <g clip-path="url(#clipPath399592)">
    <path d="m488.56 147.81c-0.556 0-1.098 0.056-1.621 0.162-1.629 0.331-3.079 1.149-4.192 2.295h3.234c1.115-1.147 2.566-1.965 4.194-2.295-0.522-0.106-1.062-0.162-1.615-0.162m-1.418 14.733h-3.235c0.894 0.628 1.921 1.08 3.032 1.305 0.523 0.107 1.065 0.162 1.621 0.162 0.553 0 1.093-0.055 1.615-0.161-1.11-0.225-2.138-0.677-3.033-1.306" fill="url(#radialGradient399598)"/>
   </g>
   <g clip-path="url(#clipPath399618)">
    <path d="m491.79 147.81c-0.553 0-1.094 0.056-1.616 0.162-1.628 0.33-3.079 1.148-4.194 2.295h3.246c1.118-1.147 2.573-1.964 4.206-2.29-0.039-8e-3 -0.078-0.015-0.116-0.022-0.495-0.095-1.004-0.145-1.526-0.145m-1.414 14.733h-3.235c0.895 0.629 1.923 1.081 3.033 1.306 0.522 0.106 1.063 0.161 1.616 0.161 0.513 0 1.015-0.048 1.502-0.139 0.039-7e-3 0.078-0.015 0.117-0.023-1.111-0.225-2.138-0.676-3.033-1.305" fill="url(#radialGradient399624)"/>
   </g>
   <g clip-path="url(#clipPath399644)">
    <path d="m495.03 147.82c-0.039 0-0.078 1e-3 -0.117 2e-3 -0.506 7e-3 -1.001 0.06-1.481 0.156-1.633 0.326-3.088 1.143-4.206 2.29h11.608c-1.142-1.173-2.638-1.999-4.315-2.311-0.482-0.089-0.98-0.137-1.489-0.137m4.653 14.724h-9.307c0.895 0.629 1.922 1.08 3.033 1.305 0.487 0.099 0.99 0.154 1.504 0.161 0.039 1e-3 0.078 1e-3 0.117 1e-3 0.509 0 1.007-0.047 1.489-0.136 1.161-0.216 2.234-0.678 3.164-1.331" fill="url(#radialGradient399650)"/>
   </g>
  </g>
  <g transform="matrix(.35278 0 0 -.35278 91.152 56.661)">
   <path d="m0 0-0.112 2.014 1.631 1.686c0.179-0.012 0.36-0.019 0.542-0.019 0.572 0 1.13 0.06 1.668 0.173l-3.729-3.854m3.686 19.718c-0.525 0.107-1.068 0.163-1.625 0.163-0.193 0-0.384-7e-3 -0.573-0.02l-1.488 1.552v2.149l3.686-3.844" fill="#fff"/>
  </g>
  <g transform="matrix(.35278 0 0 -.35278 -90.322 125.13)">
   <g clip-path="url(#clipPath399674)">
    <path d="m524.45 204.47c0.08 0.458 0.122 0.928 0.122 1.408 0 0.44-0.036 0.872-0.103 1.293l1.291-1.347-1.31-1.354" fill="url(#radialGradient399680)"/>
   </g>
   <g clip-path="url(#clipPath399700)">
    <path d="m516.48 197.78c-0.182 0-0.363 7e-3 -0.542 0.019l7.769 8.027-7.8 8.134c0.189 0.013 0.38 0.02 0.573 0.02 0.557 0 1.1-0.056 1.625-0.163l6.372-6.644c0.067-0.421 0.103-0.853 0.103-1.293 0-0.48-0.042-0.95-0.122-1.408l-6.31-6.519c-0.538-0.113-1.096-0.173-1.668-0.173" fill="url(#radialGradient399706)"/>
   </g>
   <g clip-path="url(#clipPath399726)">
    <path d="m468.16 199.74h-1.611v12.276h3.058-1.447v-1.632c-0.864-1.289-1.368-2.838-1.368-4.506 0-1.667 0.504-3.216 1.368-4.505v-1.633" fill="url(#radialGradient399732)"/>
   </g>
   <g clip-path="url(#clipPath399752)">
    <path d="m468.16 201.37c-0.864 1.289-1.368 2.838-1.368 4.505 0 1.668 0.504 3.217 1.368 4.506v-9.011" fill="url(#radialGradient399758)"/>
   </g>
  </g>
  <g transform="matrix(.35278 0 0 -.35278 90.424 56.661)">
   <path d="m0 0-0.113 2.023 1.928 1.992c0.565-0.167 1.156-0.275 1.765-0.315l-3.58-3.7m1.788 19.539-1.788 1.865v2.158l3.549-3.701c-0.608-0.042-1.197-0.152-1.761-0.322" fill="#e1f2ed"/>
  </g>
  <g transform="matrix(.35278 0 0 -.35278 -90.322 125.13)">
   <g clip-path="url(#clipPath399782)">
    <path d="m515.93 197.8c-0.609 0.04-1.2 0.148-1.765 0.315l7.464 7.712-7.491 7.812c0.564 0.17 1.153 0.28 1.761 0.322l7.8-8.134-7.769-8.027" fill="url(#radialGradient399788)"/>
   </g>
   <g clip-path="url(#clipPath399808)">
    <path d="m469.61 199.74h-1.447v1.633c0.407-0.607 0.895-1.157 1.447-1.633m-1.447 10.644v1.632h1.447c-0.552-0.476-1.04-1.025-1.447-1.632" fill="url(#radialGradient399814)"/>
   </g>
   <g clip-path="url(#clipPath399834)">
    <path d="m469.76 199.74h-0.155c-0.552 0.476-1.04 1.026-1.447 1.633v9.011c0.407 0.607 0.895 1.156 1.447 1.632h10.071-9.916v-12.276" fill="url(#radialGradient399840)"/>
   </g>
  </g>
  <g transform="matrix(.35278 0 0 -.35278 89.694 56.661)">
   <path d="m0 0-0.109 2.017 2.517 2.602c0.467-0.248 0.962-0.451 1.477-0.604l-3.885-4.015m2.381 18.93-2.381 2.483v2.149l3.858-4.023c-0.516-0.155-1.01-0.36-1.477-0.609" fill="#c6e7e0"/>
  </g>
  <g transform="matrix(.35278 0 0 -.35278 -90.322 125.13)">
   <g clip-path="url(#clipPath399864)">
    <path d="m514.17 198.11c-0.515 0.153-1.01 0.356-1.477 0.604l6.88 7.108-6.907 7.203c0.467 0.249 0.961 0.454 1.477 0.609l7.491-7.812-7.464-7.712" fill="url(#radialGradient399870)"/>
   </g>
   <g clip-path="url(#clipPath399890)">
    <path d="m471.37 199.74h-1.602v12.276h9.916-8.314v-12.276" fill="url(#radialGradient399896)"/>
   </g>
  </g>
  <g transform="matrix(.35278 0 0 -.35278 88.967 56.661)">
   <path d="m0 0-0.113 2.023 3.316 3.426c0.394-0.314 0.818-0.593 1.266-0.83l-4.469-4.619m3.176 18.092-3.176 3.312v2.158l4.442-4.632c-0.449-0.24-0.873-0.521-1.266-0.838" fill="#aadcd4"/>
  </g>
  <g transform="matrix(.35278 0 0 -.35278 -90.322 125.13)">
   <g clip-path="url(#clipPath399920)">
    <path d="m512.69 198.71c-0.448 0.237-0.872 0.516-1.266 0.83l6.076 6.278-6.103 6.365c0.393 0.317 0.817 0.598 1.266 0.838l6.907-7.203-6.88-7.108" fill="url(#radialGradient399926)"/>
   </g>
   <g clip-path="url(#clipPath399946)">
    <path d="m472.98 199.74h-1.611v12.276h8.314-6.703v-12.276" fill="url(#radialGradient399952)"/>
   </g>
  </g>
  <g transform="matrix(.35278 0 0 -.35278 88.237 56.661)">
   <path d="m0 0-0.109 2.017 1.946 2.011c1.152 0.349 2.196 0.948 3.068 1.733 0.12-0.108 0.242-0.211 0.368-0.312l-5.273-5.449m4.905 17.802c-0.885 0.797-1.946 1.401-3.118 1.747l-1.787 1.864v2.149l5.246-5.47c-0.117-0.094-0.23-0.19-0.341-0.29" fill="#8ed1c7"/>
  </g>
  <g transform="matrix(.35278 0 0 -.35278 -90.322 125.13)">
   <g clip-path="url(#clipPath399976)">
    <path d="m511.42 199.54c-0.126 0.101-0.248 0.204-0.368 0.312 1.147 1.033 1.997 2.389 2.408 3.925l1.975 2.041-1.944 2.027c-0.397 1.586-1.262 2.988-2.439 4.048 0.111 0.1 0.224 0.196 0.341 0.29l6.103-6.365-6.076-6.278" fill="url(#radialGradient399982)"/>
   </g>
   <g clip-path="url(#clipPath400002)">
    <path d="m507.99 198.12 5.476 5.658c-0.411-1.536-1.261-2.892-2.408-3.925-0.872-0.785-1.916-1.384-3.068-1.733m5.507 9.726-5.557 5.795c1.172-0.346 2.233-0.95 3.118-1.747 1.177-1.06 2.042-2.462 2.439-4.048" fill="url(#radialGradient400008)"/>
   </g>
   <g clip-path="url(#clipPath400028)">
    <path d="m474.58 199.74h-1.602v12.276h6.703-5.101v-12.276" fill="url(#radialGradient400034)"/>
   </g>
  </g>
  <g transform="matrix(.35278 0 0 -.35278 87.51 56.661)">
   <path d="m0 0-0.113 2.015 1.612 1.667c0.016 0 0.033-1e-3 0.049-1e-3 0.817 0 1.606 0.122 2.35 0.347l-3.898-4.028m3.848 19.549c-0.729 0.216-1.501 0.332-2.3 0.332-0.027 0-0.054 0-0.081-1e-3l-1.467 1.531v2.151l3.848-4.013" fill="#70c8bb"/>
  </g>
  <g transform="matrix(.35278 0 0 -.35278 -90.322 125.13)">
   <g clip-path="url(#clipPath400058)">
    <path d="m513.46 203.78c0.178 0.669 0.274 1.371 0.274 2.095 0 0.681-0.084 1.342-0.243 1.973l1.944-2.027-1.975-2.041" fill="url(#radialGradient400064)"/>
   </g>
   <g clip-path="url(#clipPath400084)">
    <path d="m505.64 197.78c-0.016 0-0.033 1e-3 -0.049 1e-3l7.78 8.045-7.812 8.153c0.027 1e-3 0.054 1e-3 0.081 1e-3 0.799 0 1.571-0.116 2.3-0.332l5.557-5.795c0.159-0.631 0.243-1.292 0.243-1.973 0-0.724-0.096-1.426-0.274-2.095l-5.476-5.658c-0.744-0.225-1.533-0.347-2.35-0.347" fill="url(#radialGradient400090)"/>
   </g>
   <g clip-path="url(#clipPath400110)">
    <path d="m476.19 199.74h-1.611v12.276h5.101-3.49v-12.276" fill="url(#radialGradient400116)"/>
   </g>
  </g>
  <g transform="matrix(.35278 0 0 -.35278 86.783 56.661)">
   <path d="m0 0-0.26 4.664c1.136-0.619 2.437-0.974 3.82-0.982l-3.56-3.682m-1.676 5.643h-0.041c7e-3 6e-3 0.013 0.012 0.02 0.018l0.021-0.018m-0.021 12.259c-7e-3 6e-3 -0.013 0.011-0.02 0.017h0.041c-7e-3 -6e-3 -0.014-0.011-0.021-0.017m1.697 1.132v4.528l3.528-3.682c-1.267-0.012-2.464-0.315-3.528-0.846" fill="#4bc0af"/>
  </g>
  <g transform="matrix(.35278 0 0 -.35278 -90.322 125.13)">
   <g clip-path="url(#clipPath400140)">
    <path d="m505.59 197.78c-1.383 8e-3 -2.684 0.363-3.82 0.982l-0.055 0.979h-1.361l-0.021 0.018c1.712 1.485 2.795 3.677 2.795 6.12 0 2.444-1.083 4.636-2.795 6.121 7e-3 6e-3 0.014 0.011 0.021 0.017h1.676v1.115c1.064 0.531 2.261 0.834 3.528 0.846l7.812-8.153-7.78-8.045" fill="url(#radialGradient400146)"/>
   </g>
   <g clip-path="url(#clipPath400166)">
    <path d="m479.68 199.74h-3.49v12.276h3.49c-1.724-1.485-2.815-3.684-2.815-6.138 0-2.453 1.092-4.652 2.815-6.138" fill="url(#radialGradient400172)"/>
   </g>
   <g clip-path="url(#clipPath400192)">
    <path d="m489.74 199.74h-10.062c-1.723 1.486-2.815 3.685-2.815 6.138 0 2.454 1.091 4.653 2.815 6.138h10.062c-1.724-1.485-2.815-3.684-2.815-6.138 0-2.453 1.092-4.652 2.815-6.138" fill="url(#radialGradient400198)"/>
   </g>
   <g clip-path="url(#clipPath400218)">
    <path d="m500.31 199.74h-10.57c-1.723 1.486-2.815 3.685-2.815 6.138 0 2.454 1.091 4.653 2.815 6.138h10.57c7e-3 -6e-3 0.013-0.011 0.02-0.017 1.712-1.485 2.795-3.677 2.795-6.121 0-2.443-1.083-4.635-2.795-6.12-7e-3 -6e-3 -0.013-0.012-0.02-0.018" fill="url(#radialGradient400224)"/>
   </g>
  </g>
  <g transform="matrix(.35278 0 0 -.35278 102.41 74.114)">
   <path d="m0 0-0.315 5.643h-1.077l5.883 6.084-5.933 6.192h1.442v5.643l11.349-11.835-11.349-11.727m-101.2 5.643h-6.858v12.276h32.705-25.847v-12.276" fill="#fff"/>
  </g>
  <g transform="matrix(.35278 0 0 -.35278 99.994 74.114)">
   <path d="m0 0-0.315 5.643h-1.082l5.888 6.084-5.938 6.192h1.447v5.643l11.34-11.835-11.34-11.727m-87.507 5.643h-6.849v12.276h25.847-18.998v-12.276" fill="#e7f4f1"/>
  </g>
  <g transform="matrix(.35278 0 0 -.35278 97.575 74.114)">
   <path d="m0 0-0.306 5.643h-1.082l5.888 6.084-5.938 6.192h1.438v5.643l11.349-11.835-11.349-11.727m-73.8 5.643h-6.849v12.276h18.998-12.149v-12.276" fill="#d2ebe6"/>
  </g>
  <g transform="matrix(.35278 0 0 -.35278 95.158 74.114)">
   <path d="m0 0-0.315 5.643h-1.073l5.888 6.084-5.938 6.192h1.438v5.643l11.349-11.835-11.349-11.727m-60.093 5.643h-6.858v12.276h12.149-5.291v-12.276" fill="#bde3dc"/>
  </g>
  <g transform="matrix(.35278 0 0 -.35278 92.742 74.114)">
   <path d="m0 0-0.258 4.621c1.885 1.299 3.192 3.376 3.457 5.771l1.292 1.335-1.487 1.551c-0.48 1.907-1.638 3.544-3.202 4.641h0.198v5.643l11.349-11.835-11.349-11.727" fill="#a8dbd2"/>
  </g>
  <g transform="matrix(.35278 0 0 -.35278 92.651 72.484)">
   <path d="m0 0-0.057 1.022h-1.082l4.596 4.749c-0.265-2.395-1.572-4.472-3.457-5.771m3.262 8.657-4.451 4.641h1.249c1.564-1.097 2.722-2.734 3.202-4.641" fill="#a8dbd2"/>
  </g>
  <g transform="matrix(.35278 0 0 -.35278 75.408 72.124)">
   <path d="m0 0h-4.108v12.276h5.291c-2.094-1.464-3.464-3.893-3.464-6.642 0-2.189 0.869-4.176 2.281-5.634" fill="#a8dbd2"/>
  </g>
  <g transform="matrix(.35278 0 0 -.35278 76.375 72.124)">
   <path d="m0 0h-2.741c-1.412 1.458-2.281 3.445-2.281 5.634 0 2.749 1.37 5.178 3.464 6.642h3.239-1.681v-1.572c-1.115-1.386-1.782-3.146-1.782-5.061 0-1.918 0.667-3.68 1.782-5.067v-0.576" fill="#a8dbd2"/>
  </g>
  <g transform="matrix(.35278 0 0 -.35278 -90.322 125.13)">
   <g clip-path="url(#clipPath400276)">
    <path d="m472.53 150.84c-1.115 1.387-1.782 3.149-1.782 5.067 0 1.915 0.667 3.675 1.782 5.061v-10.128" fill="url(#radialGradient400282)"/>
   </g>
  </g>
  <g transform="matrix(.35278 0 0 -.35278 90.323 74.114)">
   <path d="M 0,0 -0.177,3.26 C 0.018,3.285 0.21,3.316 0.4,3.355 0.92,3.25 1.457,3.195 2.007,3.195 c 0.396,0 0.785,0.029 1.166,0.084 L 0,0" fill="#93d3c8"/>
  </g>
  <g transform="matrix(.35278 0 0 -.35278 91.031 72.987)">
   <path d="m0 0c-0.55 0-1.087 0.055-1.607 0.16 3.704 0.744 6.494 4.01 6.494 7.94 0 3.923-2.79 7.188-6.494 7.932 0.52 0.105 1.057 0.159 1.607 0.159 0.807 0 1.586-0.118 2.321-0.337l5.534-5.771c0.16-0.634 0.245-1.298 0.245-1.983 0-0.305-0.017-0.606-0.05-0.903l-6.884-7.113c-0.381-0.055-0.77-0.084-1.166-0.084" fill="#93d3c8"/>
  </g>
  <g transform="matrix(.35278 0 0 -.35278 -90.322 125.13)">
   <g clip-path="url(#clipPath400310)">
    <path d="m511.89 147.88-0.059 1.096c2.234 1.348 3.763 3.744 3.906 6.514l0.83 0.857-0.942 0.983c-0.396 2.246-1.718 4.17-3.558 5.368v1.219c0.135-0.02 0.268-0.043 0.4-0.07 3.704-0.744 6.494-4.009 6.494-7.932 0-3.93-2.79-7.196-6.494-7.94-0.19-0.039-0.382-0.07-0.577-0.095" fill="url(#radialGradient400316)"/>
   </g>
   <g clip-path="url(#clipPath400336)">
    <path d="m511.83 148.98-0.07 1.287h-1.082l5.058 5.227c-0.143-2.77-1.672-5.166-3.906-6.514" fill="url(#radialGradient400342)"/>
   </g>
  </g>
  <g transform="matrix(.35278 0 0 -.35278 93.871 70.448)">
   <path d="m0 0c0.033 0.297 0.05 0.598 0.05 0.903 0 0.685-0.085 1.349-0.245 1.983l1.487-1.551-1.292-1.335m-5.729 8.657c-0.735 0.219-1.514 0.337-2.321 0.337-0.55 0-1.087-0.054-1.607-0.159-0.132 0.027-0.265 0.05-0.4 0.07v4.265l4.328-4.513" fill="#93d3c8"/>
  </g>
  <g transform="matrix(.35278 0 0 -.35278 -90.322 125.13)">
   <g clip-path="url(#clipPath400366)">
    <path d="m515.62 157.33-4.996 5.209h1.438v0.159c1.84-1.198 3.162-3.122 3.558-5.368" fill="url(#radialGradient400342)"/>
   </g>
  </g>
  <g transform="matrix(.35278 0 0 -.35278 76.554 72.124)">
   <path d="m0 0h-0.508v0.576c0.16-0.2 0.33-0.392 0.508-0.576" fill="#93d3c8"/>
  </g>
  <g transform="matrix(.35278 0 0 -.35278 -90.322 125.13)">
   <g clip-path="url(#clipPath400396)">
    <path d="m476.27 150.26h-3.236c-0.178 0.184-0.348 0.376-0.508 0.576v10.128c0.482 0.6 1.049 1.13 1.681 1.572h3.222c-2.084-1.465-3.445-3.89-3.445-6.633 0-2.194 0.871-4.184 2.286-5.643" fill="url(#radialGradient400402)"/>
   </g>
   <g clip-path="url(#clipPath400422)">
    <path d="m479.38 150.26h-3.105c-1.415 1.459-2.286 3.449-2.286 5.643 0 2.743 1.361 5.168 3.445 6.633h3.237-1.291v-1.127c-1.34-1.445-2.16-3.379-2.16-5.506 0-2.126 0.82-4.06 2.16-5.505v-0.138" fill="url(#radialGradient400428)"/>
   </g>
  </g>
  <g transform="matrix(.35278 0 0 -.35278 76.375 68.348)">
   <path d="M 0,0 V 1.572 H 1.681 C 1.049,1.13 0.482,0.6 0,0" fill="#93d3c8"/>
  </g>
  <g transform="matrix(.35278 0 0 -.35278 -90.322 125.13)">
   <g clip-path="url(#clipPath400452)">
    <path d="m479.38 150.4c-1.34 1.445-2.16 3.379-2.16 5.505 0 2.127 0.82 4.061 2.16 5.506v-11.011" fill="url(#radialGradient400458)"/>
   </g>
  </g>
  <g transform="matrix(.35278 0 0 -.35278 87.907 74.114)">
   <path d="M 0,0 -0.18,3.218 C 0.161,3.243 0.496,3.289 0.824,3.355 1.343,3.25 1.88,3.195 2.43,3.195 c 0.233,0 0.463,0.011 0.691,0.03 L 0,0" fill="#7bccbf"/>
  </g>
  <g transform="matrix(.35278 0 0 -.35278 -90.322 125.13)">
   <g clip-path="url(#clipPath400482)">
    <path d="m507.65 147.82c-0.55 0-1.087 0.055-1.606 0.16 3.703 0.744 6.493 4.01 6.493 7.94 0 3.923-2.79 7.188-6.493 7.932 0.519 0.105 1.056 0.159 1.606 0.159s1.087-0.054 1.606-0.159c0.051-0.01 0.102-0.021 0.152-0.032l6.219-6.485c0.08-0.459 0.123-0.932 0.123-1.415 0-0.142-4e-3 -0.284-0.011-0.425l-7.398-7.645c-0.228-0.019-0.458-0.03-0.691-0.03" fill="url(#radialGradient400488)"/>
   </g>
   <g clip-path="url(#clipPath400508)">
    <path d="m505.04 147.84-0.05 0.904c2.577 1.353 4.334 4.054 4.334 7.173 0 3.02-1.654 5.65-4.104 7.04v1.014c0.279-0.027 0.554-0.068 0.824-0.122 3.703-0.744 6.493-4.009 6.493-7.932 0-3.93-2.79-7.196-6.493-7.94-0.328-0.066-0.663-0.112-1.004-0.137" fill="url(#radialGradient400514)"/>
   </g>
   <g clip-path="url(#clipPath400534)">
    <path d="m504.99 148.74-0.085 1.521h-1.09c1.421 1.459 2.296 3.451 2.296 5.652 0 2.741-1.363 5.161-3.447 6.624h2.556v0.416c2.45-1.39 4.104-4.02 4.104-7.04 0-3.119-1.757-5.82-4.334-7.173" fill="url(#radialGradient400540)"/>
   </g>
   <g clip-path="url(#clipPath400560)">
    <path d="m503.81 150.26h-2.979c1.421 1.459 2.296 3.451 2.296 5.652 0 2.741-1.363 5.161-3.447 6.624h2.979c2.084-1.463 3.447-3.883 3.447-6.624 0-2.201-0.875-4.193-2.296-5.652" fill="url(#radialGradient400566)"/>
   </g>
   <g clip-path="url(#clipPath400586)">
    <path d="m479.51 150.26h-0.13v0.138c0.043-0.047 0.086-0.092 0.13-0.138" fill="url(#radialGradient400592)"/>
   </g>
   <g clip-path="url(#clipPath400612)">
    <path d="m482.74 150.26h-3.237c-0.044 0.046-0.087 0.091-0.13 0.138v11.011c0.389 0.419 0.822 0.798 1.291 1.127h3.236c-2.086-1.465-3.447-3.89-3.447-6.633 0-2.194 0.871-4.184 2.287-5.643" fill="url(#radialGradient400618)"/>
   </g>
   <g clip-path="url(#clipPath400638)">
    <path d="m485.98 150.26h-3.234c-1.416 1.459-2.287 3.449-2.287 5.643 0 2.743 1.361 5.168 3.447 6.633h3.235c-2.087-1.465-3.451-3.89-3.451-6.633 0-2.194 0.873-4.184 2.29-5.643" fill="url(#radialGradient400644)"/>
   </g>
   <g clip-path="url(#clipPath400664)">
    <path d="m489.22 150.26h-3.246c-1.417 1.459-2.29 3.449-2.29 5.643 0 2.743 1.364 5.168 3.451 6.633h3.235c-2.084-1.463-3.446-3.883-3.446-6.624 0-2.201 0.875-4.193 2.296-5.652" fill="url(#radialGradient400670)"/>
   </g>
   <g clip-path="url(#clipPath400690)">
    <path d="m500.83 150.26h-11.608c-1.421 1.459-2.296 3.451-2.296 5.652 0 2.741 1.362 5.161 3.446 6.624h9.307c2.084-1.463 3.447-3.883 3.447-6.624 0-2.201-0.875-4.193-2.296-5.652" fill="url(#radialGradient400696)"/>
   </g>
  </g>
  <g transform="matrix(.35278 0 0 -.35278 89.33 67.332)">
   <path d="m0 0c-0.519 0.105-1.056 0.159-1.606 0.159s-1.087-0.054-1.606-0.159c-0.27 0.054-0.545 0.095-0.824 0.122v4.213l4.138-4.315c-0.034-7e-3 -0.068-0.013-0.102-0.02" fill="#7bccbf"/>
  </g>
  <g transform="matrix(.35278 0 0 -.35278 -90.322 125.13)">
   <g clip-path="url(#clipPath400720)">
    <path d="m515.74 155.49c7e-3 0.141 0.011 0.283 0.011 0.425 0 0.483-0.043 0.956-0.123 1.415l0.942-0.983-0.83-0.857m-6.331 8.325c-0.05 0.011-0.101 0.022-0.152 0.032 0.034 7e-3 0.068 0.013 0.102 0.02l0.05-0.052" fill="url(#radialGradient400726)"/>
   </g>
   <g clip-path="url(#clipPath400746)">
    <path d="m479.38 161.41v1.127h1.291c-0.469-0.329-0.902-0.708-1.291-1.127" fill="url(#radialGradient400592)"/>
   </g>
  </g>
  <text x="63.525131" y="59.483974" fill="#231f20" font-family="Sabon" font-size="2.8222px" stroke-width=".35278" xml:space="preserve"><tspan x="63.525131 64.464928 65.876045" y="59.483974">(a)</tspan><tspan x="63.522308 64.462112 66.031265" y="77.052307">(b)</tspan></text>
 </g>
</svg>
