<?xml version="1.0" encoding="UTF-8"?>
<!-- Created with Inkscape (http://www.inkscape.org/) -->
<svg width="51.144mm" height="79.128mm" version="1.1" viewBox="0 0 51.144 79.128" xmlns="http://www.w3.org/2000/svg">
 <defs>
  <clipPath id="clipPath816">
   <path d="m186.22 722.51h-145.18v-223.08h145.18z"/>
  </clipPath>
  <clipPath id="clipPath824">
   <path d="m0 781.35h609.72v-781.08h-609.72z"/>
  </clipPath>
  <clipPath id="clipPath838">
   <path d="m186.22 722.51h-145.18v-223.08h145.18z"/>
  </clipPath>
  <clipPath id="clipPath846">
   <path d="m0 781.35h609.72v-781.08h-609.72z"/>
  </clipPath>
  <clipPath id="clipPath860">
   <path d="m186.22 722.51h-145.18v-223.08h145.18z"/>
  </clipPath>
  <clipPath id="clipPath868">
   <path d="m0 781.35h609.72v-781.08h-609.72z"/>
  </clipPath>
 </defs>
 <g transform="translate(-39.869 -75.485)">
  <g transform="matrix(.35278 0 0 -.35278 47.979 90.995)">
   <path d="m0 0h110.56" fill="#fff"/>
   <path d="m0 0h110.56" fill="none" stroke="#231f20" stroke-width=".5"/>
  </g>
  <g transform="matrix(.35278 0 0 -.35278 48.007 101.95)">
   <path d="m0 0h78.805" fill="#fff"/>
   <path d="m0 0h78.805" fill="none" stroke="#231f20" stroke-width=".5"/>
  </g>
  <g transform="matrix(.35278 0 0 -.35278 48.007 112.98)">
   <path d="m0 0h46.805" fill="#fff"/>
   <path d="m0 0h46.805" fill="none" stroke="#231f20" stroke-width=".5"/>
  </g>
  <path d="m57.815 117.3h-8.3143v-8.8194h8.3143z" fill="#7aafde"/>
  <path d="m57.815 117.3h-8.3143v-8.8194h8.3143z" fill="none" stroke="#0066b3" stroke-width=".35278"/>
  <path d="m57.815 106.36h-8.3143v-8.8194h8.3143z" fill="#fec232"/>
  <path d="m57.815 106.36h-8.3143v-8.8194h8.3143z" fill="none" stroke="#bc9705" stroke-width=".35278"/>
  <path d="m57.815 95.425h-8.3143v-8.8194h8.3143z" fill="#df8637"/>
  <path d="m57.815 95.425h-8.3143v-8.8194h8.3143z" fill="none" stroke="#a72c31" stroke-width=".35278"/>
  <path d="m64.545 115.47h-4.9389v-4.9389h4.9389z" fill="#7aafde"/>
  <path d="m64.545 115.47h-4.9389v-4.9389h4.9389z" fill="none" stroke="#0066b3" stroke-width=".35278"/>
  <path d="m64.519 104.25h-4.9389v-4.9389h4.9389z" fill="#fec232"/>
  <path d="m64.519 104.25h-4.9389v-4.9389h4.9389z" fill="none" stroke="#bc9705" stroke-width=".35278"/>
  <path d="m75.807 104.25h-4.9389v-4.9389h4.9389z" fill="#fec232"/>
  <path d="m75.807 104.25h-4.9389v-4.9389h4.9389z" fill="none" stroke="#bc9705" stroke-width=".35278"/>
  <path d="m70.163 104.25h-4.9389v-4.9389h4.9389z" fill="#fec232"/>
  <path d="m70.163 104.25h-4.9389v-4.9389h4.9389z" fill="none" stroke="#bc9705" stroke-width=".35278"/>
  <g transform="matrix(.35278 0 0 -.35278 48.007 125.29)">
   <path d="m0 0h78.805" fill="#fff"/>
   <path d="m0 0h78.805" fill="none" stroke="#231f20" stroke-width=".5"/>
  </g>
  <g transform="matrix(.35278 0 0 -.35278 48.007 136.32)">
   <path d="m0 0h46.805" fill="#fff"/>
   <path d="m0 0h46.805" fill="none" stroke="#231f20" stroke-width=".5"/>
  </g>
  <path d="m57.815 140.63h-8.3143v-8.8194h8.3143z" fill="#7aafde"/>
  <path d="m57.815 140.63h-8.3143v-8.8194h8.3143z" fill="none" stroke="#0066b3" stroke-width=".35278"/>
  <path d="m57.815 129.7h-8.3143v-8.8194h8.3143z" fill="#fec232"/>
  <path d="m57.815 129.7h-8.3143v-8.8194h8.3143z" fill="none" stroke="#bc9705" stroke-width=".35278"/>
  <path d="m64.545 138.81h-4.9389v-4.9389h4.9389z" fill="#7aafde"/>
  <path d="m64.545 138.81h-4.9389v-4.9389h4.9389z" fill="none" stroke="#0066b3" stroke-width=".35278"/>
  <g transform="matrix(.35278 0 0 -.35278 48.007 148.51)">
   <path d="m0 0h46.805" fill="#fff"/>
   <path d="m0 0h46.805" fill="none" stroke="#231f20" stroke-width=".5"/>
  </g>
  <path d="m57.815 152.82h-8.3143v-8.8194h8.3143z" fill="#7aafde"/>
  <path d="m57.815 152.82h-8.3143v-8.8194h8.3143z" fill="none" stroke="#0066b3" stroke-width=".35278"/>
  <path d="m64.545 151h-4.9389v-4.9389h4.9389z" fill="#7aafde"/>
  <path d="m64.545 151h-4.9389v-4.9389h4.9389z" fill="none" stroke="#0066b3" stroke-width=".35278"/>
  <path d="m64.519 127.59h-4.9389v-4.9389h4.9389z" fill="#fec232"/>
  <path d="m64.519 127.59h-4.9389v-4.9389h4.9389z" fill="none" stroke="#bc9705" stroke-width=".35278"/>
  <path d="m75.807 127.59h-4.9389v-4.9389h4.9389z" fill="#fec232"/>
  <path d="m75.807 127.59h-4.9389v-4.9389h4.9389z" fill="none" stroke="#bc9705" stroke-width=".35278"/>
  <path d="m70.163 127.59h-4.9389v-4.9389h4.9389z" fill="#fec232"/>
  <path d="m70.163 127.59h-4.9389v-4.9389h4.9389z" fill="none" stroke="#bc9705" stroke-width=".35278"/>
  <path d="m64.519 93.438h-4.9389v-4.9389h4.9389z" fill="#df8637"/>
  <path d="m64.519 93.438h-4.9389v-4.9389h4.9389z" fill="none" stroke="#a72c31" stroke-width=".35278"/>
  <path d="m75.749 93.438h-4.9385v-4.9389h4.9385z" fill="#df8637"/>
  <path d="m75.749 93.438h-4.9385v-4.9389h4.9385z" fill="none" stroke="#a72c31" stroke-width=".35278"/>
  <path d="m70.134 93.438h-4.9389v-4.9389h4.9389z" fill="#df8637"/>
  <path d="m70.134 93.438h-4.9389v-4.9389h4.9389z" fill="none" stroke="#a72c31" stroke-width=".35278"/>
  <path d="m86.98 93.438h-4.9389v-4.9389h4.9389z" fill="#df8637"/>
  <path d="m86.98 93.438h-4.9389v-4.9389h4.9389z" fill="none" stroke="#a72c31" stroke-width=".35278"/>
  <path d="m81.365 93.438h-4.9389v-4.9389h4.9389z" fill="#df8637"/>
  <path d="m81.365 93.438h-4.9389v-4.9389h4.9389z" fill="none" stroke="#a72c31" stroke-width=".35278"/>
  <g transform="matrix(.35278 0 0 -.35278 59.58 85.677)">
   <path d="m0 0h77.671" fill="#fff"/>
   <path d="m0 0h77.671" fill="none" stroke="#231f20" stroke-width=".5"/>
  </g>
  <path d="m48.36 152.82h-8.3143v-8.8194h8.3143z" fill="#ffefcf"/>
  <g transform="matrix(.35278 0 0 -.35278 25.391 331.45)">
   <g clip-path="url(#clipPath816)">
    <g clip-path="url(#clipPath824)">
     <g transform="translate(65.108 506.34)">
      <path d="m0 0h-23.568v25h23.568z" fill="none" stroke="#a72c31"/>
     </g>
    </g>
   </g>
  </g>
  <path d="m48.36 140.63h-8.3143v-19.756h8.3143z" fill="#ffefcf"/>
  <g transform="matrix(.35278 0 0 -.35278 25.391 331.45)">
   <g clip-path="url(#clipPath838)">
    <g clip-path="url(#clipPath846)">
     <g transform="translate(65.108 540.89)">
      <path d="m0 0h-23.568v56h23.568z" fill="none" stroke="#a72c31"/>
     </g>
    </g>
   </g>
  </g>
  <path d="m48.36 117.3h-8.3143v-30.692h8.3143z" fill="#ffefcf"/>
  <g transform="matrix(.35278 0 0 -.35278 25.391 331.45)">
   <g clip-path="url(#clipPath860)">
    <g clip-path="url(#clipPath868)">
     <g transform="translate(65.108 607.04)">
      <path d="m0 0h-23.568v87h23.568z" fill="none" stroke="#a72c31"/>
     </g>
    </g>
   </g>
  </g>
  <g fill="#231f20" stroke-width=".35278">
   <text x="50.826153" y="90.415726" font-family="Sabon" font-size="2.8222px" font-style="italic" xml:space="preserve"><tspan x="50.826153" y="90.415726" stroke-width=".35278">l</tspan></text>
   <text x="52.395309" y="90.415726" font-family="Symbol" font-size="3.175px" xml:space="preserve"><tspan x="52.395309" y="90.415726" stroke-width=".35278">=</tspan></text>
   <text x="54.922958" y="90.415726" font-family="Sabon" font-size="2.8222px" xml:space="preserve"><tspan x="54.922958" y="90.415726">2</tspan><tspan x="52.874027" y="93.943504">d</tspan></text>
   <text x="50.825092" y="101.01881" font-family="Sabon" font-size="2.8222px" font-style="italic" xml:space="preserve"><tspan x="50.825092" y="101.01881" stroke-width=".35278">l</tspan></text>
   <text x="52.395309" y="101.01811" font-family="Symbol" font-size="3.175px" xml:space="preserve"><tspan x="52.395309" y="101.01811" stroke-width=".35278">=</tspan></text>
   <text x="54.922958" y="101.01811" font-family="Sabon" font-size="2.8222px" xml:space="preserve"><tspan x="54.922958" y="101.01811">1</tspan><tspan x="52.874027" y="104.54589">p</tspan></text>
   <text x="50.825092" y="112.18846" font-family="Sabon" font-size="2.8222px" font-style="italic" xml:space="preserve"><tspan x="50.825092" y="112.18846" stroke-width=".35278">l</tspan></text>
   <text x="52.395309" y="112.18949" font-family="Symbol" font-size="3.175px" xml:space="preserve"><tspan x="52.395309" y="112.18949" stroke-width=".35278">=</tspan></text>
   <g font-family="Sabon">
    <g font-size="2.8222px">
     <text x="54.922958" y="112.18949" xml:space="preserve"><tspan x="54.922958" y="112.18949">0</tspan><tspan x="53.111092" y="115.71727">s</tspan></text>
     <text x="73.583496" y="102.83664" xml:space="preserve"><tspan x="73.583496 66.908936" y="102.83664">10</tspan><tspan x="61.320938" y="113.97878">0</tspan></text>
     <text x="61.306828" y="102.83664" xml:space="preserve"><tspan x="61.306828" y="102.83664" stroke-width=".35278">-1</tspan></text>
     <text x="79.27874" y="91.937218" xml:space="preserve"><tspan x="79.27874" y="91.937218" stroke-width=".35278">1</tspan></text>
     <text x="84.711517" y="91.937218" xml:space="preserve"><tspan x="84.711517 72.454605" y="91.937218" stroke-width=".35278">20</tspan></text>
     <text x="67.002068" y="91.937218" xml:space="preserve"><tspan x="67.002068" y="91.937218" stroke-width=".35278">-1</tspan></text>
     <text x="60.88208" y="91.937218" xml:space="preserve"><tspan x="60.88208" y="91.937218" stroke-width=".35278">-2</tspan></text>
    </g>
    <g>
     <text transform="rotate(-45)" x="-28.967739" y="91.738647" font-size="2.8222px" xml:space="preserve"><tspan x="-28.967739" y="91.738647" stroke-width=".35278">Kiht</tspan></text>
     <text transform="rotate(-45)" x="-22.723886" y="98.048553" font-size="2.8222px" xml:space="preserve"><tspan x="-22.723886" y="98.048553" stroke-width=".35278">Alamkiht</tspan></text>
     <text x="65.632233" y="113.97913" font-size="2.8222px" xml:space="preserve"><tspan x="65.632233 67.201393" y="113.97913">3s</tspan><tspan x="76.836456 78.405609" y="102.837">3p</tspan><tspan x="87.947548 89.516701" y="91.937576">3d</tspan></text>
    </g>
    <g font-style="italic">
     <text x="60.3829" y="96.012863" font-size="2.8222px" xml:space="preserve"><tspan x="60.3829" y="96.012863" stroke-width=".35278">m</tspan></text>
     <text x="62.736282" y="97.068726" font-size="2.4694px" xml:space="preserve"><tspan x="62.736282" y="97.068726" stroke-width=".35278">l</tspan></text>
     <text x="60.385372" y="106.77011" font-size="2.8222px" xml:space="preserve"><tspan x="60.385372" y="106.77011" stroke-width=".35278">m</tspan></text>
     <text x="62.736282" y="107.82845" font-size="2.4694px" xml:space="preserve"><tspan x="62.736282" y="107.82845" stroke-width=".35278">l</tspan></text>
     <text x="60.385372" y="118.02972" font-size="2.8222px" xml:space="preserve"><tspan x="60.385372" y="118.02972" stroke-width=".35278">m</tspan></text>
     <text x="62.736282" y="119.08806" font-size="2.4694px" xml:space="preserve"><tspan x="62.736282" y="119.08806" stroke-width=".35278">l</tspan></text>
     <text x="50.826153" y="124.35471" font-size="2.8222px" xml:space="preserve"><tspan x="50.826153" y="124.35471" stroke-width=".35278">l</tspan></text>
    </g>
   </g>
   <text x="52.395309" y="124.35471" font-family="Symbol" font-size="3.175px" xml:space="preserve"><tspan x="52.395309" y="124.35471" stroke-width=".35278">=</tspan></text>
   <text x="54.922958" y="124.35471" font-family="Sabon" font-size="2.8222px" xml:space="preserve"><tspan x="54.922958" y="124.35471">1</tspan><tspan x="52.874027" y="127.88248">p</tspan></text>
   <text x="50.825092" y="135.52507" font-family="Sabon" font-size="2.8222px" font-style="italic" xml:space="preserve"><tspan x="50.825092" y="135.52507" stroke-width=".35278">l</tspan></text>
   <text x="52.395309" y="135.52609" font-family="Symbol" font-size="3.175px" xml:space="preserve"><tspan x="52.395309" y="135.52609" stroke-width=".35278">=</tspan></text>
   <g font-family="Sabon">
    <g font-size="2.8222px">
     <g>
      <text x="54.922958" y="135.52609" xml:space="preserve"><tspan x="54.922958" y="135.52609">0</tspan><tspan x="53.111092" y="139.05386">s</tspan></text>
      <text x="73.583496" y="126.17324" xml:space="preserve"><tspan x="73.583496 66.908936" y="126.17324">10</tspan><tspan x="61.320938" y="137.31537">0</tspan></text>
      <text x="61.835995" y="126.17324" xml:space="preserve"><tspan x="61.835995" y="126.17324">-1</tspan><tspan x="65.104126 66.673279" y="137.31537">2s</tspan><tspan x="76.30835 77.877502" y="126.17324">2p</tspan></text>
     </g>
     <text x="60.386784" y="130.10742" font-style="italic" xml:space="preserve"><tspan x="60.386784" y="130.10742" stroke-width=".35278">m</tspan></text>
    </g>
    <g font-style="italic">
     <text x="62.736282" y="131.16505" font-size="2.4694px" xml:space="preserve"><tspan x="62.736282" y="131.16505" stroke-width=".35278">l</tspan></text>
     <text x="60.385372" y="141.36632" font-size="2.8222px" xml:space="preserve"><tspan x="60.385372" y="141.36632" stroke-width=".35278">m</tspan></text>
     <text x="62.736282" y="142.42467" font-size="2.4694px" xml:space="preserve"><tspan x="62.736282" y="142.42467" stroke-width=".35278">l</tspan></text>
     <text x="50.826153" y="147.71423" font-size="2.8222px" xml:space="preserve"><tspan x="50.826153" y="147.71423" stroke-width=".35278">l</tspan></text>
    </g>
   </g>
   <text x="52.395309" y="147.71423" font-family="Symbol" font-size="3.175px" xml:space="preserve"><tspan x="52.395309" y="147.71423" stroke-width=".35278">=</tspan></text>
   <g font-family="Sabon">
    <g font-size="2.8222px">
     <text x="54.922958" y="147.71423" xml:space="preserve"><tspan x="54.922958" y="147.71423">0</tspan><tspan x="53.111092" y="151.24202">s</tspan><tspan x="61.320938 65.633293 67.202446" y="149.50352">01s</tspan></text>
     <text x="67.947662" y="83.810341" xml:space="preserve"><tspan x="67.947662" y="83.810341" stroke-width=".35278">Orbitaal</tspan></text>
     <text x="60.386784" y="153.55342" font-style="italic" xml:space="preserve"><tspan x="60.386784" y="153.55342" stroke-width=".35278">m</tspan></text>
    </g>
    <text x="62.736282" y="154.61246" font-size="2.4694px" font-style="italic" xml:space="preserve"><tspan x="62.736282" y="154.61246" stroke-width=".35278">l</tspan></text>
    <text x="41.023869" y="103.04834" font-size="2.8222px" font-style="italic" xml:space="preserve"><tspan x="41.023869" y="103.04834" stroke-width=".35278">n</tspan></text>
   </g>
   <text x="43.377602" y="103.04834" font-family="Symbol" font-size="3.175px" xml:space="preserve"><tspan x="43.377602" y="103.04834" stroke-width=".35278">=</tspan></text>
   <text x="45.905254" y="103.04834" font-family="Sabon" font-size="2.8222px" xml:space="preserve"><tspan x="45.905254" y="103.04834" stroke-width=".35278">3</tspan></text>
   <text x="41.022812" y="131.62334" font-family="Sabon" font-size="2.8222px" font-style="italic" xml:space="preserve"><tspan x="41.022812" y="131.62334" stroke-width=".35278">n</tspan></text>
   <text x="43.377602" y="131.62334" font-family="Symbol" font-size="3.175px" xml:space="preserve"><tspan x="43.377602" y="131.62334" stroke-width=".35278">=</tspan></text>
   <text x="45.905254" y="131.62334" font-family="Sabon" font-size="2.8222px" xml:space="preserve"><tspan x="45.905254" y="131.62334" stroke-width=".35278">2</tspan></text>
   <text x="41.022812" y="149.26224" font-family="Sabon" font-size="2.8222px" font-style="italic" xml:space="preserve"><tspan x="41.022812" y="149.26224" stroke-width=".35278">n</tspan></text>
   <text x="43.377602" y="149.26224" font-family="Symbol" font-size="3.175px" xml:space="preserve"><tspan x="43.377602" y="149.26224" stroke-width=".35278">=</tspan></text>
   <text x="45.905254" y="149.26224" font-family="Sabon" font-size="2.8222px" xml:space="preserve"><tspan x="45.905254" y="149.26224" stroke-width=".35278">1</tspan></text>
  </g>
 </g>
</svg>
