<?xml version="1.0" encoding="UTF-8"?>
<!-- Created with Inkscape (http://www.inkscape.org/) -->
<svg width="279.06mm" height="167.05mm" version="1.1" viewBox="0 0 279.06 167.05" xmlns="http://www.w3.org/2000/svg">
 <g transform="translate(710.6 585.35)" stroke-linecap="square">
  <g fill="#cd8282" stroke-dasharray="2.09273, 2.09273" stroke-dashoffset="4.1854" stroke-width="2.0927">
   <path d="m-710.59-560.82v-7.5505h13.843v15.101h-13.843z" style="paint-order:markers fill stroke"/>
   <path d="m-694.86-560.82v-7.5505h13.843v15.101h-13.843z" style="paint-order:markers fill stroke"/>
   <path d="m-694.79-543.75 0.0844-7.4718 13.685-0.1696v15.113h-13.854z" style="paint-order:markers fill stroke"/>
   <path d="m-710.52-543.75 0.0843-7.4718 13.685-0.1696v15.113h-13.854z" style="paint-order:markers fill stroke"/>
   <path d="m-710.52-526.6 0.0842-7.6291 13.685-0.1696v15.428h-13.854z" style="paint-order:markers fill stroke"/>
   <path d="m-694.79-526.6 0.0842-7.6291 13.685-0.1696v15.428h-13.854z" style="paint-order:markers fill stroke"/>
   <path d="m-710.52-509.61 0.0842-7.6291 13.685-0.1696v15.428h-13.854z" style="paint-order:markers fill stroke"/>
   <path d="m-694.79-509.61 0.0842-7.6291 13.685-0.1696v15.428h-13.854z" style="paint-order:markers fill stroke"/>
   <path d="m-710.28-492.7v-7.3932h13.213v14.786h-13.213z" style="paint-order:markers fill stroke"/>
   <path d="m-694.55-492.7v-7.3932h13.213v14.786h-13.213z" style="paint-order:markers fill stroke"/>
   <path d="m-710.28-475.72v-7.3932h13.213v14.786h-13.213z" style="paint-order:markers fill stroke"/>
   <path d="m-694.55-475.72v-7.3932h13.213v14.786h-13.213z" style="paint-order:markers fill stroke"/>
  </g>
  <path d="m-445.07-426.01v-7.3932h13.213v14.786h-13.213z" fill="#f5d479" stroke-dasharray="2.09273, 2.09273" stroke-dashoffset="4.1854" stroke-width="2.0927" style="paint-order:markers fill stroke"/>
  <path d="m-445.07-475.72v-7.3932h13.213v14.786h-13.213z" fill="#f5d479" stroke-dasharray="2.09273, 2.09273" stroke-dashoffset="4.1854" stroke-width="2.0927" style="paint-order:markers fill stroke"/>
  <g fill="#dacf2f" stroke-dasharray="2.09273, 2.09273" stroke-dashoffset="4.1854" stroke-width="2.0927">
   <path d="m-460.48-475.72v-7.3932h13.213v14.786h-13.213z" style="paint-order:markers fill stroke"/>
   <path d="m-445.07-475.72v-7.3932h13.213v14.786h-13.213z" style="paint-order:markers fill stroke"/>
   <path d="m-445.07-426.01v-7.3932h13.213v14.786h-13.213z" style="paint-order:markers fill stroke"/>
   <path d="m-476.21-475.72v-7.3932h13.213v14.786h-13.213z" style="paint-order:markers fill stroke"/>
   <path d="m-491.63-475.72v-7.3932h13.213v14.786h-13.213z" style="paint-order:markers fill stroke"/>
   <path d="m-507.36-475.72v-7.3932h13.213v14.786h-13.213z" style="paint-order:markers fill stroke"/>
   <path d="m-523.09-475.72v-7.3932h13.213v14.786h-13.213z" style="paint-order:markers fill stroke"/>
   <path d="m-523.09-492.7v-7.3932h13.213v14.786h-13.213z" style="paint-order:markers fill stroke"/>
   <path d="m-507.36-492.7v-7.3932h13.213v14.786h-13.213z" style="paint-order:markers fill stroke"/>
   <path d="m-491.63-492.7v-7.3932h13.213v14.786h-13.213z" style="paint-order:markers fill stroke"/>
   <path d="m-476.21-492.7v-7.3932h13.213v14.786h-13.213z" style="paint-order:markers fill stroke"/>
   <path d="m-460.48-492.7v-7.3932h13.213v14.786h-13.213z" style="paint-order:markers fill stroke"/>
   <path d="m-445.07-492.7v-7.3932h13.213v14.786h-13.213z" style="paint-order:markers fill stroke"/>
   <path d="m-445.31-509.61 0.0842-7.6291 13.685-0.1696v15.428h-13.854z" style="paint-order:markers fill stroke"/>
   <path d="m-460.73-509.61 0.0842-7.6291 13.685-0.1696v15.428h-13.854z" style="paint-order:markers fill stroke"/>
   <path d="m-476.46-509.61 0.0842-7.6291 13.685-0.1696v15.428h-13.854z" style="paint-order:markers fill stroke"/>
   <path d="m-491.87-509.61 0.0842-7.6291 13.685-0.1696v15.428h-13.854z" style="paint-order:markers fill stroke"/>
   <path d="m-507.6-509.61 0.0842-7.6291 13.685-0.1696v15.428h-13.854z" style="paint-order:markers fill stroke"/>
   <path d="m-523.33-509.61 0.0842-7.6291 13.685-0.1696v15.428h-13.854z" style="paint-order:markers fill stroke"/>
   <path d="m-523.33-526.6 0.0842-7.6291 13.685-0.1696v15.428h-13.854z" style="paint-order:markers fill stroke"/>
   <path d="m-507.6-526.6 0.0842-7.6291 13.685-0.1696v15.428h-13.854z" style="paint-order:markers fill stroke"/>
   <path d="m-491.87-526.6 0.0842-7.6291 13.685-0.1696v15.428h-13.854z" style="paint-order:markers fill stroke"/>
   <path d="m-476.46-526.6 0.0842-7.6291 13.685-0.1696v15.428h-13.854z" style="paint-order:markers fill stroke"/>
   <path d="m-460.73-526.6 0.0842-7.6291 13.685-0.1696v15.428h-13.854z" style="paint-order:markers fill stroke"/>
   <path d="m-445.31-526.6 0.0842-7.6291 13.685-0.1696v15.428h-13.854z" style="paint-order:markers fill stroke"/>
   <path d="m-445.38-560.82v-7.5505h13.843v15.101h-13.843z" style="paint-order:markers fill stroke"/>
   <path d="m-460.8-560.82v-7.5505h13.843v15.101h-13.843z" style="paint-order:markers fill stroke"/>
   <path d="m-476.53-560.82v-7.5505h13.843v15.101h-13.843z" style="paint-order:markers fill stroke"/>
   <path d="m-491.94-560.82v-7.5505h13.843v15.101h-13.843z" style="paint-order:markers fill stroke"/>
   <path d="m-507.67-560.82v-7.5505h13.843v15.101h-13.843z" style="paint-order:markers fill stroke"/>
   <path d="m-523.4-560.82v-7.5505h13.843v15.101h-13.843z" style="paint-order:markers fill stroke"/>
  </g>
  <g fill="#8aa678" stroke-dasharray="2.09273, 2.09273" stroke-dashoffset="4.1854" stroke-width="2.0927">
   <path d="m-538.75-509.61 0.0842-7.6291 13.685-0.1696v15.428h-13.854z" style="paint-order:markers fill stroke"/>
   <path d="m-554.48-509.61 0.0842-7.6291 13.685-0.1696v15.428h-13.854z" style="paint-order:markers fill stroke"/>
   <path d="m-569.89-509.61 0.0842-7.6291 13.685-0.1696v15.428h-13.854z" style="paint-order:markers fill stroke"/>
   <path d="m-585.62-509.61 0.0842-7.6291 13.685-0.1696v15.428h-13.854z" style="paint-order:markers fill stroke"/>
   <path d="m-601.35-509.61 0.0842-7.6291 14-0.1694v15.428h-14.168z" style="paint-order:markers fill stroke"/>
   <path d="m-616.77-509.61 0.0842-7.6291 13.685-0.1696v15.428h-13.854z" style="paint-order:markers fill stroke"/>
   <path d="m-632.5-509.61 0.0842-7.6291 13.685-0.1696v15.428h-13.854z" style="paint-order:markers fill stroke"/>
   <path d="m-647.91-509.61 0.0842-7.6291 13.685-0.1696v15.428h-13.854z" style="paint-order:markers fill stroke"/>
   <path d="m-663.64-509.61 0.0842-7.6291 13.685-0.1696v15.428h-13.854z" style="paint-order:markers fill stroke"/>
   <path d="m-679.06-509.61 0.0842-7.6291 13.685-0.1696v15.428h-13.854z" style="paint-order:markers fill stroke"/>
   <path d="m-679.06-526.6 0.0842-7.6291 13.685-0.1696v15.428h-13.854z" style="paint-order:markers fill stroke"/>
   <path d="m-663.64-526.6 0.0842-7.6291 13.685-0.1696v15.428h-13.854z" style="paint-order:markers fill stroke"/>
   <path d="m-647.91-526.6 0.0842-7.6291 13.685-0.1696v15.428h-13.854z" style="paint-order:markers fill stroke"/>
   <path d="m-632.5-526.6 0.0842-7.6291 13.685-0.1696v15.428h-13.854z" style="paint-order:markers fill stroke"/>
   <path d="m-616.77-526.6 0.0842-7.6291 13.685-0.1696v15.428h-13.854z" style="paint-order:markers fill stroke"/>
   <path d="m-601.35-526.6 0.0842-7.6291 14-0.1694v15.428h-14.168z" style="paint-order:markers fill stroke"/>
   <path d="m-585.62-526.6 0.0842-7.6291 13.685-0.1696v15.428h-13.854z" style="paint-order:markers fill stroke"/>
   <path d="m-569.89-526.6 0.0842-7.6291 13.685-0.1696v15.428h-13.854z" style="paint-order:markers fill stroke"/>
   <path d="m-554.48-526.6 0.0842-7.6291 13.685-0.1696v15.428h-13.854z" style="paint-order:markers fill stroke"/>
   <path d="m-538.75-526.6 0.0842-7.6291 13.685-0.1696v15.428h-13.854z" style="paint-order:markers fill stroke"/>
   <path d="m-538.51-475.72v-7.3932h13.213v14.786h-13.213z" style="paint-order:markers fill stroke"/>
   <path d="m-554.24-475.72v-7.3932h13.213v14.786h-13.213z" style="paint-order:markers fill stroke"/>
   <path d="m-569.65-475.72v-7.3932h13.213v14.786h-13.213z" style="paint-order:markers fill stroke"/>
   <path d="m-585.38-475.72v-7.3932h13.213v14.786h-13.213z" style="paint-order:markers fill stroke"/>
   <path d="m-601.11-475.72v-7.3932h13.528v14.786h-13.528z" style="paint-order:markers fill stroke"/>
   <path d="m-616.53-475.72v-7.3932h13.213v14.786h-13.213z" style="paint-order:markers fill stroke"/>
   <path d="m-632.26-475.72v-7.3932h13.213v14.786h-13.213z" style="paint-order:markers fill stroke"/>
   <path d="m-647.67-475.72v-7.3932h13.213v14.786h-13.213z" style="paint-order:markers fill stroke"/>
   <path d="m-663.4-475.72v-7.3932h13.213v14.786h-13.213z" style="paint-order:markers fill stroke"/>
   <path d="m-663.64-425.93 0.0842-7.6291 13.685-0.1696v15.428h-13.854z" style="paint-order:markers fill stroke"/>
   <path d="m-647.67-426.01v-7.3932h13.213v14.786h-13.213z" style="paint-order:markers fill stroke"/>
   <path d="m-632.26-426.01v-7.3932h13.213v14.786h-13.213z" style="paint-order:markers fill stroke"/>
   <path d="m-616.53-426.01v-7.3932h13.213v14.786h-13.213z" style="paint-order:markers fill stroke"/>
   <path d="m-601.11-426.01v-7.3932h13.528v14.786h-13.528z" style="paint-order:markers fill stroke"/>
  </g>
  <g fill="#8d91d0">
   <g stroke-dasharray="2.09273, 2.09273" stroke-dashoffset="4.1854" stroke-width="2.0927">
    <path d="m-585.62-425.93 0.0842-7.6291 13.685-0.1696v15.428h-13.854z" style="paint-order:markers fill stroke"/>
    <path d="m-569.89-425.93 0.0842-7.6291 13.685-0.1696v15.428h-13.854z" style="paint-order:markers fill stroke"/>
    <path d="m-554.48-425.93 0.0842-7.6291 13.685-0.1696v15.428h-13.854z" style="paint-order:markers fill stroke"/>
    <path d="m-538.75-425.93 0.0842-7.6291 13.685-0.1696v15.428h-13.854z" style="paint-order:markers fill stroke"/>
    <path d="m-523.33-425.93 0.0842-7.6291 13.685-0.1696v15.428h-13.854z" style="paint-order:markers fill stroke"/>
    <path d="m-507.6-425.93 0.0842-7.6291 13.685-0.1696v15.428h-13.854z" style="paint-order:markers fill stroke"/>
    <path d="m-491.87-425.93 0.0842-7.6291 13.685-0.1696v15.428h-13.854z" style="paint-order:markers fill stroke"/>
    <path d="m-476.46-425.93 0.0842-7.6291 13.685-0.1696v15.428h-13.854z" style="paint-order:markers fill stroke"/>
    <path d="m-460.73-425.93 0.0842-7.6291 13.685-0.1696v15.428h-13.854z" style="paint-order:markers fill stroke"/>
    <path d="m-460.73-443.08 0.0843-7.4718 13.685-0.1696v15.113h-13.854z" style="paint-order:markers fill stroke"/>
    <path d="m-476.46-443.08 0.0843-7.4718 13.685-0.1696v15.113h-13.854z" style="paint-order:markers fill stroke"/>
    <path d="m-491.87-443.08 0.0843-7.4718 13.685-0.1696v15.113h-13.854z" style="paint-order:markers fill stroke"/>
    <path d="m-507.6-443.08 0.0843-7.4718 13.685-0.1696v15.113h-13.854z" style="paint-order:markers fill stroke"/>
    <path d="m-523.33-443.08 0.0843-7.4718 13.685-0.1696v15.113h-13.854z" style="paint-order:markers fill stroke"/>
    <path d="m-538.75-443.08 0.0843-7.4718 13.685-0.1696v15.113h-13.854z" style="paint-order:markers fill stroke"/>
    <path d="m-554.48-443.08 0.0843-7.4718 13.685-0.1696v15.113h-13.854z" style="paint-order:markers fill stroke"/>
    <path d="m-569.89-443.08 0.0843-7.4718 13.685-0.1696v15.113h-13.854z" style="paint-order:markers fill stroke"/>
    <path d="m-585.62-443.08 0.0843-7.4718 13.685-0.1696v15.113h-13.854z" style="paint-order:markers fill stroke"/>
    <path d="m-601.35-443.08 0.0843-7.4718 14-0.1694v15.113h-14.169z" style="paint-order:markers fill stroke"/>
    <path d="m-616.77-443.08 0.0843-7.4718 13.685-0.1696v15.113h-13.854z" style="paint-order:markers fill stroke"/>
   </g>
   <text x="-531.38379" y="-457.95981" font-family="'DejaVu Sans'" font-size="5.6444px" stroke-dasharray="1.76, 1.76" stroke-dashoffset="3.52" stroke-width="1.76" text-align="center" text-anchor="middle" style="paint-order:markers fill stroke" xml:space="preserve"><tspan x="-531.38379" y="-457.95981" fill="#8d91d0" stroke-width="1.76">3</tspan></text>
  </g>
  <g font-family="'DejaVu Sans'" font-size="5.6444px" stroke-dasharray="1.76, 1.76" stroke-dashoffset="3.52" stroke-width="1.76" text-anchor="middle">
   <text x="-570.78589" y="-576.42755" fill="#000000" text-align="center" style="paint-order:markers fill stroke" xml:space="preserve"><tspan x="-570.78589" y="-576.42755" font-family="'DejaVu Sans'" font-style="oblique" stroke-width="1.76">l</tspan></text>
   <text x="-687.60022" y="-576.51709" fill="#cd8282" text-align="center" style="paint-order:markers fill stroke" xml:space="preserve"><tspan x="-687.60022" y="-576.51709" fill="#cd8282" stroke-width="1.76">0</tspan></text>
   <text x="-483.87686" y="-576.51434" fill="#dacf2f" text-align="center" style="paint-order:markers fill stroke" xml:space="preserve"><tspan x="-483.87686" y="-576.51434" fill="#dacf2f" stroke-width="1.76">1</tspan></text>
   <text x="-609.52161" y="-542.77393" fill="#8aa678" text-align="center" style="paint-order:markers fill stroke" xml:space="preserve"><tspan x="-609.52161" y="-542.77393" fill="#8aa678" stroke-width="1.76">2</tspan></text>
  </g>
  <g stroke-dasharray="2.09273, 2.09273" stroke-dashoffset="4.1854" stroke-width="2.0927">
   <path d="m-632.5-443.08 0.0843-7.4718 13.685-0.1696v15.113h-13.854z" fill="#8d91d0" style="paint-order:markers fill stroke"/>
   <path d="m-445.31-443.08 0.0843-7.4718 13.685-0.1696v15.113h-13.854z" fill="#dacf2f" style="paint-order:markers fill stroke"/>
   <path d="m-710.59-577.8v-7.5505h13.843v15.101h-13.843z" fill="#cd8282" style="paint-order:markers fill stroke"/>
   <path d="m-445.38-577.8v-7.5505h13.843v15.101h-13.843z" fill="#cd8282" style="paint-order:markers fill stroke"/>
  </g>
  <g fill="#dacf2f" stroke-dasharray="2.09273, 2.09273" stroke-dashoffset="4.1854" stroke-width="2.0927">
   <path d="m-445.38-543.83v-7.5505h13.843v15.101h-13.843z" style="paint-order:markers fill stroke"/>
   <path d="m-460.8-543.83v-7.5505h13.843v15.101h-13.843z" style="paint-order:markers fill stroke"/>
   <path d="m-476.53-543.83v-7.5505h13.843v15.101h-13.843z" style="paint-order:markers fill stroke"/>
   <path d="m-491.94-543.83v-7.5505h13.843v15.101h-13.843z" style="paint-order:markers fill stroke"/>
   <path d="m-507.67-543.83v-7.5505h13.843v15.101h-13.843z" style="paint-order:markers fill stroke"/>
   <path d="m-523.4-543.83v-7.5505h13.843v15.101h-13.843z" style="paint-order:markers fill stroke"/>
  </g>
  <g fill="#8aa678" stroke-dasharray="2.09273, 2.09273" stroke-dashoffset="4.1854" stroke-width="2.0927">
   <path d="m-538.82-492.7v-7.7078h13.843v15.416h-13.843z" style="paint-order:markers fill stroke"/>
   <path d="m-554.55-492.7v-7.7078h13.843v15.416h-13.843z" style="paint-order:markers fill stroke"/>
   <path d="m-569.97-492.7v-7.7078h13.843v15.416h-13.843z" style="paint-order:markers fill stroke"/>
   <path d="m-585.7-492.7v-7.7078h13.843v15.416h-13.843z" style="paint-order:markers fill stroke"/>
   <path d="m-601.43-492.7v-7.7078h14.157v15.416h-14.157z" style="paint-order:markers fill stroke"/>
   <path d="m-616.84-492.7v-7.7078h13.843v15.416h-13.843z" style="paint-order:markers fill stroke"/>
   <path d="m-632.57-492.7v-7.7078h13.843v15.416h-13.843z" style="paint-order:markers fill stroke"/>
   <path d="m-647.99-492.7v-7.7078h13.843v15.416h-13.843z" style="paint-order:markers fill stroke"/>
   <path d="m-663.72-492.7v-7.7078h13.843v15.416h-13.843z" style="paint-order:markers fill stroke"/>
   <path d="m-663.72-443.15v-7.5505h13.843v15.101h-13.843z" style="paint-order:markers fill stroke"/>
   <path d="m-647.99-443.15v-7.5505h13.843v15.101h-13.843z" style="paint-order:markers fill stroke"/>
   <path d="m-445.12-442.92c0.0594-4.0231 0.13017-7.335 0.15729-7.3598 0.0271-0.0249 3.0577-0.098 6.7346-0.16242l6.6853-0.11723v14.954l-13.685 3e-4z" style="paint-order:markers fill stroke"/>
  </g>
 </g>
</svg>
