<?xml version="1.0" encoding="UTF-8"?>
<!-- Created with Inkscape (http://www.inkscape.org/) -->
<svg width="285.71mm" height="177.89mm" version="1.1" viewBox="0 0 285.71 177.89" xmlns="http://www.w3.org/2000/svg">
 <g transform="translate(716.74 485.27)">
  <g transform="matrix(.26458 0 0 .26458 -675.19 -370.53)" stroke-linecap="square">
   <g fill="#dacf2f" stroke-dasharray="7.90953, 7.90953" stroke-dashoffset="15.819" stroke-width="7.9095">
    <path d="m-131.88-235.76v-28.537h52.318v57.074h-52.318z" style="paint-order:markers fill stroke"/>
    <path d="m-72.428-235.76v-28.537h52.318v57.074h-52.318z" style="paint-order:markers fill stroke"/>
    <path d="m575.6-235.76v-28.537h52.318v57.074h-52.318z" style="paint-order:markers fill stroke"/>
    <path d="m635.06-235.76v-28.537h52.318v57.074h-52.318z" style="paint-order:markers fill stroke"/>
    <path d="m694.51-235.76v-28.537h52.318v57.074h-52.318z" style="paint-order:markers fill stroke"/>
    <path d="m752.77-235.76v-28.537h52.318v57.074h-52.318z" style="paint-order:markers fill stroke"/>
    <path d="m812.23-235.76v-28.537h52.318v57.074h-52.318z" style="paint-order:markers fill stroke"/>
    <path d="m870.49-235.76v-28.537h52.318v57.074h-52.318z" style="paint-order:markers fill stroke"/>
    <path d="m517.34-170.96v-29.132h52.318v58.263h-52.318z" style="paint-order:markers fill stroke"/>
    <path d="m457.89-170.96v-29.132h52.318v58.263h-52.318z" style="paint-order:markers fill stroke"/>
    <path d="m399.63-170.96v-29.132h52.318v58.263h-52.318z" style="paint-order:markers fill stroke"/>
    <path d="m340.17-170.96v-29.132h52.318v58.263h-52.318z" style="paint-order:markers fill stroke"/>
    <path d="m280.72-170.96v-29.132h53.507v58.263h-53.507z" style="paint-order:markers fill stroke"/>
    <path d="m222.46-170.96v-29.132h52.318v58.263h-52.318z" style="paint-order:markers fill stroke"/>
    <path d="m163-170.96v-29.132h52.318v58.263h-52.318z" style="paint-order:markers fill stroke"/>
    <path d="m104.74-170.96v-29.132h52.318v58.263h-52.318z" style="paint-order:markers fill stroke"/>
    <path d="m45.288-170.96v-29.132h52.318v58.263h-52.318z" style="paint-order:markers fill stroke"/>
    <path d="m-12.975-170.96v-29.132h52.318v58.263h-52.318z" style="paint-order:markers fill stroke"/>
   </g>
   <g fill="#f5d479" stroke-dasharray="7.90953, 7.90953" stroke-dashoffset="15.819" stroke-width="7.9095">
    <path d="m-131.88-299.97v-28.537h52.318v57.074h-52.318z" style="paint-order:markers fill stroke"/>
    <path d="m-72.428-299.97v-28.537h52.318v57.074h-52.318z" style="paint-order:markers fill stroke"/>
    <path d="m575.6-299.97v-28.537h52.318v57.074h-52.318z" style="paint-order:markers fill stroke"/>
    <path d="m635.06-299.97v-28.537h52.318v57.074h-52.318z" style="paint-order:markers fill stroke"/>
    <path d="m694.51-299.97v-28.537h52.318v57.074h-52.318z" style="paint-order:markers fill stroke"/>
    <path d="m752.77-299.97v-28.537h52.318v57.074h-52.318z" style="paint-order:markers fill stroke"/>
    <path d="m812.23-299.97v-28.537h52.318v57.074h-52.318z" style="paint-order:markers fill stroke"/>
    <path d="m870.49-299.97v-28.537h52.318v57.074h-52.318z" style="paint-order:markers fill stroke"/>
   </g>
   <path d="m-131.88-364.18v-28.537h52.318v57.074h-52.318z" fill="#cd8282" stroke-dasharray="7.90953, 7.90953" stroke-dashoffset="15.819" stroke-width="7.9095" style="paint-order:markers fill stroke"/>
   <path d="m870.49-364.18v-28.537h52.318v57.074h-52.318z" fill="#cd8282" stroke-dasharray="7.90953, 7.90953" stroke-dashoffset="15.819" stroke-width="7.9095" style="paint-order:markers fill stroke"/>
   <g fill="#9dde67" stroke-dasharray="7.90953, 7.90953" stroke-dashoffset="15.819" stroke-width="7.9095">
    <path d="m-131.88-170.96v-29.132h52.318v58.263h-52.318z" style="paint-order:markers fill stroke"/>
    <path d="m-72.428-170.96v-29.132h52.318v58.263h-52.318z" style="paint-order:markers fill stroke"/>
    <path d="m575.6-170.96v-29.132h52.318v58.263h-52.318z" style="paint-order:markers fill stroke"/>
    <path d="m635.06-170.96v-29.132h52.318v58.263h-52.318z" style="paint-order:markers fill stroke"/>
    <path d="m694.51-170.96v-29.132h52.318v58.263h-52.318z" style="paint-order:markers fill stroke"/>
    <path d="m752.77-170.96v-29.132h52.318v58.263h-52.318z" style="paint-order:markers fill stroke"/>
    <path d="m812.23-170.96v-29.132h52.318v58.263h-52.318z" style="paint-order:markers fill stroke"/>
    <path d="m870.49-170.96v-29.132h52.318v58.263h-52.318z" style="paint-order:markers fill stroke"/>
    <path d="m-12.975-106.75v-29.132h52.318v58.263h-52.318z" style="paint-order:markers fill stroke"/>
    <path d="m45.288-106.75v-29.132h52.318v58.263h-52.318z" style="paint-order:markers fill stroke"/>
    <path d="m104.74-106.75v-29.132h52.318v58.263h-52.318z" style="paint-order:markers fill stroke"/>
    <path d="m163-106.75v-29.132h52.318v58.263h-52.318z" style="paint-order:markers fill stroke"/>
    <path d="m222.46-106.75v-29.132h52.318v58.263h-52.318z" style="paint-order:markers fill stroke"/>
    <path d="m280.72-106.75v-29.132h53.507v58.263h-53.507z" style="paint-order:markers fill stroke"/>
    <path d="m340.17-106.75v-29.132h52.318v58.263h-52.318z" style="paint-order:markers fill stroke"/>
    <path d="m399.63-106.75v-29.132h52.318v58.263h-52.318z" style="paint-order:markers fill stroke"/>
    <path d="m457.89-106.75v-29.132h52.318v58.263h-52.318z" style="paint-order:markers fill stroke"/>
    <path d="m517.34-106.75v-29.132h52.318v58.263h-52.318z" style="paint-order:markers fill stroke"/>
    <path d="m163 144.73v-28.537h52.318v57.074h-52.318z" style="paint-order:markers fill stroke"/>
    <path d="m222.46 144.73v-28.537h52.318v57.074h-52.318z" style="paint-order:markers fill stroke"/>
    <path d="m280.72 144.73v-28.537h53.507v57.074h-53.507z" style="paint-order:markers fill stroke"/>
    <path d="m340.17 144.73v-28.537h52.318v57.074h-52.318z" style="paint-order:markers fill stroke"/>
    <path d="m399.63 144.73v-28.537h52.318v57.074h-52.318z" style="paint-order:markers fill stroke"/>
    <path d="m457.89 144.73v-28.537h52.318v57.074h-52.318z" style="paint-order:markers fill stroke"/>
    <path d="m517.34 144.73v-28.537h52.318v57.074h-52.318z" style="paint-order:markers fill stroke"/>
    <path d="m575.6 144.73v-28.537h52.318v57.074h-52.318z" style="paint-order:markers fill stroke"/>
    <path d="m635.06 144.73v-28.537h52.318v57.074h-52.318z" style="paint-order:markers fill stroke"/>
    <path d="m694.51 144.73v-28.537h52.318v57.074h-52.318z" style="paint-order:markers fill stroke"/>
    <path d="m752.77 144.73v-28.537h52.318v57.074h-52.318z" style="paint-order:markers fill stroke"/>
    <path d="m812.23 144.73v-28.537h52.318v57.074h-52.318z" style="paint-order:markers fill stroke"/>
   </g>
   <g fill="#8aa678" stroke-dasharray="7.90953, 7.90953" stroke-dashoffset="15.819" stroke-width="7.9095">
    <path d="m-131.88-106.75v-29.132h52.318v58.263h-52.318z" style="paint-order:markers fill stroke"/>
    <path d="m-72.428-106.75v-29.132h52.318v58.263h-52.318z" style="paint-order:markers fill stroke"/>
    <path d="m575.6-106.75v-29.132h52.318v58.263h-52.318z" style="paint-order:markers fill stroke"/>
    <path d="m635.06-106.75v-29.132h52.318v58.263h-52.318z" style="paint-order:markers fill stroke"/>
    <path d="m694.51-106.75v-29.132h52.318v58.263h-52.318z" style="paint-order:markers fill stroke"/>
    <path d="m752.77-106.75v-29.132h52.318v58.263h-52.318z" style="paint-order:markers fill stroke"/>
    <path d="m812.23-106.75v-29.132h52.318v58.263h-52.318z" style="paint-order:markers fill stroke"/>
    <path d="m870.49-106.75v-29.132h52.318v58.263h-52.318z" style="paint-order:markers fill stroke"/>
    <path d="m45.288-42.541v-29.132h52.318v58.263h-52.318z" style="paint-order:markers fill stroke"/>
    <path d="m104.74-42.541v-29.132h52.318v58.263h-52.318z" style="paint-order:markers fill stroke"/>
    <path d="m163-42.541v-29.132h52.318v58.263h-52.318z" style="paint-order:markers fill stroke"/>
    <path d="m222.46-42.541v-29.132h52.318v58.263h-52.318z" style="paint-order:markers fill stroke"/>
    <path d="m280.72-42.541v-29.132h53.507v58.263h-53.507z" style="paint-order:markers fill stroke"/>
    <path d="m340.17-42.541v-29.132h52.318v58.263h-52.318z" style="paint-order:markers fill stroke"/>
    <path d="m399.63-42.541v-29.132h52.318v58.263h-52.318z" style="paint-order:markers fill stroke"/>
    <path d="m457.89-42.541v-29.132h52.318v58.263h-52.318z" style="paint-order:markers fill stroke"/>
    <path d="m517.34-42.541v-29.132h52.318v58.263h-52.318z" style="paint-order:markers fill stroke"/>
    <path d="m45.288 144.73v-28.537h52.318v57.074h-52.318z" style="paint-order:markers fill stroke"/>
    <path d="m104.74 144.73v-28.537h52.318v57.074h-52.318z" style="paint-order:markers fill stroke"/>
    <path d="m870.49 144.73v-28.537h52.318v57.074h-52.318z" style="paint-order:markers fill stroke"/>
    <path d="m340.17 209.54v-29.132h52.318v58.263h-52.318z" style="paint-order:markers fill stroke"/>
    <path d="m399.63 209.54v-29.132h52.318v58.263h-52.318z" style="paint-order:markers fill stroke"/>
    <path d="m457.89 209.54v-29.132h52.318v58.263h-52.318z" style="paint-order:markers fill stroke"/>
    <path d="m517.34 209.54v-29.132h52.318v58.263h-52.318z" style="paint-order:markers fill stroke"/>
    <path d="m575.6 209.54v-29.132h52.318v58.263h-52.318z" style="paint-order:markers fill stroke"/>
    <path d="m635.06 209.54v-29.132h52.318v58.263h-52.318z" style="paint-order:markers fill stroke"/>
    <path d="m694.51 209.54v-29.132h52.318v58.263h-52.318z" style="paint-order:markers fill stroke"/>
    <path d="m752.77 209.54v-29.132h52.318v58.263h-52.318z" style="paint-order:markers fill stroke"/>
    <path d="m812.23 209.54v-29.132h52.318v58.263h-52.318z" style="paint-order:markers fill stroke"/>
   </g>
   <g fill="#f60" stroke-dasharray="7.90953, 7.90953" stroke-dashoffset="15.819" stroke-width="7.9095">
    <path d="m-131.88-42.541v-29.132h52.318v58.263h-52.318z" style="paint-order:markers fill stroke"/>
    <path d="m-72.428-42.541v-29.132h52.318v58.263h-52.318z" style="paint-order:markers fill stroke"/>
    <path d="m575.6-42.541v-29.132h52.318v58.263h-52.318z" style="paint-order:markers fill stroke"/>
    <path d="m635.06-42.541v-29.132h52.318v58.263h-52.318z" style="paint-order:markers fill stroke"/>
    <path d="m694.51-42.541v-29.132h52.318v58.263h-52.318z" style="paint-order:markers fill stroke"/>
    <path d="m752.77-42.541v-29.132h52.318v58.263h-52.318z" style="paint-order:markers fill stroke"/>
    <path d="m812.23-42.541v-29.132h52.318v58.263h-52.318z" style="paint-order:markers fill stroke"/>
    <path d="m870.49-42.541v-29.132h52.318v58.263h-52.318z" style="paint-order:markers fill stroke"/>
    <path d="m45.288 21.668v-29.132h52.318v58.263h-52.318z" style="paint-order:markers fill stroke"/>
    <path d="m104.74 21.668v-29.132h52.318v58.263h-52.318z" style="paint-order:markers fill stroke"/>
    <path d="m163 21.668v-29.132h52.318v58.263h-52.318z" style="paint-order:markers fill stroke"/>
    <path d="m222.46 21.668v-29.132h52.318v58.263h-52.318z" style="paint-order:markers fill stroke"/>
    <path d="m280.72 21.668v-29.132h53.507v58.263h-53.507z" style="paint-order:markers fill stroke"/>
    <path d="m340.17 21.668v-29.132h52.318v58.263h-52.318z" style="paint-order:markers fill stroke"/>
    <path d="m399.63 21.668v-29.132h52.318v58.263h-52.318z" style="paint-order:markers fill stroke"/>
    <path d="m457.89 21.668v-29.132h52.318v58.263h-52.318z" style="paint-order:markers fill stroke"/>
    <path d="m517.34 21.668v-29.132h52.318v58.263h-52.318z" style="paint-order:markers fill stroke"/>
   </g>
   <path d="m45.288 209.54v-29.132h52.318v58.263h-52.318z" fill="#55679e" stroke-dasharray="7.90953, 7.90953" stroke-dashoffset="15.819" stroke-width="7.9095" style="paint-order:markers fill stroke"/>
   <g fill="#f60" stroke-dasharray="7.90953, 7.90953" stroke-dashoffset="15.819" stroke-width="7.9095">
    <path d="m104.74 209.54v-29.132h52.318v58.263h-52.318z" style="paint-order:markers fill stroke"/>
    <path d="m163 209.54v-29.132h52.318v58.263h-52.318z" style="paint-order:markers fill stroke"/>
    <path d="m222.46 209.54v-29.132h52.318v58.263h-52.318z" style="paint-order:markers fill stroke"/>
    <path d="m280.72 209.54v-29.132h53.507v58.263h-53.507z" style="paint-order:markers fill stroke"/>
   </g>
   <g fill="#f00" stroke-dasharray="7.90953, 7.90953" stroke-dashoffset="15.819" stroke-width="7.9095">
    <path d="m-131.88 21.668v-29.132h52.318v58.263h-52.318z" style="paint-order:markers fill stroke"/>
    <path d="m-72.428 21.668v-29.132h52.318v58.263h-52.318z" style="paint-order:markers fill stroke"/>
    <path d="m575.6 21.668v-29.132h52.318v58.263h-52.318z" style="paint-order:markers fill stroke"/>
    <path d="m635.06 21.668v-29.132h52.318v58.263h-52.318z" style="paint-order:markers fill stroke"/>
    <path d="m694.51 21.668v-29.132h52.318v58.263h-52.318z" style="paint-order:markers fill stroke"/>
    <path d="m752.77 21.668v-29.132h52.318v58.263h-52.318z" style="paint-order:markers fill stroke"/>
    <path d="m812.23 21.668v-29.132h52.318v58.263h-52.318z" style="paint-order:markers fill stroke"/>
    <path d="m870.49 21.668v-29.132h52.318v58.263h-52.318z" style="paint-order:markers fill stroke"/>
    <path d="m870.49 209.54v-29.132h52.318v58.263h-52.318z" style="paint-order:markers fill stroke"/>
   </g>
   <g font-family="'DejaVu Sans'" font-size="21.333px" stroke-dasharray="6.65197, 6.65197" stroke-dashoffset="13.304" stroke-width="6.652" text-anchor="middle">
    <text x="-151.04843" y="-421.72583" fill="#000000" text-align="center" style="paint-order:markers fill stroke" xml:space="preserve"><tspan x="-151.04843" y="-421.72583" font-family="'DejaVu Sans'" font-style="oblique" stroke-width="6.652">n</tspan></text>
    <text x="-151.17346" y="-356.4028" fill="#cd8282" text-align="center" style="paint-order:markers fill stroke" xml:space="preserve"><tspan x="-151.17346" y="-356.4028" fill="#cd8282" stroke-width="6.652">1</tspan></text>
    <text x="-150.69942" y="-292.0535" fill="#f5d479" text-align="center" style="paint-order:markers fill stroke" xml:space="preserve"><tspan x="-150.69942" y="-292.0535" fill="#f5d479" stroke-width="6.652">2</tspan></text>
    <text x="-150.94417" y="-227.99586" fill="#dacf2f" text-align="center" style="paint-order:markers fill stroke" xml:space="preserve"><tspan x="-150.94417" y="-227.99586" fill="#dacf2f" stroke-width="6.652">3</tspan></text>
    <text x="-150.90771" y="-163.18217" fill="#9dde67" text-align="center" style="paint-order:markers fill stroke" xml:space="preserve"><tspan x="-150.90771" y="-163.18217" fill="#9dde67" stroke-width="6.652">4</tspan></text>
    <text x="-150.87657" y="-99.124565" fill="#8aa678" text-align="center" style="paint-order:markers fill stroke" xml:space="preserve"><tspan x="-150.87657" y="-99.124565" fill="#8aa678" stroke-width="6.652">5</tspan></text>
    <text x="-151.05882" y="-34.775246" fill="#55679e" text-align="center" style="paint-order:markers fill stroke" xml:space="preserve"><tspan x="-151.05882" y="-34.775246" fill="#55679e" stroke-width="6.652">6</tspan></text>
    <text x="-150.94948" y="29.44385" fill="#8d91d0" text-align="center" style="paint-order:markers fill stroke" xml:space="preserve"><tspan x="-150.94948" y="29.44385" fill="#8d91d0" stroke-width="6.652">7</tspan></text>
   </g>
   <g fill="#8c93d3" stroke-dasharray="7.90992, 7.90992" stroke-dashoffset="15.82" stroke-width="7.9099">
    <path d="m-131.49 21.161v-28.539h51.132v57.077h-51.132z" style="paint-order:markers fill stroke"/>
    <path d="m-72.037 21.161v-28.539h51.132v57.077h-51.132z" style="paint-order:markers fill stroke"/>
    <path d="m576.03 21.161v-28.539h51.132v57.077h-51.132z" style="paint-order:markers fill stroke"/>
    <path d="m635.48 21.161v-28.539h51.132v57.077h-51.132z" style="paint-order:markers fill stroke"/>
    <path d="m694.94 21.161v-28.539h51.132v57.077h-51.132z" style="paint-order:markers fill stroke"/>
    <path d="m753.2 21.161v-28.539h51.132v57.077h-51.132z" style="paint-order:markers fill stroke"/>
    <path d="m812.66 21.161v-28.539h51.132v57.077h-51.132z" style="paint-order:markers fill stroke"/>
    <path d="m870.93 21.161v-28.539h51.132v57.077h-51.132z" style="paint-order:markers fill stroke"/>
    <path d="m870.93 209.04v-28.539h51.132v57.077h-51.132z" style="paint-order:markers fill stroke"/>
   </g>
   <g fill="#55679e" stroke-dasharray="7.90992, 7.90992" stroke-dashoffset="15.82" stroke-width="7.9099">
    <path d="m105.14 209.04v-28.539h51.132v57.077h-51.132z" style="paint-order:markers fill stroke"/>
    <path d="m163.41 209.04v-28.539h51.132v57.077h-51.132z" style="paint-order:markers fill stroke"/>
    <path d="m222.86 209.04v-28.539h51.132v57.077h-51.132z" style="paint-order:markers fill stroke"/>
    <path d="m281.13 209.04v-28.539h52.321v57.077h-52.321z" style="paint-order:markers fill stroke"/>
    <path d="m517.76 21.161v-28.539h51.132v57.077h-51.132z" style="paint-order:markers fill stroke"/>
    <path d="m458.31 21.161v-28.539h51.132v57.077h-51.132z" style="paint-order:markers fill stroke"/>
    <path d="m400.04 21.161v-28.539h51.132v57.077h-51.132z" style="paint-order:markers fill stroke"/>
    <path d="m340.58 21.161v-28.539h51.132v57.077h-51.132z" style="paint-order:markers fill stroke"/>
    <path d="m281.13 21.161v-28.539h52.321v57.077h-52.321z" style="paint-order:markers fill stroke"/>
    <path d="m222.86 21.161v-28.539h51.132v57.077h-51.132z" style="paint-order:markers fill stroke"/>
    <path d="m163.41 21.161v-28.539h51.132v57.077h-51.132z" style="paint-order:markers fill stroke"/>
    <path d="m105.14 21.161v-28.539h51.132v57.077h-51.132z" style="paint-order:markers fill stroke"/>
    <path d="m45.684 21.161v-28.539h51.132v57.077h-51.132z" style="paint-order:markers fill stroke"/>
    <path d="m-72.037-43.051v-28.539h51.132v57.077h-51.132z" style="paint-order:markers fill stroke"/>
    <path d="m-131.49-43.051v-28.539h51.132v57.077h-51.132z" style="paint-order:markers fill stroke"/>
    <path d="m576.03-43.051v-28.539h51.132v57.077h-51.132z" style="paint-order:markers fill stroke"/>
    <path d="m635.48-43.051v-28.539h51.132v57.077h-51.132z" style="paint-order:markers fill stroke"/>
    <path d="m694.94-43.051v-28.539h51.132v57.077h-51.132z" style="paint-order:markers fill stroke"/>
    <path d="m753.2-43.051v-28.539h51.132v57.077h-51.132z" style="paint-order:markers fill stroke"/>
    <path d="m812.66-43.051v-28.539h51.132v57.077h-51.132z" style="paint-order:markers fill stroke"/>
    <path d="m870.93-43.051v-28.539h51.132v57.077h-51.132z" style="paint-order:markers fill stroke"/>
   </g>
  </g>
 </g>
</svg>
