<?xml version="1.0" encoding="UTF-8"?>
<!-- Created with Inkscape (http://www.inkscape.org/) -->
<svg width="285.71mm" height="177.89mm" version="1.1" viewBox="0 0 285.71 177.89" xmlns="http://www.w3.org/2000/svg">
 <g transform="translate(652.54 383.43)" stroke-linecap="square">
  <g fill="#00ffe9" stroke-dasharray="2.09273, 2.09273" stroke-dashoffset="4.1854" stroke-width="2.0927">
   <path d="m-645.88-331.06v-7.5505h13.843v15.101h-13.843z" style="paint-order:markers fill stroke"/>
   <path d="m-630.15-331.06v-7.5505h13.843v15.101h-13.843z" style="paint-order:markers fill stroke"/>
   <path d="m-458.69-331.06v-7.5505h13.843v15.101h-13.843z" style="paint-order:markers fill stroke"/>
   <path d="m-442.96-331.06v-7.5505h13.843v15.101h-13.843z" style="paint-order:markers fill stroke"/>
   <path d="m-427.23-331.06v-7.5505h13.843v15.101h-13.843z" style="paint-order:markers fill stroke"/>
   <path d="m-411.81-331.06v-7.5505h13.843v15.101h-13.843z" style="paint-order:markers fill stroke"/>
   <path d="m-396.08-331.06v-7.5505h13.843v15.101h-13.843z" style="paint-order:markers fill stroke"/>
   <path d="m-380.67-331.06v-7.5505h13.843v15.101h-13.843z" style="paint-order:markers fill stroke"/>
   <path d="m-474.1-313.92v-7.7078h13.843v15.416h-13.843z" style="paint-order:markers fill stroke"/>
   <path d="m-489.83-313.92v-7.7078h13.843v15.416h-13.843z" style="paint-order:markers fill stroke"/>
   <path d="m-505.25-313.92v-7.7078h13.843v15.416h-13.843z" style="paint-order:markers fill stroke"/>
   <path d="m-520.98-313.92v-7.7078h13.843v15.416h-13.843z" style="paint-order:markers fill stroke"/>
   <path d="m-536.71-313.92v-7.7078h14.157v15.416h-14.157z" style="paint-order:markers fill stroke"/>
   <path d="m-552.13-313.92v-7.7078h13.843v15.416h-13.843z" style="paint-order:markers fill stroke"/>
   <path d="m-567.86-313.92v-7.7078h13.843v15.416h-13.843z" style="paint-order:markers fill stroke"/>
   <path d="m-583.27-313.92v-7.7078h13.843v15.416h-13.843z" style="paint-order:markers fill stroke"/>
   <path d="m-599-313.92v-7.7078h13.843v15.416h-13.843z" style="paint-order:markers fill stroke"/>
  </g>
  <path d="m-614.42-313.92v-7.7078h13.843v15.416h-13.843z" fill="#0ff" stroke-dasharray="2.09273, 2.09273" stroke-dashoffset="4.1854" stroke-width="2.0927" style="paint-order:markers fill stroke"/>
  <g fill="#00f" stroke-dasharray="2.09273, 2.09273" stroke-dashoffset="4.1854" stroke-width="2.0927">
   <path d="m-645.88-348.05v-7.5505h13.843v15.101h-13.843z" style="paint-order:markers fill stroke"/>
   <path d="m-630.15-348.05v-7.5505h13.843v15.101h-13.843z" style="paint-order:markers fill stroke"/>
   <path d="m-458.69-348.05v-7.5505h13.843v15.101h-13.843z" style="paint-order:markers fill stroke"/>
   <path d="m-442.96-348.05v-7.5505h13.843v15.101h-13.843z" style="paint-order:markers fill stroke"/>
   <path d="m-427.23-348.05v-7.5505h13.843v15.101h-13.843z" style="paint-order:markers fill stroke"/>
   <path d="m-411.81-348.05v-7.5505h13.843v15.101h-13.843z" style="paint-order:markers fill stroke"/>
   <path d="m-396.08-348.05v-7.5505h13.843v15.101h-13.843z" style="paint-order:markers fill stroke"/>
   <path d="m-380.67-348.05v-7.5505h13.843v15.101h-13.843z" style="paint-order:markers fill stroke"/>
  </g>
  <path d="m-645.88-365.04v-7.5505h13.843v15.101h-13.843z" fill="#800080" stroke-dasharray="2.09273, 2.09273" stroke-dashoffset="4.1854" stroke-width="2.0927" style="paint-order:markers fill stroke"/>
  <path d="m-380.67-365.04v-7.5505h13.843v15.101h-13.843z" fill="#800080" stroke-dasharray="2.09273, 2.09273" stroke-dashoffset="4.1854" stroke-width="2.0927" style="paint-order:markers fill stroke"/>
  <g fill="#0f0" stroke-dasharray="2.09273, 2.09273" stroke-dashoffset="4.1854" stroke-width="2.0927">
   <path d="m-645.88-313.92v-7.7078h13.843v15.416h-13.843z" style="paint-order:markers fill stroke"/>
   <path d="m-630.15-313.92v-7.7078h13.843v15.416h-13.843z" style="paint-order:markers fill stroke"/>
   <path d="m-458.69-313.92v-7.7078h13.843v15.416h-13.843z" style="paint-order:markers fill stroke"/>
   <path d="m-442.96-313.92v-7.7078h13.843v15.416h-13.843z" style="paint-order:markers fill stroke"/>
   <path d="m-427.23-313.92v-7.7078h13.843v15.416h-13.843z" style="paint-order:markers fill stroke"/>
   <path d="m-411.81-313.92v-7.7078h13.843v15.416h-13.843z" style="paint-order:markers fill stroke"/>
   <path d="m-396.08-313.92v-7.7078h13.843v15.416h-13.843z" style="paint-order:markers fill stroke"/>
   <path d="m-380.67-313.92v-7.7078h13.843v15.416h-13.843z" style="paint-order:markers fill stroke"/>
   <path d="m-614.42-296.93v-7.7078h13.843v15.416h-13.843z" style="paint-order:markers fill stroke"/>
   <path d="m-599-296.93v-7.7078h13.843v15.416h-13.843z" style="paint-order:markers fill stroke"/>
   <path d="m-583.27-296.93v-7.7078h13.843v15.416h-13.843z" style="paint-order:markers fill stroke"/>
   <path d="m-567.86-296.93v-7.7078h13.843v15.416h-13.843z" style="paint-order:markers fill stroke"/>
   <path d="m-552.13-296.93v-7.7078h13.843v15.416h-13.843z" style="paint-order:markers fill stroke"/>
   <path d="m-536.71-296.93v-7.7078h14.157v15.416h-14.157z" style="paint-order:markers fill stroke"/>
   <path d="m-520.98-296.93v-7.7078h13.843v15.416h-13.843z" style="paint-order:markers fill stroke"/>
   <path d="m-505.25-296.93v-7.7078h13.843v15.416h-13.843z" style="paint-order:markers fill stroke"/>
   <path d="m-489.83-296.93v-7.7078h13.843v15.416h-13.843z" style="paint-order:markers fill stroke"/>
   <path d="m-474.1-296.93v-7.7078h13.843v15.416h-13.843z" style="paint-order:markers fill stroke"/>
   <path d="m-567.86-230.39v-7.5505h13.843v15.101h-13.843z" style="paint-order:markers fill stroke"/>
   <path d="m-552.13-230.39v-7.5505h13.843v15.101h-13.843z" style="paint-order:markers fill stroke"/>
   <path d="m-536.71-230.39v-7.5505h14.157v15.101h-14.157z" style="paint-order:markers fill stroke"/>
   <path d="m-520.98-230.39v-7.5505h13.843v15.101h-13.843z" style="paint-order:markers fill stroke"/>
   <path d="m-505.25-230.39v-7.5505h13.843v15.101h-13.843z" style="paint-order:markers fill stroke"/>
   <path d="m-489.83-230.39v-7.5505h13.843v15.101h-13.843z" style="paint-order:markers fill stroke"/>
   <path d="m-474.1-230.39v-7.5505h13.843v15.101h-13.843z" style="paint-order:markers fill stroke"/>
   <path d="m-458.69-230.39v-7.5505h13.843v15.101h-13.843z" style="paint-order:markers fill stroke"/>
   <path d="m-442.96-230.39v-7.5505h13.843v15.101h-13.843z" style="paint-order:markers fill stroke"/>
   <path d="m-427.23-230.39v-7.5505h13.843v15.101h-13.843z" style="paint-order:markers fill stroke"/>
   <path d="m-411.81-230.39v-7.5505h13.843v15.101h-13.843z" style="paint-order:markers fill stroke"/>
   <path d="m-396.08-230.39v-7.5505h13.843v15.101h-13.843z" style="paint-order:markers fill stroke"/>
  </g>
  <g fill="#ff0" stroke-dasharray="2.09273, 2.09273" stroke-dashoffset="4.1854" stroke-width="2.0927">
   <path d="m-645.88-296.93v-7.7078h13.843v15.416h-13.843z" style="paint-order:markers fill stroke"/>
   <path d="m-630.15-296.93v-7.7078h13.843v15.416h-13.843z" style="paint-order:markers fill stroke"/>
   <path d="m-458.69-296.93v-7.7078h13.843v15.416h-13.843z" style="paint-order:markers fill stroke"/>
   <path d="m-442.96-296.93v-7.7078h13.843v15.416h-13.843z" style="paint-order:markers fill stroke"/>
   <path d="m-427.23-296.93v-7.7078h13.843v15.416h-13.843z" style="paint-order:markers fill stroke"/>
   <path d="m-411.81-296.93v-7.7078h13.843v15.416h-13.843z" style="paint-order:markers fill stroke"/>
   <path d="m-396.08-296.93v-7.7078h13.843v15.416h-13.843z" style="paint-order:markers fill stroke"/>
   <path d="m-380.67-296.93v-7.7078h13.843v15.416h-13.843z" style="paint-order:markers fill stroke"/>
   <path d="m-599-279.94v-7.7078h13.843v15.416h-13.843z" style="paint-order:markers fill stroke"/>
   <path d="m-583.27-279.94v-7.7078h13.843v15.416h-13.843z" style="paint-order:markers fill stroke"/>
   <path d="m-567.86-279.94v-7.7078h13.843v15.416h-13.843z" style="paint-order:markers fill stroke"/>
   <path d="m-552.13-279.94v-7.7078h13.843v15.416h-13.843z" style="paint-order:markers fill stroke"/>
   <path d="m-536.71-279.94v-7.7078h14.157v15.416h-14.157z" style="paint-order:markers fill stroke"/>
   <path d="m-520.98-279.94v-7.7078h13.843v15.416h-13.843z" style="paint-order:markers fill stroke"/>
   <path d="m-505.25-279.94v-7.7078h13.843v15.416h-13.843z" style="paint-order:markers fill stroke"/>
   <path d="m-489.83-279.94v-7.7078h13.843v15.416h-13.843z" style="paint-order:markers fill stroke"/>
   <path d="m-474.1-279.94v-7.7078h13.843v15.416h-13.843z" style="paint-order:markers fill stroke"/>
   <path d="m-599-230.39v-7.5505h13.843v15.101h-13.843z" style="paint-order:markers fill stroke"/>
   <path d="m-583.27-230.39v-7.5505h13.843v15.101h-13.843z" style="paint-order:markers fill stroke"/>
   <path d="m-380.67-230.39v-7.5505h13.843v15.101h-13.843z" style="paint-order:markers fill stroke"/>
   <path d="m-520.98-213.25v-7.7078h13.843v15.416h-13.843z" style="paint-order:markers fill stroke"/>
   <path d="m-505.25-213.25v-7.7078h13.843v15.416h-13.843z" style="paint-order:markers fill stroke"/>
   <path d="m-489.83-213.25v-7.7078h13.843v15.416h-13.843z" style="paint-order:markers fill stroke"/>
   <path d="m-474.1-213.25v-7.7078h13.843v15.416h-13.843z" style="paint-order:markers fill stroke"/>
   <path d="m-458.69-213.25v-7.7078h13.843v15.416h-13.843z" style="paint-order:markers fill stroke"/>
   <path d="m-442.96-213.25v-7.7078h13.843v15.416h-13.843z" style="paint-order:markers fill stroke"/>
   <path d="m-427.23-213.25v-7.7078h13.843v15.416h-13.843z" style="paint-order:markers fill stroke"/>
   <path d="m-411.81-213.25v-7.7078h13.843v15.416h-13.843z" style="paint-order:markers fill stroke"/>
   <path d="m-396.08-213.25v-7.7078h13.843v15.416h-13.843z" style="paint-order:markers fill stroke"/>
  </g>
  <g fill="#f60" stroke-dasharray="2.09273, 2.09273" stroke-dashoffset="4.1854" stroke-width="2.0927">
   <path d="m-645.88-279.94v-7.7078h13.843v15.416h-13.843z" style="paint-order:markers fill stroke"/>
   <path d="m-630.15-279.94v-7.7078h13.843v15.416h-13.843z" style="paint-order:markers fill stroke"/>
   <path d="m-458.69-279.94v-7.7078h13.843v15.416h-13.843z" style="paint-order:markers fill stroke"/>
   <path d="m-442.96-279.94v-7.7078h13.843v15.416h-13.843z" style="paint-order:markers fill stroke"/>
   <path d="m-427.23-279.94v-7.7078h13.843v15.416h-13.843z" style="paint-order:markers fill stroke"/>
   <path d="m-411.81-279.94v-7.7078h13.843v15.416h-13.843z" style="paint-order:markers fill stroke"/>
   <path d="m-396.08-279.94v-7.7078h13.843v15.416h-13.843z" style="paint-order:markers fill stroke"/>
   <path d="m-380.67-279.94v-7.7078h13.843v15.416h-13.843z" style="paint-order:markers fill stroke"/>
   <path d="m-599-262.95v-7.7078h13.843v15.416h-13.843z" style="paint-order:markers fill stroke"/>
   <path d="m-583.27-262.95v-7.7078h13.843v15.416h-13.843z" style="paint-order:markers fill stroke"/>
   <path d="m-567.86-262.95v-7.7078h13.843v15.416h-13.843z" style="paint-order:markers fill stroke"/>
   <path d="m-552.13-262.95v-7.7078h13.843v15.416h-13.843z" style="paint-order:markers fill stroke"/>
   <path d="m-536.71-262.95v-7.7078h14.157v15.416h-14.157z" style="paint-order:markers fill stroke"/>
   <path d="m-520.98-262.95v-7.7078h13.843v15.416h-13.843z" style="paint-order:markers fill stroke"/>
   <path d="m-505.25-262.95v-7.7078h13.843v15.416h-13.843z" style="paint-order:markers fill stroke"/>
   <path d="m-489.83-262.95v-7.7078h13.843v15.416h-13.843z" style="paint-order:markers fill stroke"/>
   <path d="m-474.1-262.95v-7.7078h13.843v15.416h-13.843z" style="paint-order:markers fill stroke"/>
   <path d="m-599-213.25v-7.7078h13.843v15.416h-13.843z" style="paint-order:markers fill stroke"/>
   <path d="m-583.27-213.25v-7.7078h13.843v15.416h-13.843z" style="paint-order:markers fill stroke"/>
   <path d="m-567.86-213.25v-7.7078h13.843v15.416h-13.843z" style="paint-order:markers fill stroke"/>
   <path d="m-552.13-213.25v-7.7078h13.843v15.416h-13.843z" style="paint-order:markers fill stroke"/>
   <path d="m-536.71-213.25v-7.7078h14.157v15.416h-14.157z" style="paint-order:markers fill stroke"/>
  </g>
  <g fill="#f00" stroke-dasharray="2.09273, 2.09273" stroke-dashoffset="4.1854" stroke-width="2.0927">
   <path d="m-645.88-262.95v-7.7078h13.843v15.416h-13.843z" style="paint-order:markers fill stroke"/>
   <path d="m-630.15-262.95v-7.7078h13.843v15.416h-13.843z" style="paint-order:markers fill stroke"/>
   <path d="m-458.69-262.95v-7.7078h13.843v15.416h-13.843z" style="paint-order:markers fill stroke"/>
   <path d="m-442.96-262.95v-7.7078h13.843v15.416h-13.843z" style="paint-order:markers fill stroke"/>
   <path d="m-427.23-262.95v-7.7078h13.843v15.416h-13.843z" style="paint-order:markers fill stroke"/>
   <path d="m-411.81-262.95v-7.7078h13.843v15.416h-13.843z" style="paint-order:markers fill stroke"/>
   <path d="m-396.08-262.95v-7.7078h13.843v15.416h-13.843z" style="paint-order:markers fill stroke"/>
   <path d="m-380.67-262.95v-7.7078h13.843v15.416h-13.843z" style="paint-order:markers fill stroke"/>
   <path d="m-380.67-213.25v-7.7078h13.843v15.416h-13.843z" style="paint-order:markers fill stroke"/>
  </g>
  <g font-family="'DejaVu Sans'" font-size="5.6444px" stroke-dasharray="1.76, 1.76" stroke-dashoffset="3.52" stroke-width="1.76" text-anchor="middle">
   <text x="-650.94922" y="-380.26724" fill="#000000" text-align="center" style="paint-order:markers fill stroke" xml:space="preserve"><tspan x="-650.94922" y="-380.26724" font-family="'DejaVu Sans'" font-style="oblique" stroke-width="1.76">n</tspan></text>
   <text x="-650.9823" y="-362.98386" fill="#800080" text-align="center" style="paint-order:markers fill stroke" xml:space="preserve"><tspan x="-650.9823" y="-362.98386" stroke-width="1.76">1</tspan></text>
   <text x="-650.85687" y="-345.9581" fill="#0000ff" text-align="center" style="paint-order:markers fill stroke" xml:space="preserve"><tspan x="-650.85687" y="-345.9581" stroke-width="1.76">2</tspan></text>
   <text x="-650.92163" y="-329.00952" fill="#00ffff" text-align="center" style="paint-order:markers fill stroke" xml:space="preserve"><tspan x="-650.92163" y="-329.00952" stroke-width="1.76">3</tspan></text>
   <text x="-650.91199" y="-311.8609" fill="#00ff00" text-align="center" style="paint-order:markers fill stroke" xml:space="preserve"><tspan x="-650.91199" y="-311.8609" stroke-width="1.76">4</tspan></text>
   <text x="-650.90375" y="-294.91232" fill="#ffcc00" text-align="center" style="paint-order:markers fill stroke" xml:space="preserve"><tspan x="-650.90375" y="-294.91232" stroke-width="1.76">5</tspan></text>
   <text x="-650.95197" y="-277.88657" fill="#ff6600" text-align="center" style="paint-order:markers fill stroke" xml:space="preserve"><tspan x="-650.95197" y="-277.88657" stroke-width="1.76">6</tspan></text>
   <text x="-650.92303" y="-260.89526" fill="#ff0000" text-align="center" style="paint-order:markers fill stroke" xml:space="preserve"><tspan x="-650.92303" y="-260.89526" stroke-width="1.76">7</tspan></text>
  </g>
 </g>
</svg>
