<?xml version="1.0" encoding="UTF-8"?>
<!-- Created with Inkscape (http://www.inkscape.org/) -->
<svg width="80.826mm" height="39.405mm" version="1.1" viewBox="0 0 80.826 39.405" xmlns="http://www.w3.org/2000/svg">
 <defs>
  <clipPath id="clipPath444">
   <path d="m135.16 168.17h159.6v-28.278h-159.6z"/>
  </clipPath>
  <linearGradient id="linearGradient452" x2="1" gradientTransform="matrix(159.6 0 0 -159.6 135.16 154.03)" gradientUnits="userSpaceOnUse">
   <stop stop-color="#231f20" offset="0"/>
   <stop stop-color="#fff" offset=".22472"/>
   <stop stop-color="#231f20" offset="1"/>
  </linearGradient>
  <linearGradient id="linearGradient492" x2="1" gradientTransform="matrix(26.668 -26.668 -26.668 -26.668 196.14 155.28)" gradientUnits="userSpaceOnUse">
   <stop stop-color="#fff" offset="0"/>
   <stop stop-color="#a7a9ac" offset=".10674"/>
   <stop stop-color="#fff" offset=".68539"/>
   <stop stop-color="#808284" offset="1"/>
  </linearGradient>
  <linearGradient id="linearGradient616" x2="1" gradientTransform="matrix(26.668 -26.668 -26.668 -26.668 190.53 208.07)" gradientUnits="userSpaceOnUse">
   <stop stop-color="#fff" offset="0"/>
   <stop stop-color="#a7a9ac" offset=".10674"/>
   <stop stop-color="#fff" offset=".68539"/>
   <stop stop-color="#808284" offset="1"/>
  </linearGradient>
  <clipPath id="clipPath630">
   <path d="m337.14 216.72h-213.86v-111.7h213.86z"/>
  </clipPath>
  <clipPath id="clipPath638">
   <path d="m0 781.35h609.72v-781.08h-609.72z"/>
  </clipPath>
 </defs>
 <g transform="translate(-95.038 -146.42)">
  <g transform="matrix(.35278 0 0 -.35278 127.27 153.02)">
   <path d="m0 0 25.301 10.04" fill="#eb582f" fill-rule="evenodd"/>
   <path d="m0 0 25.301 10.04" fill="none" stroke="#ef4023" stroke-width=".5"/>
  </g>
  <g transform="matrix(.35278 0 0 -.35278 136.2 149.48)">
   <path d="m0 0-2.31-3.209 0.855-0.575 2.764 3.853-0.301 0.757-4.652 0.989-0.239-0.99 3.883-0.825" fill="#ef4023" fill-rule="evenodd"/>
  </g>
  <g transform="matrix(.35278 0 0 -.35278 127.28 153.93)">
   <path d="m0 0 21.398 8.493" fill="#eb582f" fill-rule="evenodd"/>
   <path d="m0 0 21.398 8.493" fill="none" stroke="#ef4023" stroke-width=".5"/>
  </g>
  <g transform="matrix(.35278 0 0 -.35278 134.83 150.94)">
   <path d="m0 0-2.31-3.209 0.855-0.575 2.764 3.853-0.301 0.757-4.652 0.989-0.239-0.99 3.883-0.825" fill="#ef4023" fill-rule="evenodd"/>
  </g>
  <g transform="matrix(.35278 0 0 -.35278 121.88 152.61)">
   <path d="m0 0 39.705 15.751" fill="#eb582f" fill-rule="evenodd"/>
   <path d="m0 0 39.705 15.751" fill="none" stroke="#ef4023" stroke-width=".5"/>
  </g>
  <g transform="matrix(.35278 0 0 -.35278 135.89 147.06)">
   <path d="m0 0-2.31-3.209 0.855-0.575 2.764 3.853-0.301 0.757-4.652 0.989-0.239-0.99 3.883-0.825" fill="#ef4023" fill-rule="evenodd"/>
  </g>
  <g transform="matrix(.35278 0 0 -.35278 124.02 153.41)">
   <path d="m0 0 38.159 15.138" fill="#eb582f" fill-rule="evenodd"/>
   <path d="m0 0 38.159 15.138" fill="none" stroke="#ef4023" stroke-width=".5"/>
  </g>
  <g transform="matrix(.35278 0 0 -.35278 137.48 148.07)">
   <path d="m0 0-2.31-3.209 0.855-0.575 2.764 3.853-0.301 0.757-4.652 0.989-0.239-0.99 3.883-0.825" fill="#ef4023" fill-rule="evenodd"/>
  </g>
  <g transform="matrix(.35278 0 0 -.35278 121.81 153.45)">
   <path d="m0 0 36.038 14.251" fill="#eb582f" fill-rule="evenodd"/>
   <path d="m0 0 36.038 14.251" fill="none" stroke="#ef4023" stroke-width=".5"/>
  </g>
  <g transform="matrix(.35278 0 0 -.35278 134.52 148.42)">
   <path d="m0 0-2.31-3.209 0.855-0.575 2.764 3.853-0.301 0.757-4.652 0.989-0.239-0.99 3.883-0.825" fill="#ef4023" fill-rule="evenodd"/>
  </g>
  <g transform="matrix(.35278 0 0 -.35278 155.62 169.28)">
   <path d="m0 0c0-0.521-0.08-1.04-0.24-1.56-3.16 8.09-37.67 17.81-79.76 17.81-42.47 0-77.22-9.441-79.84-17.53-0.11 0.419-0.16 0.849-0.16 1.28 0 11.05 35.82 20 80 20s80-8.95 80-20" fill="#ffefcf"/>
  </g>
  <g transform="matrix(.35278 0 0 -.35278 51.547 222.87)">
   <g clip-path="url(#clipPath444)">
    <path d="m294.76 150.36c-1.21-3.91-6.93-7.51-15.85-10.47-14.599 4.579-37.8 8.07-63.91 8.07s-49.31-3.491-63.91-8.07c-9.14 3.03-14.91 6.73-15.93 10.75 2.62 8.089 37.37 17.53 79.84 17.53 42.09 0 76.6-9.72 79.76-17.81" fill="url(#linearGradient452)"/>
   </g>
  </g>
  <g transform="matrix(.35278 0 0 -.35278 149.94 173.52)">
   <path d="m0 0c-1.5-0.5-3.08-0.97-4.75-1.44-14.64 4.02-35.72 6.539-59.16 6.539s-44.52-2.519-59.16-6.539c-1.67 0.47-3.25 0.94-4.75 1.44 14.6 4.579 37.8 8.07 63.91 8.07s49.311-3.491 63.91-8.07" fill="#ffefcf"/>
  </g>
  <g transform="matrix(.35278 0 0 -.35278 120.6 175.22)">
   <path d="M 0,0 -18.385,6.051 V 26.996 L 0,20.946 V 0" fill="#bc9705"/>
  </g>
  <g transform="matrix(.35278 0 0 -.35278 120.6 167.83)">
   <path d="M 0,0 -18.385,6.05 -14.08,6.399 3.026,0.93 0,0" fill="#ffdaa2"/>
  </g>
  <g transform="matrix(.35278 0 0 -.35278 121.59 174.81)">
   <path d="m0 0-2.793-1.164v20.946l3.026 0.93-0.233-20.712" fill="#fec232"/>
  </g>
  <g transform="matrix(.35278 0 0 -.35278 51.547 222.87)">
   <path d="m221.58 127.38-24.213 9.308v19.815l24.213-9.309v-19.814" fill="url(#linearGradient492)"/>
  </g>
  <g transform="matrix(.35278 0 0 -.35278 155.62 170.25)">
   <path d="m0 0v-2.25c0-2.78-4.33-5.771-11.84-8.47-1.32 0.49-2.74 0.97-4.25 1.44 8.92 2.96 14.64 6.56 15.85 10.47 0.16-0.4 0.24-0.801 0.24-1.19" fill="#ffdaa2"/>
  </g>
  <g transform="matrix(.35278 0 0 -.35278 155.62 169.28)">
   <path d="m0 0v-2.75c0 0.389-0.08 0.79-0.24 1.19 0.16 0.52 0.24 1.039 0.24 1.56" fill="#ffdaa2"/>
  </g>
  <g transform="matrix(.35278 0 0 -.35278 155.62 171.04)">
   <path d="m0 0-0.109-16.441c-0.731 2.651-4.92 5.431-11.731 7.971 7.51 2.699 11.84 5.69 11.84 8.47" fill="#bbbdbf"/>
  </g>
  <g transform="matrix(.35278 0 0 -.35278 155.57 178.35)">
   <path d="m0 0c0-0.022-0.041-0.938-0.041-1.339 0-11.05-35.639-19.841-79.819-19.841-13.25 0-25.74 0.811-36.74 2.231l0.27 2.019v1.051c10.39-1.611 22.57-2.621 36.47-2.621 44.18 0 79.86 10.51 79.86 18.5" fill="#ffdaa2"/>
  </g>
  <g transform="matrix(.35278 0 0 -.35278 155.58 176.84)">
   <path d="m0 0-0.031-4.299c-0.95 4.07-6.75 7.799-15.969 10.85 1.519 0.459 2.939 0.93 4.269 1.42 6.811-2.54 11-5.32 11.731-7.971" fill="#bbbdbf"/>
  </g>
  <g transform="matrix(.35278 0 0 -.35278 135.63 180.39)">
   <path d="M 0,0 -18.386,6.051 V 26.996 L 0,20.945 V 0" fill="#bc9705"/>
  </g>
  <g transform="matrix(.35278 0 0 -.35278 136.45 179.66)">
   <path d="M 0,0 -2.327,-2.095 V 18.85 L 0,20.015 V 0" fill="#fec232"/>
  </g>
  <g transform="matrix(.35278 0 0 -.35278 149.94 173.52)">
   <path d="m0 0c1.51-0.47 2.93-0.95 4.25-1.44-1.33-0.49-2.75-0.961-4.269-1.42-1.49 0.49-3.07 0.97-4.731 1.42 1.67 0.47 3.25 0.94 4.75 1.44" fill="#ffdaa2"/>
  </g>
  <g transform="matrix(.35278 0 0 -.35278 148.27 174.03)">
   <path d="m0 0c1.661-0.45 3.241-0.93 4.731-1.42-14.601-4.42-37.791-7.801-63.891-7.801-13.14 0-25.53 0.901-36.47 2.381v2.51c10.94-1.41 23.33-2.2 36.47-2.2 23.44 0 44.52 2.52 59.16 6.53" fill="#ffdaa2"/>
  </g>
  <g transform="matrix(.35278 0 0 -.35278 104.02 181.22)">
   <path d="m0 0c7.2-2.989 17.18-5.83 29.78-7.779v-1.051l-0.27-2.019c-25.7 3.33-43.26 10.03-43.26 17.769 0 0.711 0.15 1.41 0.43 2.101 1.34-2.63 5.84-5.91 13.32-9.021" fill="#ffdaa2"/>
  </g>
  <g transform="matrix(.35278 0 0 -.35278 114.53 176.44)">
   <path d="m0 0v-21.32c-12.6 1.949-22.58 4.79-29.78 7.779v18.141c0.91 0.33 1.86 0.66 2.85 0.98 7.18-2.201 16.38-4.16 26.93-5.58" fill="#ffdaa2"/>
  </g>
  <g transform="matrix(.35278 0 0 -.35278 114.53 175.56)">
   <path d="m0 0v-2.51c-10.55 1.42-19.75 3.379-26.93 5.58 1.34 0.44 2.76 0.86 4.24 1.26 6.43-1.76 14.11-3.24 22.69-4.33" fill="#ffdaa2"/>
  </g>
  <g transform="matrix(.35278 0 0 -.35278 104.85 173.52)">
   <path d="m0 0c1.5-0.5 3.08-0.97 4.75-1.44-1.48-0.4-2.9-0.82-4.24-1.26-1.52 0.47-2.95 0.95-4.28 1.43 1.18 0.439 2.44 0.859 3.77 1.27" fill="#ffdaa2"/>
  </g>
  <g transform="matrix(.35278 0 0 -.35278 104.02 174.82)" fill="#bbbdbf">
   <path d="m0 0c-7.2-2.651-11.92-5.76-13.32-9.12-0.29 0.559-0.43 1.09-0.43 1.58v1c0 2.95 4.52 6.11 12.32 8.95 1.33-0.48 2.76-0.96 4.28-1.43-0.99-0.32-1.94-0.65-2.85-0.98"/>
   <path d="m0 0v-18.141c-7.48 3.111-11.98 6.391-13.32 9.021 1.4 3.36 6.12 6.469 13.32 9.12"/>
  </g>
  <g transform="matrix(.35278 0 0 -.35278 104.85 173.52)">
   <path d="m0 0c-1.33-0.411-2.59-0.831-3.77-1.27-7.8 2.84-12.32 5.96-12.32 8.8v2.25c0 0.319 0.05 0.639 0.16 0.97 1.02-4.02 6.79-7.72 15.93-10.75" fill="#ffdaa2"/>
  </g>
  <g transform="matrix(.35278 0 0 -.35278 99.173 169.28)">
   <path d="m0 0c0-0.431 0.05-0.861 0.16-1.28-0.11-0.331-0.16-0.651-0.16-0.97v2.25" fill="#ffdaa2"/>
  </g>
  <g transform="matrix(.35278 0 0 -.35278 99.173 170.86)">
   <path d="m0 0c0-2.84 4.52-5.96 12.32-8.8-7.8-2.84-12.32-6-12.32-8.95v17.75" fill="#bbbdbf"/>
  </g>
  <g transform="matrix(.35278 0 0 -.35278 99.325 178.04)">
   <path d="m0 0c-0.28-0.691-0.43-1.39-0.43-2.101v3.681c0-0.49 0.14-1.021 0.43-1.58" fill="#ffdaa2"/>
  </g>
  <g transform="matrix(.35278 0 0 -.35278 109.25 176.66)">
   <path d="m0 0c-2.411 0-4.367-3.178-4.367-7.097 0-3.92 1.956-7.098 4.367-7.098 2.412 0 4.367 3.178 4.367 7.098 0 3.919-1.955 7.097-4.367 7.097zm4.367-7.097c0-3.92-2.292-7.098-5.12-7.098-2.827 0-5.119 3.178-5.119 7.098 0 3.919 2.292 7.097 5.119 7.097 2.828 0 5.12-3.178 5.12-7.097" fill="#bc9705"/>
  </g>
  <g transform="matrix(.35278 0 0 -.35278 110.8 179.16)">
   <path d="m0 0c0-3.92-1.955-7.098-4.367-7.098-2.411 0-4.367 3.178-4.367 7.098 0 3.919 1.956 7.097 4.367 7.097 2.412 0 4.367-3.178 4.367-7.097" fill="#fff"/>
  </g>
  <g transform="matrix(.35278 0 0 -.35278 135.63 173.01)">
   <path d="M 0,0 -18.386,6.051 -15.36,7.331 2.327,1.165 0,0" fill="#ffdaa2"/>
  </g>
  <g transform="matrix(.35278 0 0 -.35278 119.61 156.12)">
   <path d="m0 0-2.793-1.164v20.946l3.026 0.93-0.233-20.712" fill="#fec232"/>
  </g>
  <g transform="matrix(.35278 0 0 -.35278 118.62 156.6)">
   <path d="M 0,0 -18.385,6.051 V 26.996 L 0,20.945 V 0" fill="#bc9705"/>
  </g>
  <g transform="matrix(.35278 0 0 -.35278 118.62 149.21)">
   <path d="M 0,0 -18.385,6.051 -14.08,6.4 3.026,0.931 0,0" fill="#ffdaa2"/>
  </g>
  <g transform="matrix(.35278 0 0 -.35278 51.547 222.87)">
   <path d="m215.97 180.17-24.213 9.309v19.814l24.213-9.308v-19.815" fill="url(#linearGradient616)"/>
  </g>
  <g transform="matrix(.35278 0 0 -.35278 155.57 178.36)">
   <path d="m0 0v-0.01c0-7.99-35.68-18.5-79.86-18.5-13.9 0-26.08 1.009-36.47 2.62v21.32c10.94-1.48 23.33-2.381 36.47-2.381 26.1 0 49.29 3.381 63.891 7.801 9.219-3.051 15.019-6.78 15.969-10.85" fill="#bbbdbf"/>
  </g>
  <g transform="matrix(.35278 0 0 -.35278 51.547 222.87)">
   <g clip-path="url(#clipPath630)">
    <g clip-path="url(#clipPath638)">
     <g transform="translate(123.37 108.3)">
      <path d="m0 0 44.176 17.523m-9.863 56.79 41.69 16.538m-40.851-18.498 40.643 16.123m-39.883-20.751 44.133 17.501m-42.516-19.442 45.205 17.965" fill="none" stroke="#ef4023" stroke-width=".5"/>
     </g>
    </g>
   </g>
  </g>
  <g transform="matrix(.35278 0 0 -.35278 123.31 154.6)">
   <path d="m0 0 11.237 4.461" fill="none" stroke="#fff" stroke-width=".5"/>
  </g>
  <g transform="matrix(.35278 0 0 -.35278 108.43 159.59)">
   <path d="m0 0 44.175 17.524" fill="none" stroke="#ef4023" stroke-width=".5"/>
  </g>
  <g transform="matrix(.35278 0 0 -.35278 121.85 152.53)">
   <path d="M 0,0 0.184,-0.465 9.695,3.289 9.002,3.553 0,0" fill="#fff"/>
  </g>
  <g transform="matrix(.35278 0 0 -.35278 121.78 153.37)">
   <path d="M 0,0 0.183,-0.465 12.871,4.531 12.179,4.796 0,0" fill="#fff"/>
  </g>
  <g transform="matrix(.35278 0 0 -.35278 127.13 152.08)">
   <path d="M 0,0 -8.933,-3.535 -8.749,-4 0.691,-0.263 0,0" fill="#fff"/>
  </g>
  <g transform="matrix(.35278 0 0 -.35278 124.26 155.12)">
   <path d="m0 0 8.576 3.36" fill="none" stroke="#fff" stroke-width=".5"/>
  </g>
  <g transform="matrix(.35278 0 0 -.35278 117.39 175.8)">
   <path d="m0 0 21.895 8.686" fill="none" stroke="#ef4023" stroke-width=".5"/>
  </g>
  <g transform="matrix(.35278 0 0 -.35278 125.11 172.74)">
   <path d="m0 0-2.31-3.21 0.856-0.574 2.763 3.853-0.301 0.758-4.652 0.988-0.24-0.99 3.884-0.825" fill="#ef4023" fill-rule="evenodd"/>
  </g>
  <g transform="matrix(.35278 0 0 -.35278 127.55 162.11)">
   <path d="m0 0c-21.388 0-41.5-2.083-56.629-5.866-15.232-3.808-23.809-8.916-23.809-14.384 0-5.469 8.577-10.577 23.809-14.385 15.129-3.783 35.241-5.865 56.629-5.865 21.389 0 41.5 2.082 56.629 5.865 15.232 3.808 22.965 8.916 22.965 14.385 0 5.468-7.733 10.576-22.965 14.384-15.129 3.783-35.24 5.866-56.629 5.866zm79.094-20.25c0-10.891-35.12-19.75-79.094-19.75s-79.938 8.859-79.938 19.75c0 10.89 35.964 19.75 79.938 19.75s79.094-8.86 79.094-19.75" fill="#bc9705"/>
  </g>
  <g transform="matrix(.35278 0 0 -.35278 138.99 168.06)">
   <path d="m0 0-0.672 0.278-0.611-0.395 0.058 0.725-0.566 0.459 0.708 0.169 0.262 0.68 0.38-0.621 0.726-0.039-0.472-0.553 0.187-0.703" fill="#fff"/>
  </g>
  <g transform="matrix(.35278 0 0 -.35278 137.21 169.18)">
   <path d="m0 0-0.672 0.278-0.612-0.394 0.059 0.724-0.565 0.459 0.708 0.17 0.261 0.679 0.379-0.621 0.727-0.038-0.473-0.554 0.188-0.703" fill="#fff"/>
  </g>
  <g transform="matrix(.35278 0 0 -.35278 137.7 167.61)">
   <path d="m0 0-0.672 0.28-0.61-0.397 0.058 0.727-0.565 0.459 0.707 0.169 0.262 0.678 0.38-0.621 0.726-0.039-0.472-0.552 0.186-0.704" fill="#fff"/>
  </g>
  <g transform="matrix(.35278 0 0 -.35278 136.71 167.02)">
   <path d="m0 0-0.672 0.278-0.611-0.395 0.057 0.725-0.564 0.459 0.707 0.169 0.261 0.68 0.381-0.621 0.727-0.039-0.473-0.553 0.187-0.703" fill="#fff"/>
  </g>
  <g transform="matrix(.35278 0 0 -.35278 139.41 166.31)">
   <path d="m0 0-0.671 0.278-0.611-0.395 0.058 0.725-0.565 0.459 0.707 0.17 0.262 0.679 0.38-0.621 0.727-0.039-0.473-0.553 0.186-0.703" fill="#fff"/>
  </g>
  <g transform="matrix(.35278 0 0 -.35278 140.38 169.64)">
   <path d="m0 0-0.672 0.278-0.61-0.395 0.056 0.725-0.564 0.459 0.707 0.17 0.262 0.679 0.38-0.622 0.727-0.038-0.473-0.553 0.187-0.703" fill="#fff"/>
  </g>
  <g transform="matrix(.35278 0 0 -.35278 138.56 169.64)">
   <path d="m0 0-0.672 0.278-0.611-0.395 0.058 0.725-0.565 0.459 0.708 0.17 0.262 0.679 0.378-0.622 0.727-0.038-0.473-0.553 0.188-0.703" fill="#fff"/>
  </g>
  <g transform="matrix(.35278 0 0 -.35278 129.57 180.68)">
   <path d="m0 0-0.672 0.278-0.611-0.396 0.057 0.726-0.565 0.459 0.708 0.169 0.262 0.68 0.38-0.622 0.726-0.039-0.472-0.552 0.187-0.703" fill="#fff"/>
  </g>
  <g transform="matrix(.35278 0 0 -.35278 141.13 167.54)">
   <path d="m0 0-0.672 0.279-0.612-0.396 0.059 0.726-0.565 0.459 0.708 0.169 0.261 0.679 0.379-0.621 0.727-0.039-0.473-0.553 0.188-0.703" fill="#fff"/>
  </g>
  <g transform="matrix(.35278 0 0 -.35278 109.27 161.85)">
   <path d="m0 0 44.176 17.524 9.758-54.67" fill="none" stroke="#ef4023" stroke-width=".5"/>
  </g>
  <g transform="matrix(.35278 0 0 -.35278 128.29 174.96)">
   <path d="M 0,0 -2.683,2.906 -3.417,2.181 -0.193,-1.296 0.609,-1.152 2.507,3.209 1.584,3.641 0,0" fill="#ef4023" fill-rule="evenodd"/>
  </g>
  <g transform="matrix(.35278 0 0 -.35278 139.29 165.96)">
   <path d="m0 0 35.76 8.342" fill="none" stroke="#231f20" stroke-width=".5"/>
  </g>
  <g transform="matrix(.35278 0 0 -.35278 133.65 161.77)">
   <path d="M 0,0 -18.385,6.051 V 26.996 L 0,20.946 V 0" fill="#bc9705"/>
  </g>
  <g transform="matrix(.35278 0 0 -.35278 134.47 161.03)">
   <path d="m0 0-2.328-2.094v20.946l2.328 1.163v-20.015" fill="#fec232"/>
  </g>
  <g transform="matrix(.35278 0 0 -.35278 133.65 154.38)">
   <path d="M 0,0 -18.385,6.05 -15.359,7.33 2.328,1.163 0,0" fill="#ffdaa2"/>
  </g>
  <g transform="matrix(.35278 0 0 -.35278 126.44 156.64)">
   <path d="m0 0 30.26 7.342m-31.134-20.972 31.134 7.71" fill="none" stroke="#231f20" stroke-width=".5"/>
  </g>
  <g fill="#231f20" font-family="Sabon" font-size="2.8222px" stroke-width=".35278">
   <text x="156.76384" y="173.91476" xml:space="preserve"><tspan x="156.76384" y="173.91476">fluorestseeruv</tspan><tspan x="156.76384" y="177.44254">ekraan</tspan></text>
   <text x="98.806976" y="156.89894" xml:space="preserve"><tspan x="98.806976" y="156.89894" stroke-width=".35278">osakesed</tspan></text>
   <text x="137.88748" y="154.22388" xml:space="preserve"><tspan x="137.88748" y="154.22388" stroke-width=".35278">plaatina foolium</tspan></text>
   <text x="138.76176" y="159.47804" xml:space="preserve"><tspan x="138.76176" y="159.47804" stroke-width=".35278">üks osake 20 000'st</tspan></text>
   <text x="153.39653" y="163.78688" xml:space="preserve"><tspan x="153.39653" y="163.78688" stroke-width=".35278">välgatused</tspan></text>
  </g>
 </g>
</svg>
