<?xml version="1.0" encoding="UTF-8"?>
<!-- Created with Inkscape (http://www.inkscape.org/) -->
<svg width="58.438mm" height="24.084mm" version="1.1" viewBox="0 0 58.438 24.084" xmlns="http://www.w3.org/2000/svg">
 <g transform="translate(-69.322 -124.79)">
  <path d="m97.063 144.7h-27.564v-19.738h27.564zm30.521 0h-27.564v-19.738h27.564z" fill="none" stroke="#231f20" stroke-width=".35278"/>
  <path d="m73.585 127.83c0 0.72037-0.5842 1.3046-1.3046 1.3046s-1.3042-0.5842-1.3042-1.3046 0.58385-1.3042 1.3042-1.3042 1.3046 0.58385 1.3046 1.3042zm2.6956 0c0 0.72037-0.58385 1.3046-1.3042 1.3046-0.72037 0-1.3046-0.5842-1.3046-1.3046s0.5842-1.3042 1.3046-1.3042c0.72037 0 1.3042 0.58385 1.3042 1.3042zm6.8693 0c0 0.72037-0.5842 1.3046-1.3046 1.3046-0.72037 0-1.3042-0.5842-1.3042-1.3046s0.58385-1.3042 1.3042-1.3042c0.72037 0 1.3046 0.58385 1.3046 1.3042zm2.6956 0c0 0.72037-0.5842 1.3046-1.3046 1.3046-0.72037 0-1.3042-0.5842-1.3042-1.3046s0.58385-1.3042 1.3042-1.3042c0.72037 0 1.3046 0.58385 1.3046 1.3042zm4.4348 0c0 0.72037-0.58455 1.3046-1.3046 1.3046-0.72037 0-1.3046-0.5842-1.3046-1.3046s0.5842-1.3042 1.3046-1.3042c0.72002 0 1.3046 0.58385 1.3046 1.3042zm5.304 0c0 0.72037-0.5842 1.3046-1.3042 1.3046-0.72037 0-1.3046-0.5842-1.3046-1.3046s0.5842-1.3042 1.3046-1.3042c0.72002 0 1.3042 0.58385 1.3042 1.3042z" fill="none" stroke="#231f20" stroke-width=".17639"/>
  <g transform="matrix(.35278 0 0 -.35278 92.889 127.83)">
   <path d="m0 0c0-2.042-1.656-3.698-3.697-3.698-2.043 0-3.697 1.656-3.697 3.698s1.654 3.697 3.697 3.697c2.041 0 3.697-1.655 3.697-3.697" fill="#231f20"/>
   <path d="m0 0c0-2.042-1.656-3.698-3.697-3.698-2.043 0-3.697 1.656-3.697 3.698s1.654 3.697 3.697 3.697c2.041 0 3.697-1.655 3.697-3.697z" fill="none" stroke="#231f20"/>
  </g>
  <g transform="matrix(.35278 0 0 -.35278 106.11 127.83)">
   <path d="m0 0c0-2.042-1.656-3.698-3.697-3.698-2.043 0-3.698 1.656-3.698 3.698s1.655 3.697 3.698 3.697c2.041 0 3.697-1.655 3.697-3.697" fill="#231f20"/>
   <path d="m0 0c0-2.042-1.656-3.698-3.697-3.698-2.043 0-3.698 1.656-3.698 3.698s1.655 3.697 3.698 3.697c2.041 0 3.697-1.655 3.697-3.697z" fill="none" stroke="#231f20"/>
  </g>
  <g transform="matrix(.35278 0 0 -.35278 112.8 127.83)">
   <path d="m0 0c0-2.042-1.657-3.698-3.698-3.698-2.043 0-3.697 1.656-3.697 3.698s1.654 3.697 3.697 3.697c2.041 0 3.698-1.655 3.698-3.697" fill="#231f20"/>
   <path d="m0 0c0-2.042-1.657-3.698-3.698-3.698-2.043 0-3.697 1.656-3.697 3.698s1.654 3.697 3.697 3.697c2.041 0 3.698-1.655 3.698-3.697z" fill="none" stroke="#231f20"/>
  </g>
  <g transform="matrix(.35278 0 0 -.35278 90.28 132.62)">
   <path d="m0 0c0-2.042-1.657-3.697-3.698-3.697-2.042 0-3.698 1.655-3.698 3.697s1.656 3.697 3.698 3.697c2.041 0 3.698-1.655 3.698-3.697zm15.035 0c0-2.042-1.656-3.697-3.697-3.697-2.042 0-3.698 1.655-3.698 3.697s1.656 3.697 3.698 3.697c2.041 0 3.697-1.655 3.697-3.697z" fill="none" stroke="#231f20" stroke-width=".5"/>
  </g>
  <g transform="matrix(.35278 0 0 -.35278 92.889 132.62)">
   <path d="m0 0c0-2.042-1.656-3.697-3.697-3.697-2.043 0-3.697 1.655-3.697 3.697s1.654 3.697 3.697 3.697c2.041 0 3.697-1.655 3.697-3.697" fill="#231f20"/>
   <path d="m0 0c0-2.042-1.656-3.697-3.697-3.697-2.043 0-3.697 1.655-3.697 3.697s1.654 3.697 3.697 3.697c2.041 0 3.697-1.655 3.697-3.697z" fill="none" stroke="#231f20"/>
  </g>
  <g transform="matrix(.35278 0 0 -.35278 90.28 137.66)">
   <path d="m0 0c0-2.041-1.657-3.697-3.698-3.697-2.042 0-3.698 1.656-3.698 3.697 0 2.042 1.656 3.698 3.698 3.698 2.041 0 3.698-1.656 3.698-3.698zm15.035 0c0-2.041-1.656-3.697-3.697-3.697-2.042 0-3.698 1.656-3.698 3.697 0 2.042 1.656 3.698 3.698 3.698 2.041 0 3.697-1.656 3.697-3.698z" fill="none" stroke="#231f20" stroke-width=".5"/>
  </g>
  <g transform="matrix(.35278 0 0 -.35278 92.889 137.66)">
   <path d="m0 0c0-2.041-1.656-3.697-3.697-3.697-2.043 0-3.697 1.656-3.697 3.697 0 2.042 1.654 3.698 3.697 3.698 2.041 0 3.697-1.656 3.697-3.698" fill="#231f20"/>
   <path d="m0 0c0-2.041-1.656-3.697-3.697-3.697-2.043 0-3.697 1.656-3.697 3.697 0 2.042 1.654 3.698 3.697 3.698 2.041 0 3.697-1.656 3.697-3.698z" fill="none" stroke="#231f20"/>
  </g>
  <g transform="matrix(.35278 0 0 -.35278 90.28 142.1)">
   <path d="m0 0c0-2.042-1.657-3.698-3.698-3.698-2.042 0-3.698 1.656-3.698 3.698 0 2.043 1.656 3.697 3.698 3.697 2.041 0 3.698-1.654 3.698-3.697zm15.035 0c0-2.042-1.656-3.698-3.697-3.698-2.042 0-3.698 1.656-3.698 3.698 0 2.043 1.656 3.697 3.698 3.697 2.041 0 3.697-1.654 3.697-3.697z" fill="none" stroke="#231f20" stroke-width=".5"/>
  </g>
  <g transform="matrix(.35278 0 0 -.35278 92.889 142.1)">
   <path d="m0 0c0-2.042-1.656-3.698-3.697-3.698-2.043 0-3.697 1.656-3.697 3.698 0 2.043 1.654 3.697 3.697 3.697 2.041 0 3.697-1.654 3.697-3.697" fill="#231f20"/>
   <path d="m0 0c0-2.042-1.656-3.698-3.697-3.698-2.043 0-3.697 1.656-3.697 3.698 0 2.043 1.654 3.697 3.697 3.697 2.041 0 3.697-1.654 3.697-3.697z" fill="none" stroke="#231f20"/>
  </g>
  <g transform="matrix(.35278 0 0 -.35278 78.455 129.89)">
   <path d="M 0,0 -5.578,5.578 0,11.156 5.578,5.578 0,0" fill="#231f20"/>
  </g>
  <g transform="matrix(.35278 0 0 -.35278 83.15 132.61)">
   <path d="m0 0c0-2.042-1.656-3.698-3.698-3.698s-3.697 1.656-3.697 3.698 1.655 3.697 3.697 3.697 3.698-1.655 3.698-3.697zm7.641 0c0-2.042-1.656-3.698-3.698-3.698s-3.697 1.656-3.697 3.698 1.655 3.697 3.697 3.697 3.698-1.655 3.698-3.697z" fill="none" stroke="#231f20" stroke-width=".5"/>
  </g>
  <g transform="matrix(.35278 0 0 -.35278 108.28 129.89)">
   <path d="M 0,0 -5.578,5.578 0,11.156 5.578,5.578 0,0" fill="#231f20"/>
  </g>
  <g transform="matrix(.35278 0 0 -.35278 118.19 127.83)">
   <path d="m0 0c0-2.042-1.656-3.698-3.697-3.698-2.043 0-3.698 1.656-3.698 3.698s1.655 3.697 3.698 3.697c2.041 0 3.697-1.655 3.697-3.697" fill="#231f20"/>
   <path d="m0 0c0-2.042-1.656-3.698-3.697-3.698-2.043 0-3.698 1.656-3.698 3.698s1.655 3.697 3.698 3.697c2.041 0 3.697-1.655 3.697-3.697z" fill="none" stroke="#231f20"/>
  </g>
  <g transform="matrix(.35278 0 0 -.35278 124.89 127.83)">
   <path d="m0 0c0-2.042-1.656-3.698-3.697-3.698-2.043 0-3.697 1.656-3.697 3.698s1.654 3.697 3.697 3.697c2.041 0 3.697-1.655 3.697-3.697" fill="#231f20"/>
   <path d="m0 0c0-2.042-1.656-3.698-3.697-3.698-2.043 0-3.697 1.656-3.697 3.698s1.654 3.697 3.697 3.697c2.041 0 3.697-1.655 3.697-3.697z" fill="none" stroke="#231f20"/>
  </g>
  <g transform="matrix(.35278 0 0 -.35278 120.37 129.89)">
   <path d="M 0,0 -5.578,5.578 0,11.156 5.578,5.578 0,0" fill="#231f20"/>
  </g>
  <path d="m73.585 132.61c0 0.72037-0.5842 1.3042-1.3046 1.3042s-1.3042-0.58385-1.3042-1.3042 0.58385-1.3042 1.3042-1.3042 1.3046 0.58385 1.3046 1.3042zm2.6956 0c0 0.72037-0.58385 1.3042-1.3042 1.3042-0.72037 0-1.3046-0.58385-1.3046-1.3042s0.5842-1.3042 1.3046-1.3042c0.72037 0 1.3042 0.58385 1.3042 1.3042zm29.738 0c0 0.72037-0.5842 1.3042-1.3042 1.3042-0.72072 0-1.3046-0.58385-1.3046-1.3042s0.58385-1.3042 1.3046-1.3042c0.72002 0 1.3042 0.58385 1.3042 1.3042zm2.6956 0c0 0.72037-0.5842 1.3042-1.3046 1.3042-0.72038 0-1.3042-0.58385-1.3042-1.3042s0.58384-1.3042 1.3042-1.3042c0.72037 0 1.3046 0.58385 1.3046 1.3042zm5.5651 0c0 0.72037-0.5842 1.3042-1.3042 1.3042-0.72073 0-1.3046-0.58385-1.3046-1.3042s0.58384-1.3042 1.3046-1.3042c0.72002 0 1.3042 0.58385 1.3042 1.3042zm2.6956 0c0 0.72037-0.5842 1.3042-1.3046 1.3042s-1.3042-0.58385-1.3042-1.3042 0.58385-1.3042 1.3042-1.3042 1.3046 0.58385 1.3046 1.3042zm5.043 0c0 0.72037-0.5842 1.3042-1.3042 1.3042-0.72072 0-1.3042-0.58385-1.3042-1.3042s0.5835-1.3042 1.3042-1.3042c0.72002 0 1.3042 0.58385 1.3042 1.3042zm2.6956 0c0 0.72037-0.58385 1.3042-1.3042 1.3042-0.72038 0-1.3042-0.58385-1.3042-1.3042s0.58384-1.3042 1.3042-1.3042c0.72037 0 1.3042 0.58385 1.3042 1.3042zm-18.695 5.0486c0 0.72002-0.5842 1.3042-1.3042 1.3042-0.72072 0-1.3046-0.5842-1.3046-1.3042 0-0.72037 0.58385-1.3046 1.3046-1.3046 0.72002 0 1.3042 0.5842 1.3042 1.3046zm2.6956 0c0 0.72002-0.5842 1.3042-1.3046 1.3042-0.72038 0-1.3042-0.5842-1.3042-1.3042 0-0.72037 0.58384-1.3046 1.3042-1.3046 0.72037 0 1.3046 0.5842 1.3046 1.3046zm5.5651 0c0 0.72002-0.5842 1.3042-1.3042 1.3042-0.72073 0-1.3046-0.5842-1.3046-1.3042 0-0.72037 0.58384-1.3046 1.3046-1.3046 0.72002 0 1.3042 0.5842 1.3042 1.3046zm2.6956 0c0 0.72002-0.5842 1.3042-1.3046 1.3042s-1.3042-0.5842-1.3042-1.3042c0-0.72037 0.58385-1.3046 1.3042-1.3046s1.3046 0.5842 1.3046 1.3046zm-10.956 4.4348c0 0.72037-0.5842 1.3046-1.3042 1.3046-0.72072 0-1.3046-0.5842-1.3046-1.3046 0-0.72072 0.58385-1.3042 1.3046-1.3042 0.72002 0 1.3042 0.5835 1.3042 1.3042zm2.6956 0c0 0.72037-0.5842 1.3046-1.3046 1.3046-0.72038 0-1.3042-0.5842-1.3042-1.3046 0-0.72072 0.58384-1.3042 1.3042-1.3042 0.72037 0 1.3046 0.5835 1.3046 1.3042zm5.5651 0c0 0.72037-0.5842 1.3046-1.3042 1.3046-0.72073 0-1.3046-0.5842-1.3046-1.3046 0-0.72072 0.58384-1.3042 1.3046-1.3042 0.72002 0 1.3042 0.5835 1.3042 1.3042zm2.6956 0c0 0.72037-0.5842 1.3046-1.3046 1.3046s-1.3042-0.5842-1.3042-1.3046c0-0.72072 0.58385-1.3042 1.3042-1.3042s1.3046 0.5835 1.3046 1.3042zm5.043-4.4348c0 0.72002-0.5842 1.3042-1.3042 1.3042-0.72072 0-1.3042-0.5842-1.3042-1.3042 0-0.72037 0.5835-1.3046 1.3042-1.3046 0.72002 0 1.3042 0.5842 1.3042 1.3046zm2.6956 0c0 0.72002-0.58385 1.3042-1.3042 1.3042-0.72038 0-1.3042-0.5842-1.3042-1.3042 0-0.72037 0.58384-1.3046 1.3042-1.3046 0.72037 0 1.3042 0.5842 1.3042 1.3046z" fill="none" stroke="#231f20" stroke-width=".17639"/>
  <g transform="matrix(.35278 0 0 -.35278 78.455 134.67)">
   <path d="M 0,0 -5.578,5.577 0,11.155 5.578,5.577 0,0" fill="#231f20"/>
  </g>
  <g fill="none" font-family="'Alte Haas Grotesk'" font-size="4.2333px" font-weight="bold" stroke-dasharray="1.76, 1.76" stroke-dashoffset="3.52" stroke-linecap="square" stroke-width="1.76">
   <text x="104.32198" y="148.81827" style="paint-order:markers fill stroke" xml:space="preserve"><tspan x="104.32198" y="148.81827" fill="#000000" font-size="4.2333px" stroke-width="1.76">vesinik</tspan></text>
   <text x="70.138763" y="138.0468" style="paint-order:markers fill stroke" xml:space="preserve"><tspan x="70.138763" y="138.0468" fill="#000000" font-size="4.2333px" stroke-width="1.76">räni</tspan></text>
   <text x="71.0793" y="141.83279" style="paint-order:markers fill stroke" xml:space="preserve"><tspan x="71.0793" y="141.83279" fill="#000000" font-size="4.2333px" stroke-width="1.76">hapnik</tspan></text>
  </g>
  <g stroke="#231f20" stroke-dasharray="0.26, 0.26" stroke-dashoffset=".52" stroke-linecap="square" stroke-width=".26">
   <path d="m91.409 133.76-9.821 5.2196" style="paint-order:markers fill stroke"/>
   <path d="m77.312 135.22 1.6295-2.6731" style="paint-order:markers fill stroke"/>
   <path d="m111.63 146.05 1.1716-3.8414" style="paint-order:markers fill stroke"/>
  </g>
 </g>
</svg>
